<svg width="2158" height="182" viewBox="0 0 2158 182" fill="none" xmlns="http://www.w3.org/2000/svg">
<path d="M39.6318 164.391C28.0034 152.98 31.5892 135.788 31.5733 120.725C31.8394 107.025 28.8707 93.7566 26.0061 80.4203C-0.382734 -30.4548 149.168 23.3546 139.852 101.312C135.861 141.439 78.314 195.359 39.6318 164.391Z" fill="#B289DF"/>
<path d="M74.4986 81.7735C71.9963 79.3529 71.9325 75.3635 74.3562 72.8631C76.7799 70.3626 80.7733 70.2979 83.2757 72.7186C85.7781 75.1392 85.8418 79.1286 83.4181 81.6291C80.9944 84.1295 77.001 84.1942 74.4986 81.7735Z" fill="#5D359B"/>
<path d="M116.732 78.9265C113.253 79.0922 110.298 76.4085 110.133 72.9322C109.968 69.4559 112.655 66.5035 116.135 66.3378C119.615 66.1721 122.569 68.8559 122.734 72.3321C122.899 75.8084 120.212 78.7608 116.732 78.9265Z" fill="#5D359B"/>
<path d="M80.6876 93.2488C80.528 93.7449 80.9834 94.3215 83.6911 94.9834C86.3762 95.5769 91.4432 96.325 100.136 95.3111C108.914 94.1731 113.578 92.2264 116.06 90.9965C118.52 89.7052 118.847 89.0108 118.546 88.5858C118.238 88.1118 117.869 87.8871 115.522 88.5956C114.34 88.9402 112.643 89.4906 110.126 90.1489C107.625 90.8126 104.23 91.5649 99.7947 92.1325C95.2211 92.6745 91.8715 92.7529 89.2414 92.7214C86.6332 92.6942 84.8601 92.5714 83.6301 92.5238C81.1746 92.4068 80.8778 92.7135 80.6876 93.2488Z" fill="#5D359B"/>
<path d="M108.665 95.7965C109.219 95.7282 109.424 95.8949 109.65 96.2226C109.939 96.6633 110.125 97.1949 109.061 98.0868C107.99 98.9296 105.664 100.204 100.816 100.837C96.0589 101.388 93.4221 100.724 92.2001 100.164C90.951 99.5567 91.0029 98.9957 91.1843 98.5041C91.3086 98.1262 91.4755 97.9208 92.0293 97.8526C92.2396 97.8267 92.5165 97.821 92.8599 97.8356C94.1137 97.8447 96.3358 98.1469 100.483 97.6646C104.517 97.1392 106.677 96.2973 107.863 95.9877C108.193 95.8902 108.456 95.8294 108.666 95.8035" fill="#9D6DD8"/>
<path d="M195.053 86.7399C200.443 71.3645 217.529 67.3056 231.157 60.8908C243.672 55.3102 254.422 46.9849 265.277 38.725C354.432 -32.2755 369.268 125.967 294.74 150.659C256.72 164.097 183.457 134.915 195.053 86.7399Z" fill="#B289DF"/>
<path d="M262.039 67.6276C259.796 64.7443 260.318 60.5905 263.204 58.3499C266.09 56.1094 270.248 56.6304 272.491 59.5137C274.734 62.3971 274.213 66.5508 271.327 68.7914C268.441 71.032 264.282 70.5109 262.039 67.6276Z" fill="#5D359B"/>
<path d="M306.334 70.8914C302.694 70.5509 300.02 67.3277 300.361 63.692C300.702 60.0564 303.928 57.3851 307.567 57.7256C311.207 58.066 313.881 61.2893 313.54 64.925C313.2 68.5606 309.973 71.2319 306.334 70.8914Z" fill="#5D359B"/>
<path d="M266.778 80.4604C266.54 80.9522 266.928 81.6183 269.643 82.7048C272.345 83.7169 277.499 85.2405 286.679 85.4678C295.965 85.5786 301.097 84.2433 303.857 83.3312C306.603 82.3521 307.045 81.679 306.794 81.193C306.545 80.6553 306.194 80.3675 303.652 80.7578C302.373 80.9418 300.529 81.2634 297.818 81.5767C295.121 81.8975 291.484 82.179 286.792 82.1153C281.961 82.0046 278.47 81.5927 275.742 81.1725C273.037 80.7601 271.213 80.3712 269.942 80.1406C267.408 79.6573 267.055 79.9323 266.778 80.4604Z" fill="#5D359B"/>
<path d="M295.467 87.2283C296.053 87.239 296.242 87.4424 296.428 87.8161C296.663 88.3166 296.778 88.8963 295.541 89.666C294.305 90.3839 291.7 91.3655 286.571 91.3086C281.548 91.1796 278.906 90.1019 277.719 89.3397C276.511 88.5252 276.648 87.9501 276.909 87.4661C277.093 87.0918 277.297 86.903 277.882 86.9138C278.105 86.9178 278.393 86.9527 278.748 87.0185C280.049 87.2126 282.313 87.8539 286.692 87.9637C290.961 88.0122 293.328 87.4557 294.606 87.3088C294.963 87.2561 295.245 87.2316 295.467 87.2357" fill="#9D6DD8"/>
<path d="M465.696 173.932C449.755 170.563 443.534 154.141 435.421 141.45C428.278 129.756 418.64 120.165 409.053 110.462C327.182 31.1721 482.205 -3.87972 516.272 66.856C534.485 102.834 514.961 179.24 465.696 173.932Z" fill="#B289DF"/>
<path d="M443.152 67.6276C440.909 64.7443 441.43 60.5905 444.316 58.3499C447.203 56.1094 451.361 56.6304 453.604 59.5137C455.847 62.3971 455.325 66.5508 452.439 68.7914C449.553 71.032 445.395 70.5109 443.152 67.6276Z" fill="#5D359B"/>
<path d="M487.446 70.8914C483.807 70.5509 481.132 67.3277 481.473 63.692C481.814 60.0564 485.04 57.3851 488.68 57.7256C492.319 58.066 494.993 61.2893 494.653 64.925C494.312 68.5606 491.085 71.2319 487.446 70.8914Z" fill="#5D359B"/>
<path d="M447.891 80.4604C447.652 80.9522 448.04 81.6183 450.755 82.7048C453.457 83.7169 458.611 85.2405 467.791 85.4678C477.078 85.5786 482.21 84.2433 484.969 83.3312C487.715 82.3521 488.157 81.679 487.907 81.193C487.657 80.6553 487.306 80.3675 484.764 80.7578C483.486 80.9418 481.641 81.2634 478.93 81.5767C476.233 81.8975 472.596 82.179 467.905 82.1153C463.074 82.0046 459.582 81.5927 456.855 81.1725C454.149 80.7601 452.325 80.3712 451.054 80.1406C448.521 79.6573 448.167 79.9323 447.891 80.4604Z" fill="#5D359B"/>
<path d="M476.58 87.2283C477.165 87.239 477.354 87.4424 477.54 87.8161C477.775 88.3166 477.891 88.8963 476.654 89.666C475.417 90.3839 472.812 91.3655 467.684 91.3086C462.66 91.1796 460.019 90.1019 458.832 89.3397C457.623 88.5252 457.76 87.9501 458.021 87.4661C458.206 87.0918 458.409 86.903 458.995 86.9138C459.217 86.9178 459.505 86.9527 459.86 87.0185C461.161 87.2126 463.425 87.8539 467.804 87.9637C472.073 88.0122 474.441 87.4557 475.718 87.3088C476.075 87.2561 476.357 87.2316 476.579 87.2357" fill="#9D6DD8"/>
<path d="M722.244 104.688C719.107 81.1461 692.503 85.8889 668.504 64.5865C644.506 43.284 615.286 3.18252 575.632 33.2586C535.979 63.3347 547.283 148.941 609.027 157.944C669.197 166.718 726.418 136.016 722.244 104.688Z" fill="#B289DF"/>
<path d="M622.65 98.8039C620.592 96.1575 621.07 92.3452 623.719 90.2888C626.368 88.2323 630.185 88.7106 632.243 91.3569C634.302 94.0033 633.823 97.8156 631.174 99.872C628.525 101.928 624.709 101.45 622.65 98.8039Z" fill="#5D359B"/>
<path d="M663.304 101.799C659.964 101.487 657.509 98.5286 657.822 95.1917C658.135 91.8549 661.096 89.4032 664.436 89.7157C667.777 90.0282 670.231 92.9865 669.918 96.3234C669.606 99.6602 666.644 102.112 663.304 101.799Z" fill="#5D359B"/>
<path d="M626.999 110.582C626.78 111.033 627.136 111.645 629.629 112.642C632.109 113.571 636.839 114.969 645.264 115.178C653.787 115.279 658.498 114.054 661.03 113.217C663.55 112.318 663.956 111.7 663.726 111.254C663.497 110.761 663.175 110.497 660.842 110.855C659.669 111.024 657.976 111.319 655.488 111.606C653.012 111.901 649.674 112.159 645.368 112.101C640.934 111.999 637.73 111.621 635.227 111.235C632.743 110.857 631.069 110.5 629.903 110.288C627.578 109.845 627.253 110.097 626.999 110.582Z" fill="#5D359B"/>
<path d="M653.331 116.794C653.868 116.803 654.042 116.99 654.212 117.333C654.428 117.792 654.534 118.324 653.399 119.031C652.264 119.69 649.873 120.591 645.166 120.538C640.555 120.42 638.131 119.431 637.042 118.731C635.933 117.984 636.058 117.456 636.297 117.012C636.467 116.668 636.654 116.495 637.191 116.505C637.395 116.509 637.66 116.541 637.985 116.601C639.18 116.779 641.258 117.368 645.277 117.468C649.195 117.513 651.368 117.002 652.54 116.867C652.868 116.819 653.127 116.797 653.331 116.8" fill="#9D6DD8"/>
<path d="M740.869 86.7357C746.649 109.772 772.546 102.05 798.8 120.501C825.054 138.952 858.623 175.49 894.62 141.122C930.616 106.753 909.701 22.9752 847.335 21.0142C786.558 19.1034 733.178 56.0812 740.869 86.7357Z" fill="#B289DF"/>
<path d="M794.763 89.8039C792.704 87.1575 793.183 83.3452 795.832 81.2888C798.481 79.2323 802.297 79.7106 804.355 82.3569C806.414 85.0033 805.936 88.8156 803.287 90.872C800.638 92.9285 796.821 92.4502 794.763 89.8039Z" fill="#5D359B"/>
<path d="M835.416 92.7994C832.076 92.4869 829.622 89.5286 829.934 86.1917C830.247 82.8549 833.208 80.4032 836.549 80.7157C839.889 81.0282 842.343 83.9865 842.031 87.3234C841.718 90.6602 838.757 93.1119 835.416 92.7994Z" fill="#5D359B"/>
<path d="M799.112 101.582C798.893 102.033 799.249 102.645 801.741 103.642C804.221 104.571 808.951 105.969 817.377 106.178C825.9 106.279 830.61 105.054 833.142 104.217C835.663 103.318 836.069 102.7 835.839 102.254C835.61 101.761 835.288 101.497 832.954 101.855C831.781 102.024 830.088 102.319 827.6 102.606C825.125 102.901 821.786 103.159 817.481 103.101C813.047 102.999 809.842 102.621 807.339 102.235C804.856 101.857 803.182 101.5 802.015 101.288C799.69 100.845 799.365 101.097 799.112 101.582Z" fill="#5D359B"/>
<path d="M825.443 107.794C825.98 107.803 826.154 107.99 826.324 108.333C826.541 108.792 826.646 109.324 825.511 110.031C824.376 110.69 821.985 111.591 817.278 111.538C812.668 111.42 810.243 110.431 809.154 109.731C808.045 108.984 808.17 108.456 808.41 108.012C808.579 107.668 808.766 107.495 809.303 107.505C809.508 107.509 809.772 107.541 810.098 107.601C811.292 107.779 813.37 108.368 817.389 108.468C821.307 108.513 823.48 108.002 824.653 107.867C824.98 107.819 825.239 107.797 825.443 107.8" fill="#9D6DD8"/>
<path d="M1016.41 17.6759C1035.54 25.6954 1025.41 47.5018 1037.86 72.9551C1050.3 98.4085 1077.4 132.602 1042.89 159.903C1008.37 187.203 938.754 158.13 945.386 102.998C951.848 49.2705 990.936 7.00409 1016.41 17.6759Z" fill="#B289DF"/>
<path d="M966.663 69.5161C964.604 66.8697 965.083 63.0574 967.732 61.001C970.381 58.9446 974.197 59.4228 976.256 62.0691C978.315 64.7155 977.836 68.5278 975.187 70.5843C972.538 72.6407 968.722 72.1624 966.663 69.5161Z" fill="#5D359B"/>
<path d="M1007.32 72.5116C1003.98 72.1991 1001.52 69.2408 1001.83 65.904C1002.15 62.5671 1005.11 60.1154 1008.45 60.4279C1011.79 60.7404 1014.24 63.6987 1013.93 67.0356C1013.62 70.3724 1010.66 72.8241 1007.32 72.5116Z" fill="#5D359B"/>
<path d="M971.012 81.2941C970.793 81.7454 971.149 82.3569 973.641 83.354C976.121 84.283 980.851 85.6813 989.277 85.8899C997.8 85.9916 1002.51 84.7661 1005.04 83.9289C1007.56 83.0304 1007.97 82.4125 1007.74 81.9665C1007.51 81.473 1007.19 81.2088 1004.85 81.5671C1003.68 81.7359 1001.99 82.0311 999.5 82.3186C997.025 82.6131 993.687 82.8714 989.381 82.813C984.947 82.7114 981.743 82.3333 979.239 81.9477C976.756 81.5692 975.082 81.2123 973.916 81.0006C971.59 80.5571 971.266 80.8094 971.012 81.2941Z" fill="#5D359B"/>
<path d="M997.343 87.5058C997.881 87.5156 998.054 87.7023 998.225 88.0452C998.441 88.5046 998.547 89.0366 997.411 89.7431C996.277 90.402 993.886 91.3029 989.179 91.2507C984.568 91.1323 982.144 90.1432 981.054 89.4436C979.945 88.6961 980.071 88.1682 980.31 87.724C980.48 87.3805 980.667 87.2072 981.204 87.2171C981.408 87.2208 981.673 87.2528 981.998 87.3132C983.192 87.4914 985.27 88.0799 989.289 88.1807C993.207 88.2252 995.38 87.7145 996.553 87.5797C996.88 87.5313 997.139 87.5088 997.343 87.5126" fill="#9D6DD8"/>
<path d="M1185.77 169.865C1165.48 165.517 1171.41 142.215 1154.48 119.496C1137.56 96.7767 1104.61 68.1737 1133.49 34.9712C1162.37 1.76877 1236.16 17.4905 1239.82 72.8994C1243.39 126.897 1212.77 175.652 1185.77 169.865Z" fill="#B289DF"/>
<path d="M1171.51 55.5626C1170.3 52.259 1172 48.6042 1175.3 47.3994C1178.61 46.1946 1182.27 47.896 1183.48 51.1996C1184.68 54.5033 1182.98 58.1581 1179.68 59.3629C1176.37 60.5677 1172.71 58.8662 1171.51 55.5626Z" fill="#5D359B"/>
<path d="M1211.15 71.5906C1207.92 70.2074 1206.41 66.4652 1207.8 63.2322C1209.18 59.9992 1212.92 58.4997 1216.16 59.883C1219.4 61.2662 1220.9 65.0084 1219.52 68.2414C1218.14 71.4744 1214.39 72.9739 1211.15 71.5906Z" fill="#5D359B"/>
<path d="M1172.07 68.7225C1171.71 69.1031 1171.87 69.8281 1174.04 71.6233C1176.22 73.3465 1180.49 76.26 1188.84 79.1702C1197.33 82.0047 1202.42 82.2909 1205.22 82.2667C1208.03 82.1772 1208.63 81.6902 1208.54 81.1709C1208.47 80.6044 1208.24 80.2374 1205.79 79.8471C1204.57 79.6395 1202.78 79.3917 1200.2 78.8808C1197.63 78.3814 1194.22 77.5689 1189.93 76.1299C1185.54 74.6067 1182.46 73.2015 1180.08 72.0135C1177.72 70.8391 1176.16 69.9459 1175.07 69.3605C1172.89 68.1717 1172.48 68.3197 1172.07 68.7225Z" fill="#5D359B"/>
<path d="M1196.38 83.3708C1196.92 83.5529 1197.03 83.795 1197.09 84.1923C1197.16 84.7204 1197.1 85.2859 1195.73 85.6274C1194.39 85.9218 1191.71 86.0551 1187.03 84.4936C1182.46 82.8969 1180.35 81.1315 1179.49 80.0833C1178.62 78.981 1178.92 78.4939 1179.3 78.127C1179.58 77.8382 1179.82 77.725 1180.35 77.9071C1180.56 77.9763 1180.81 78.0932 1181.12 78.2578C1182.25 78.8187 1184.14 80.073 1188.12 81.4623C1192.02 82.7632 1194.36 82.9497 1195.57 83.1911C1195.91 83.2477 1196.18 83.3084 1196.38 83.3775" fill="#9D6DD8"/>
<path d="M1365.89 169.94C1385.3 162.614 1375.96 140.457 1389.32 115.468C1402.67 90.4794 1430.98 57.2836 1397.47 28.7583C1363.97 0.232985 1293.34 26.7814 1297.99 82.1167C1302.51 136.042 1340.05 179.688 1365.89 169.94Z" fill="#B289DF"/>
<path d="M1337.66 49.7475C1335.55 46.9289 1336.13 42.9399 1338.95 40.838C1341.77 38.736 1345.77 39.317 1347.87 42.1356C1349.98 44.9542 1349.4 48.9432 1346.57 51.0451C1343.75 53.1471 1339.76 52.5661 1337.66 49.7475Z" fill="#5D359B"/>
<path d="M1380.23 53.7348C1376.74 53.3376 1374.22 50.1834 1374.62 46.6899C1375.02 43.1963 1378.18 40.6862 1381.67 41.0834C1385.17 41.4806 1387.68 44.6347 1387.29 48.1283C1386.89 51.6219 1383.73 54.132 1380.23 53.7348Z" fill="#5D359B"/>
<path d="M1341.97 62.1922C1341.73 62.6611 1342.09 63.3098 1344.69 64.4075C1347.27 65.4335 1352.2 66.9986 1361.04 67.3926C1369.97 67.6764 1374.94 66.4889 1377.61 65.6634C1380.28 64.7733 1380.71 64.1336 1380.48 63.6611C1380.25 63.1386 1379.92 62.8548 1377.47 63.1821C1376.23 63.3348 1374.45 63.6093 1371.83 63.8591C1369.23 64.1166 1365.72 64.3181 1361.21 64.1673C1356.56 63.9686 1353.21 63.5053 1350.59 63.0488C1347.99 62.6001 1346.24 62.191 1345.02 61.9447C1342.59 61.4311 1342.25 61.689 1341.97 62.1922Z" fill="#5D359B"/>
<path d="M1369.46 69.2552C1370.03 69.2767 1370.2 69.4761 1370.38 69.8394C1370.59 70.3257 1370.69 70.886 1369.49 71.6034C1368.28 72.2709 1365.76 73.1662 1360.82 73.0136C1355.99 72.7936 1353.46 71.7057 1352.34 70.9492C1351.19 70.142 1351.33 69.591 1351.59 69.13C1351.78 68.7732 1351.98 68.5954 1352.54 68.6169C1352.75 68.625 1353.03 68.6641 1353.37 68.7342C1354.62 68.9459 1356.79 69.6065 1361 69.7957C1365.11 69.9239 1367.4 69.4334 1368.63 69.3163C1368.98 69.2724 1369.25 69.2542 1369.46 69.2624" fill="#9D6DD8"/>
<path d="M1537.32 17.3908C1517.84 24.5235 1526.96 46.7719 1513.36 71.6275C1499.76 96.4831 1471.12 129.397 1504.34 158.253C1537.57 187.108 1608.45 161.26 1604.35 105.882C1600.36 51.9144 1563.26 7.8989 1537.32 17.3908Z" fill="#B289DF"/>
<path d="M1526.09 75.1659C1523.84 72.681 1524.03 68.8442 1526.52 66.5961C1529 64.348 1532.85 64.5399 1535.1 67.0247C1537.35 69.5096 1537.15 73.3464 1534.67 75.5945C1532.18 77.8427 1528.34 77.6507 1526.09 75.1659Z" fill="#5D359B"/>
<path d="M1566.84 75.1177C1563.49 75.0555 1560.82 72.2891 1560.89 68.9388C1560.95 65.5884 1563.72 62.9229 1567.07 62.9851C1570.42 63.0473 1573.09 65.8137 1573.03 69.164C1572.97 72.5143 1570.2 75.1799 1566.84 75.1177Z" fill="#5D359B"/>
<path d="M1531.3 86.5844C1531.12 87.0508 1531.52 87.6338 1534.08 88.442C1536.62 89.1831 1541.44 90.2242 1549.86 89.8032C1558.36 89.2683 1562.97 87.6948 1565.43 86.671C1567.88 85.587 1568.23 84.9406 1567.97 84.5131C1567.71 84.0382 1567.37 83.7988 1565.07 84.3302C1563.91 84.5861 1562.24 85.0068 1559.78 85.4792C1557.34 85.9577 1554.03 86.4644 1549.73 86.7276C1545.3 86.9573 1542.08 86.8195 1539.55 86.6219C1537.05 86.4299 1535.35 86.199 1534.18 86.0751C1531.82 85.8064 1531.52 86.0822 1531.3 86.5844Z" fill="#5D359B"/>
<path d="M1558.02 90.8121C1558.56 90.7818 1558.74 90.955 1558.94 91.2842C1559.19 91.726 1559.33 92.2486 1558.25 93.0377C1557.17 93.7794 1554.86 94.8561 1550.16 95.1555C1545.55 95.3816 1543.06 94.5764 1541.92 93.9602C1540.76 93.2977 1540.85 92.7621 1541.05 92.3013C1541.2 91.9461 1541.37 91.7594 1541.91 91.7291C1542.11 91.7176 1542.38 91.7298 1542.71 91.7656C1543.91 91.8541 1546.03 92.2859 1550.04 92.0863C1553.95 91.8382 1556.08 91.1668 1557.24 90.9448C1557.56 90.8721 1557.82 90.8304 1558.02 90.8189" fill="#9D6DD8"/>
<path d="M1792.06 126.223C1795.1 105.696 1771.2 103.079 1755.86 79.2579C1740.52 55.4371 1725.29 14.5513 1684.07 29.9503C1642.85 45.3494 1631.69 119.967 1682.29 142.828C1731.61 165.107 1788.01 153.539 1792.06 126.223Z" fill="#B289DF"/>
<path d="M1690.32 71.1497C1687.69 69.0698 1687.25 65.2538 1689.33 62.6263C1691.41 59.9988 1695.23 59.555 1697.86 61.6349C1700.49 63.7148 1700.93 67.5309 1698.85 70.1583C1696.77 72.7858 1692.95 73.2296 1690.32 71.1497Z" fill="#5D359B"/>
<path d="M1730.51 64.3831C1727.19 64.8747 1724.1 62.586 1723.61 59.2712C1723.12 55.9563 1725.41 52.8707 1728.73 52.3791C1732.05 51.8876 1735.14 54.1763 1735.63 57.4911C1736.12 60.8059 1733.83 63.8916 1730.51 64.3831Z" fill="#5D359B"/>
<path d="M1697.34 81.5523C1697.24 82.0427 1697.73 82.5517 1700.39 82.9269C1703.02 83.2387 1707.94 83.4709 1716.17 81.6681C1724.48 79.7384 1728.76 77.4273 1731.02 76.0115C1733.25 74.5391 1733.5 73.8425 1733.17 73.4642C1732.83 73.0394 1732.45 72.8595 1730.27 73.7627C1729.17 74.2059 1727.6 74.8955 1725.25 75.7669C1722.92 76.642 1719.74 77.6874 1715.54 78.6554C1711.21 79.6121 1708.01 80.0075 1705.49 80.2289C1702.99 80.4523 1701.28 80.5041 1700.09 80.5762C1697.73 80.6989 1697.47 81.0212 1697.34 81.5523Z" fill="#5D359B"/>
<path d="M1724.39 81.3176C1724.92 81.1993 1725.13 81.3393 1725.38 81.6317C1725.69 82.0263 1725.92 82.5178 1724.99 83.4741C1724.04 84.384 1721.94 85.8279 1717.35 86.8975C1712.85 87.8799 1710.26 87.4964 1709.03 87.0763C1707.78 86.6143 1707.78 86.0719 1707.9 85.5835C1707.99 85.2096 1708.13 84.9968 1708.65 84.8785C1708.85 84.8336 1709.11 84.8017 1709.44 84.7828C1710.65 84.6716 1712.8 84.7486 1716.73 83.8899C1720.55 83.0007 1722.53 81.9876 1723.64 81.5775C1723.95 81.4526 1724.19 81.3692 1724.39 81.3242" fill="#9D6DD8"/>
<path d="M1830.65 115.115C1830.82 94.3642 1854.84 95.4816 1873.68 74.325C1892.53 53.1684 1913.91 15.1361 1952.25 36.7362C1990.59 58.3362 1990.05 133.781 1936.51 148.526C1884.34 162.895 1830.42 142.728 1830.65 115.115Z" fill="#B289DF"/>
<path d="M1900.4 69.9328C1898.27 67.3467 1898.64 63.5229 1901.23 61.3921C1903.81 59.2613 1907.64 59.6304 1909.77 62.2165C1911.91 64.8027 1911.54 68.6265 1908.95 70.7573C1906.36 72.8881 1902.53 72.519 1900.4 69.9328Z" fill="#5D359B"/>
<path d="M1941.12 71.7673C1937.77 71.5502 1935.23 68.6636 1935.45 65.3197C1935.67 61.9759 1938.55 59.4411 1941.9 59.6581C1945.25 59.8752 1947.79 62.7619 1947.57 66.1057C1947.35 69.4496 1944.46 71.9843 1941.12 71.7673Z" fill="#5D359B"/>
<path d="M1905.08 81.5801C1904.88 82.0375 1905.25 82.6384 1907.77 83.5639C1910.27 84.4216 1915.04 85.6842 1923.47 85.6524C1931.99 85.511 1936.66 84.1519 1939.17 83.243C1941.66 82.273 1942.05 81.6439 1941.81 81.2048C1941.56 80.718 1941.24 80.4632 1938.91 80.8878C1937.75 81.09 1936.06 81.4333 1933.58 81.7916C1931.12 82.1566 1927.79 82.5099 1923.48 82.5743C1919.05 82.5992 1915.84 82.3127 1913.32 81.9987C1910.83 81.6912 1909.15 81.3823 1907.98 81.204C1905.64 80.827 1905.32 81.0885 1905.08 81.5801Z" fill="#5D359B"/>
<path d="M1931.57 87.0373C1932.11 87.0319 1932.29 87.2135 1932.47 87.5514C1932.7 88.0043 1932.82 88.533 1931.71 89.2714C1930.59 89.9623 1928.23 90.9309 1923.52 91.013C1918.91 91.0261 1916.46 90.1067 1915.35 89.4386C1914.22 88.7231 1914.33 88.192 1914.56 87.7413C1914.72 87.3931 1914.9 87.2146 1915.44 87.2091C1915.64 87.207 1915.91 87.2315 1916.23 87.2825C1917.43 87.4265 1919.52 87.9555 1923.54 87.9416C1927.46 87.8744 1929.62 87.3019 1930.79 87.1337C1931.11 87.076 1931.37 87.0462 1931.58 87.0441" fill="#9D6DD8"/>
<path d="M2030.86 39.8652C2021.12 58.1857 2042.76 68.6601 2049.23 96.2431C2055.7 123.826 2056.36 167.452 2100.35 166.753C2144.35 166.055 2179.87 99.4888 2139.85 60.9939C2100.84 23.4801 2043.83 15.4854 2030.86 39.8652Z" fill="#B289DF"/>
<path d="M2067.4 69.9328C2065.27 67.3467 2065.64 63.5229 2068.23 61.3921C2070.81 59.2613 2074.64 59.6304 2076.77 62.2165C2078.91 64.8027 2078.54 68.6265 2075.95 70.7573C2073.36 72.8881 2069.53 72.519 2067.4 69.9328Z" fill="#5D359B"/>
<path d="M2108.12 71.7673C2104.77 71.5502 2102.23 68.6636 2102.45 65.3197C2102.67 61.9759 2105.55 59.4411 2108.9 59.6581C2112.25 59.8752 2114.79 62.7619 2114.57 66.1057C2114.35 69.4496 2111.46 71.9843 2108.12 71.7673Z" fill="#5D359B"/>
<path d="M2072.08 81.5801C2071.88 82.0375 2072.25 82.6384 2074.77 83.5639C2077.27 84.4216 2082.04 85.6842 2090.47 85.6524C2098.99 85.511 2103.66 84.1519 2106.17 83.243C2108.66 82.273 2109.05 81.6439 2108.81 81.2048C2108.56 80.718 2108.24 80.4632 2105.91 80.8878C2104.75 81.09 2103.06 81.4333 2100.58 81.7916C2098.12 82.1566 2094.79 82.5099 2090.48 82.5743C2086.05 82.5992 2082.84 82.3127 2080.32 81.9987C2077.83 81.6912 2076.15 81.3823 2074.98 81.204C2072.64 80.827 2072.32 81.0885 2072.08 81.5801Z" fill="#5D359B"/>
<path d="M2098.57 87.0373C2099.11 87.0319 2099.29 87.2135 2099.47 87.5514C2099.7 88.0043 2099.82 88.533 2098.71 89.2714C2097.59 89.9623 2095.23 90.9309 2090.52 91.013C2085.91 91.0261 2083.46 90.1067 2082.35 89.4386C2081.22 88.7231 2081.33 88.192 2081.56 87.7413C2081.72 87.3931 2081.9 87.2146 2082.44 87.2091C2082.64 87.207 2082.91 87.2315 2083.23 87.2825C2084.43 87.4265 2086.52 87.9555 2090.54 87.9416C2094.46 87.8744 2096.62 87.3019 2097.79 87.1337C2098.11 87.076 2098.37 87.0462 2098.58 87.0441" fill="#9D6DD8"/>
</svg>
