<?xml version="1.0" encoding="UTF-8"?>
<svg id="Mug" xmlns="http://www.w3.org/2000/svg" viewBox="0 0 1080 1080">
  <defs>
    <style>
      .cls-1 {
        fill: #5d359b;
      }

      .cls-2 {
        fill: #ff9cc1;
      }
    </style>
  </defs>
  <path class="cls-2" d="M531.0101,474.1429h51.2767c13.9047,0,25.1767,11.4747,25.1767,25.6295v80.4554c0,14.1547-11.2721,25.6294-25.1767,25.6294h-51.2767c-13.9047,0-25.1767-11.4747-25.1767-25.6294v-28.8175c-2.1352.5076-4.3735.7778-6.6794.7778-14.6765,0-26.6174-10.9426-26.6174-24.3917s11.9409-24.3914,26.6174-24.3914c2.3059,0,4.5442.27,6.6794.7775v-4.4101c0-14.1548,11.2721-25.6295,25.1767-25.6295ZM499.1539,539.2693c2.4539,0,4.7457-.6524,6.6794-1.7776v-19.354c-1.9337-1.1252-4.2255-1.7776-6.6794-1.7776-6.889,0-12.5,5.1418-12.5,11.4545s5.611,11.4547,12.5,11.4547Z"/>
  <ellipse class="cls-1" cx="557.1847" cy="483.4752" rx="35.7446" ry="4.6004"/>
</svg>