<?xml version="1.0" encoding="UTF-8"?>
<svg id="Artwork" xmlns="http://www.w3.org/2000/svg" viewBox="0 0 1080 1080">
  <defs>
    <clipPath id="romiWindowClip">
      <circle cx="540" cy="540" r="422.5394"/>
    </clipPath>
  </defs>
  <!-- window -->
  <circle fill="#fff7ee" cx="540" cy="540" r="422.5394"/>
  <g clip-path="url(#romiWindowClip)">
    <!-- body -->
    <path fill="#bf96ff" d="M991.1805,792.5657c-71.2808,217.1672-455.8468,444.8236-631.8019,225.9799-50.3418-77.3467-9.4548-168.0975,8.93-251.412,18.2287-75.5267,18.2196-152.5544,18.6799-229.8229-9.9407-645.7774,751.4217-164.5529,604.192,255.255Z"/>
    <!-- tired expression (Romi_Character_Expressions-44), placed onto the body -->
    <g transform="translate(58,66)" fill="#5d359b">
      <path d="M644.7825,489.0604c2.2334,3.8786,3.5568,8.3154,3.5568,13.105,0,14.4861-11.7638,26.2396-26.2655,26.2396s-26.2691-11.7535-26.2691-26.2396c0-4.7896,1.3233-9.256,3.5606-13.105h45.4465-.0292Z"/>
      <path d="M487.2148,489.0604c2.2337,3.8786,3.5606,8.3154,3.5606,13.105,0,14.4861-11.7674,26.2396-26.2691,26.2396s-26.2655-11.7535-26.2655-26.2396c0-4.7896,1.3233-9.256,3.5568-13.105h45.4465-.0292Z"/>
      <path d="M418.526,487.5631c0-4.4957,4.6498-5.1716,42.6792-5.1716s42.6827.6467,42.6827,5.1716-1.7948,8.1688-42.6827,8.1688-42.6792-3.6435-42.6792-8.1688Z"/>
      <path d="M576.1009,487.5631c0-4.4957,4.6463-5.1716,42.6792-5.1716s42.6939.6467,42.6939,5.1716-1.7912,8.1688-42.6939,8.1688-42.6792-3.6435-42.6792-8.1688Z"/>
      <path d="M621.3975,575.6658c-.9688,2.1159-3.0889,2.1159-13.5294-.3231-10.4697-2.1744-29.4131-7.2282-64.7117-7.4633-34.8853.2643-54.1212,5.2889-64.503,7.4633-10.4735,2.4975-12.4731,2.439-13.5588.3528-.9724-1.9101-1.1477-4.5841,8.6749-9.3441,4.9131-2.3213,12.3852-5.0246,23.5896-7.3752,11.2372-2.3802,26.0899-4.3195,45.9764-4.4076,19.3528.0881,34.6772,2.0274,45.7683,4.4076,11.2044,2.3505,18.6765,5.0831,23.5896,7.3752,9.8227,4.76,9.6471,7.434,8.6455,9.3441l.0585-.0296Z"/>
      <path fill="rgba(93,53,155,.4)" d="M543.387,580.7715c-20.3838.147-30.6195,4.2314-35.4704,7.1697-4.8547,3.1442-4.354,5.4359-3.3852,7.4048.764,1.4692,1.5317,2.2624,3.8531,2.2624.8847,0,2.0032-.1177,3.4142-.3528,5.0595-.6756,14.4105-3.0557,31.3542-3.1734,17.3532.1177,26.4155,2.4979,31.5916,3.1734,1.4405.2351,2.559.3528,3.4401.3528,2.3249,0,3.1181-.764,3.8236-2.2624,1.0018-1.9393,1.5025-4.2314-3.3522-7.3756-4.7667-2.9384-15.3241-7.0224-35.2691-7.1694"/>
    </g>
  </g>
</svg>
