<?xml version="1.0" encoding="UTF-8"?>
<svg id="Artwork" xmlns="http://www.w3.org/2000/svg" xmlns:xlink="http://www.w3.org/1999/xlink" viewBox="0 0 1080 1080">
  <defs>
    <style>
      .cls-1 {
        fill: none;
      }

      .cls-2 {
        fill: #ffbc69;
      }

      .cls-3 {
        fill: #bf96ff;
      }

      .cls-4 {
        isolation: isolate;
        opacity: .4;
      }

      .cls-4, .cls-5 {
        fill: #5d359b;
      }

      .cls-6 {
        clip-path: url(#clippath);
      }
    </style>
    <clipPath id="clippath">
      <circle class="cls-1" cx="540" cy="540" r="422.5394"/>
    </clipPath>
  </defs>
  <circle class="cls-2" cx="540" cy="540" r="422.5394"/>
  <g class="cls-6">
    <g>
      <path class="cls-3" d="M991.1805,792.5657c-71.2808,217.1672-455.8468,444.8236-631.8019,225.9799-50.3418-77.3467-9.4548-168.0975,8.93-251.412,18.2287-75.5267,18.2196-152.5544,18.6799-229.8229-9.9407-645.7774,751.4217-164.5529,604.192,255.255Z"/>
      <g>
        <path class="cls-5" d="M745.341,570.9972c0-19.61-16.7325-35.5111-37.3622-35.5111s-37.3628,15.9011-37.3628,35.4938,16.7331,35.4996,37.3628,35.4996,37.3622-15.9011,37.3622-35.4996v.0173Z"/>
        <path class="cls-5" d="M489.4063,606.4795c19.5979,0,35.4943-15.9011,35.4943-35.4996s-15.8964-35.4938-35.4943-35.4938-35.4943,15.9011-35.4943,35.4938,15.8958,35.4996,35.4943,35.4996Z"/>
        <path class="cls-5" d="M707.5842,631.8527c1.2643,2.4766-.9409,5.7691-15.9606,10.9537-14.9428,4.8086-43.3795,11.9489-93.8062,12.244-50.9972-.2951-79.0329-7.4354-94.0989-12.244-14.9741-5.1383-17.3332-8.5464-15.9143-10.9537,1.4182-2.6617,3.3769-4.0677,17.3019-1.8863,7.0015,1.0415,17.0867,2.818,31.9525,4.6349,14.7733,1.8402,34.7126,3.5875,60.4812,3.6976,26.5399-.11,45.7392-1.84,60.7589-3.6976,14.8971-1.8169,24.9515-3.5934,31.9525-4.6349,13.9562-2.1814,15.868-.7754,17.3331,1.8863Z"/>
        <path class="cls-4" d="M548.0121,666.5769c-3.3063,0-4.3872.8738-5.4837,2.5114-1.383,2.1814-2.0987,4.7216,4.816,8.2166,6.8991,3.252,21.5075,7.7944,50.4696,7.9505,28.3741-.1561,43.3956-4.6984,50.1831-7.9505,6.8991-3.4834,6.1995-6.0352,4.7686-8.182-1.001-1.6606-2.13-2.5112-5.4363-2.5112-1.2557,0-2.8926.1331-4.8959.3876-7.3597.7523-20.2194,3.3852-44.9534,3.5181-24.0981-.133-37.4189-2.7659-44.6195-3.5181-2.0032-.2545-3.5928-.3876-4.8484-.3876"/>
      </g>
    </g>
  </g>
</svg>