<?xml version="1.0" encoding="UTF-8"?>
<svg id="Layer_2" data-name="Layer 2" xmlns="http://www.w3.org/2000/svg" xmlns:xlink="http://www.w3.org/1999/xlink" viewBox="0 0 782.0954 184.8107">
  <defs>
    <style>
      .cls-1 {
        fill: #c29bff;
      }

      .cls-2 {
        fill: url(#radial-gradient-2);
      }

      .cls-3 {
        fill: url(#radial-gradient);
      }
    </style>
    <radialGradient id="radial-gradient" cx="1133.5664" cy="1284.4642" fx="1133.5664" fy="1284.4642" r="1.2396" gradientTransform="translate(122189.2483 -13453.5515) rotate(122.2492) scale(62.1659 74.3729) skewX(4.1583)" gradientUnits="userSpaceOnUse">
      <stop offset="0" stop-color="#c29bff" stop-opacity=".3"/>
      <stop offset="1" stop-color="#c29bff"/>
    </radialGradient>
    <radialGradient id="radial-gradient-2" cx="1114.6495" cy="1284.2781" fx="1114.6495" fy="1284.2781" r=".9011" gradientTransform="translate(-120755.6856 -5455.483) rotate(-49.1921) scale(62.1659 74.3729) skewX(4.1583)" gradientUnits="userSpaceOnUse">
      <stop offset="0" stop-color="#75e5d4" stop-opacity=".3"/>
      <stop offset="1" stop-color="#75e5d4"/>
    </radialGradient>
  </defs>
  <g id="Artwork">
    <g>
      <path class="cls-3" d="M602.2539,113.0393c12.3918,15.3146,33.5484,13.0255,51.7129,14.8144,16.5547,1.29,32.207,6.4165,47.9534,11.4258C832.5292,184.0181,785.2677-2.018,690.1491.0166c-48.866.0811-120.6818,62.9-87.8951,113.0227Z"/>
      <path class="cls-2" d="M689.986,110.7567c-7.2509-12.3494-22.7068-12.9927-35.5708-16.2438-11.7607-2.7182-22.4576-8.0968-33.2349-13.4012-89.0473-46.29-75.2,92.5538-6.6045,101.3817,35.1358,5.2283,93.5561-32.1593,75.4102-71.7366Z"/>
    </g>
    <g>
      <path class="cls-1" d="M.2184,174.338c0-4.7998,5.2361-6.1091,16.5818-6.7632,2.6175-1.0909,3.2716-8.2909,3.2716-23.5634v-79.6336c0-11.9998-.6541-22.2541-3.2716-23.1266-11.7814-.6546-16.8002-2.1818-16.8002-6.9816,0-6.1091,10.2548-7.6362,26.6171-7.6362h14.6184c6.9811,0,20.9443-.8725,32.29-.8725,38.617,0,54.3252,19.6355,54.3252,41.8896,0,20.0718-13.0907,34.6896-31.6348,41.0166,14.3989,5.0182,20.9443,19.1998,27.9264,35.5627,5.6718,13.3086,8.9445,20.2902,16.145,21.3811,5.8902,1.0909,8.7261-1.5271,11.563-1.3088,2.1818.4363,3.0543,1.9634,3.0543,4.1452,0,5.4545-9.5996,14.3995-23.9996,14.3995-22.472,0-28.3621-18.9814-34.4718-37.5261-5.2361-16.145-10.6905-29.672-25.3079-29.672h-25.0905v28.3627c0,12.4361.8736,22.6904,3.4911,23.5634,13.5264.4363,18.9809,1.9634,18.9809,6.7632,0,6.1091-12.2171,8.2909-35.5616,8.2909-20.9454,0-32.7268-2.1818-32.7268-8.2909ZM65.8893,101.9039c24.6538,0,34.9075-11.5636,34.9075-30.1082,0-13.9632-6.327-31.4175-32.7257-31.4175-7.1995,0-14.4.6546-19.6361,1.9639-1.9634,1.7455-2.4002,9.8175-2.4002,21.8173v36.6536c6.7637.6546,13.0907,1.0909,19.8545,1.0909Z"/>
      <path class="cls-1" d="M155.0149,127.8669c0-34.0355,25.3079-57.8168,60.2164-57.8168,33.3798,0,56.507,23.7813,56.507,56.9438,0,34.6902-25.963,57.8168-60.2164,57.8168-33.5993,0-56.507-23.7813-56.507-56.9438ZM218.5029,172.5925c16.5818,0,29.2357-13.7448,29.2357-35.7805,0-26.3993-16.3634-54.5441-39.4895-54.5441-16.3634,0-29.0173,13.3091-29.0173,35.7811,0,26.1809,15.7082,54.5436,39.2711,54.5436Z"/>
      <path class="cls-1" d="M273.5664,174.5564c0-4.3636,4.582-5.6729,12.8723-6.1091,2.4002-1.0909,2.8359-7.6362,2.8359-22.9082v-30.3266c0-9.818-.4357-22.472-3.2727-23.9991-11.1263-.6546-13.9632-3.0548-13.9632-6.1091,0-2.1818,1.0909-3.9273,4.3636-5.6723,8.073-3.9273,23.5629-7.4179,29.4541-7.4179,6.5454,0,7.6362,3.9268,7.6362,11.9993v13.0907c6.9811-17.018,21.5995-26.6177,39.0538-26.6177,15.4898,0,28.7989,7.8546,32.9441,27.7086,7.1995-17.6721,22.2536-27.7086,40.5804-27.7086,18.9809,0,34.035,11.5636,34.035,41.2355v33.8171c0,15.0541,0,21.3811,2.6186,22.9082,8.7271.6546,12.8723,1.7455,12.8723,6.1091,0,6.1086-10.6905,8.0725-27.2723,8.0725-18.5441,0-28.7989-2.1818-28.7989-8.0725,0-4.3636,4.3636-5.6729,13.7448-6.1091,2.4002-1.0909,2.837-10.6905,2.837-22.9082v-24.6538c0-21.5995-5.0187-33.163-21.1637-33.163-12.6539,0-26.1804,9.1634-28.1438,34.0355v23.7813c0,13.9632.2173,21.8173,2.8359,22.9082,9.5996.6546,13.9632,1.7455,13.9632,6.1091,0,6.1086-10.9089,8.0725-28.7989,8.0725-18.5452,0-28.5816-2.1818-28.5816-8.0725,0-4.3636,4.1462-5.6729,13.7459-6.1091,2.3991-1.0909,2.8359-10.2543,2.8359-22.9082v-24.6538c0-20.727-4.582-33.163-21.3811-33.163-13.5275,0-28.1448,10.6905-28.1448,39.9263v17.8905c0,14.6173.2184,21.8173,2.6186,22.9082,9.818.6546,13.9632,1.7455,13.9632,6.1091,0,6.1086-10.9089,8.0725-28.5816,8.0725s-27.708-2.1818-27.708-8.0725Z"/>
      <path class="cls-1" d="M478.3663,174.5564c0-4.3636,4.3636-5.6729,12.6539-6.1091,2.6186-1.0909,2.837-8.2909,2.837-22.9082v-30.5445c0-10.0364-.4368-22.4725-3.0554-23.7813-11.1263-.6546-13.9632-3.0548-13.9632-6.1091,0-2.3996,1.0909-4.1452,4.3636-5.6723,7.6362-4.1457,23.3455-7.6362,29.4541-7.6362,6.5454,0,7.6362,4.1452,7.6362,11.9998,0,7.4179-.4368,19.6355-.4368,35.3443v26.3993c0,14.6173.2184,21.8173,2.6186,22.9082,8.5088.6546,12.8723,1.7455,12.8723,6.1091,0,6.1086-10.6905,8.0725-27.4907,8.0725-17.4532,0-27.4896-2.1818-27.4896-8.0725ZM505.2018,25.9787c9.5996,0,15.0541,5.2366,15.0541,13.0907,0,9.818-8.7271,13.9632-17.0175,13.9632-9.1639,0-14.8357-5.2361-14.8357-13.3086,0-9.5996,8.7261-13.7454,16.7991-13.7454Z"/>
    </g>
  </g>
</svg>