<?xml version="1.0" encoding="UTF-8"?>
<svg id="Notepad" xmlns="http://www.w3.org/2000/svg" viewBox="0 0 1080 1080">
  <defs>
    <style>
      .cls-1 {
        fill: #5d359b;
      }

      .cls-2 {
        fill: #fff;
      }

      .cls-3 {
        fill: #a1ff9c;
      }
    </style>
  </defs>
  <path class="cls-2" d="M585.822,609.984l-1.29-.23c1.16-1.48,1.78-3.4102,1.52-5.48l-13.22-104.9102c-.82-6.47-5.88-11.5798-12.33-12.4399l-64.99-8.75c1.53-1.9299,4.02-3.0701,6.73-2.71v.01l66.61,8.96c6.45.8601,11.51,5.97,12.33,12.4399l13.22,104.9102c.61,4.9299-3.7,9.0598-8.58,8.2Z"/>
  <path class="cls-3" d="M584.532,609.7541c-1.59,2.04-4.23,3.22-7.06,2.72l-65.81-11.5c-6.13-1.0701-10.88-5.99-11.74-12.1799l-14.31-102.5c-.67-4.8401,3.45-8.9902,8.28-8.3401l1.62.22,64.99,8.75c6.45.8601,11.51,5.97,12.33,12.4399l13.22,104.9102c.26,2.0698-.36,4-1.52,5.48Z"/>
  <path class="cls-1" d="M501.3547,492.229c-4.6911,0-8.5275-4.2331-9.3442-10.283-.7597-5.6409,1.4624-12.1475,8.1192-13.9739,3.5705-.9798,6.6378-.6754,9.0973.9132,3.7701,2.4257,4.5393,6.9441,4.5772,7.1344.1804,1.1035-.5699,2.1403-1.6618,2.321-1.1015.1807-2.1366-.5707-2.3171-1.6647,0-.019-.5413-2.9774-2.8014-4.4043-1.4624-.9227-3.4186-1.0559-5.8307-.3995-4.6056,1.2652-5.6692,5.9358-5.1849,9.541.4558,3.3769,2.431,6.7919,5.3463,6.7919,1.1111,0,2.0132.9037,2.0132,2.0166s-.9021,2.0166-2.0132,2.0166v-.0095Z"/>
  <path class="cls-1" d="M522.9775,494.5605c-4.6912,0-8.5276-4.2331-9.3443-10.283-.7596-5.6409,1.4625-12.1475,8.1192-13.9739,3.5707-.9798,6.638-.6754,9.0975.9132,3.77,2.4257,4.5391,6.9441,4.577,7.1344.1806,1.1034-.5696,2.1403-1.6618,2.3211-1.092.1807-2.1367-.5708-2.3171-1.6647,0-.019-.5413-2.9774-2.8013-4.4043-1.4625-.9227-3.4186-1.0559-5.8307-.3995-4.6056,1.2652-5.6693,5.9358-5.185,9.541.4559,3.3769,2.431,6.7919,5.3464,6.7919,1.1109,0,2.0132.9037,2.0132,2.0166s-.9023,2.0167-2.0132,2.0167v-.0096Z"/>
  <path class="cls-1" d="M546.2109,496.7703c-4.6912,0-8.5279-4.2332-9.3445-10.2831-.7596-5.6409,1.4625-12.1475,8.1194-13.9739,3.5704-.9798,6.6377-.6754,9.0972.9132,3.77,2.4257,4.5391,6.9441,4.5773,7.1344.1804,1.1035-.5699,2.1403-1.6618,2.3211-1.0922.1807-2.1367-.5707-2.3173-1.6647,0-.019-.5411-2.9774-2.8013-4.4043-1.4623-.9227-3.4186-1.0559-5.8307-.3995-4.6056,1.2652-5.669,5.9358-5.1848,9.541.4557,3.3769,2.431,6.7919,5.3464,6.7919,1.1109,0,2.0132.9037,2.0132,2.0167s-.9023,2.0166-2.0132,2.0166v-.0093Z"/>
</svg>