<?xml version="1.0" encoding="UTF-8"?>
<svg id="Book" xmlns="http://www.w3.org/2000/svg" version="1.1" viewBox="0 0 1080 1080">
  <!-- Generator: Adobe Illustrator 30.3.0, SVG Export Plug-In . SVG Version: 2.1.3 Build 182)  -->
  <defs>
    <style>
      .st0 {
        fill: #ff7b7b;
      }

      .st1 {
        fill: #fff;
      }

      .st2 {
        fill: #75e5d4;
      }
    </style>
  </defs>
  <path class="st1" d="M609.3,467.9l-12.6,18.2c-2.9,1.3-5.8,1.4-6,1.4h0l-88.5,1.9,5-6.2,60.1-2.1s12.1-17.9,34.5-19.8v9.7l4.8-4.6,2.8,1.6Z"/>
  <path class="st2" d="M567.7,610.6c-.1.3-.4.7-.7,1.1l.7-1.1Z"/>
  <path class="st0" d="M611.7,468.5l-29.4,118.1c-.4,1.5-1,2.9-1.8,4.2l-12.8,19.8s0,0,0,0l-.7,1.1c-1.2,1.4-3.6,2.9-8.6,1.9h0s-84.1,5.1-84.1,5.1c-3.8.2-6.7-3.3-5.8-6.9l28.7-118.5c.6-2.3,2.6-3.9,4.9-3.9h0l88.5-1.9h0c.2,0,3.2,0,6-1.4l12.6-18.2.3-.4c.8-1.1,2.5-.3,2.1,1Z"/>
</svg>