<?xml version="1.0" encoding="UTF-8"?>
<svg id="Expressions" xmlns="http://www.w3.org/2000/svg" viewBox="0 0 1080 1080">
  <defs>
    <style>
      .cls-1 {
        fill: #ff7b7b;
      }

      .cls-2 {
        fill: #5d359b;
      }

      .cls-3 {
        fill: #fff;
      }
    </style>
  </defs>
  <path class="cls-3" d="M461.961,528.6132h155.3059c8.2065,0,14.3541,7.434,12.9716,15.5144-.6174,3.6435-1.4706,7.2282-2.5001,10.7252h-176.2485c-1.059-3.497-1.8826-7.0817-2.5004-10.7252-1.3822-8.0804,4.7651-15.5144,12.9716-15.5144Z"/>
  <path class="cls-2" d="M451.4855,554.852h176.2193c-5.5298,18.5705-16.7365,34.6435-31.6495,46.1615-5.059-11.665-16.6188-19.9512-30.2081-19.9512-10.7654,0-20.2956,5.1712-26.2666,13.105-5.9711-7.9338-15.5012-13.105-26.2666-13.105-13.5894,0-25.208,8.2566-30.2081,19.9512-14.913-11.5477-26.1197-27.6203-31.6495-46.1615h.0292Z"/>
  <path class="cls-1" d="M565.8844,581.0909c13.5894,0,25.1491,8.2569,30.2081,19.9516-15.619,12.1944-35.179,19.4226-56.4748,19.4226s-40.8265-7.2282-56.4751-19.4226c5.0005-11.6654,16.6191-19.9516,30.2085-19.9516,10.7654,0,20.2956,5.1716,26.2666,13.1053,5.9711-7.9337,15.5012-13.1053,26.2666-13.1053Z"/>
  <path class="cls-2" d="M434.983,461.5873c.6474-2.1451,2.7943-2.8795,11.9717-.8814,4.5885.9991,10.942,2.6737,19.7662,5.1712,4.4119,1.2637,9.4125,2.7329,15.1481,4.4076,2.8532.8521,5.883,1.7339,9.1182,2.7033,1.618.4701,3.2652.9698,4.9713,1.4692.8529.2647,1.7057.4997,2.5882.764l1.3237.382.6766.2058h.0881s.7059.2643,1.0294.4113c.7647.3528,1.5591.911,2.1769,1.5869,1.2941,1.3807,1.9119,3.1734,1.9119,4.8481s-.6178,3.4673-1.9119,4.8484c-.3235.3524-.6767.6463-1.0298.911-.4409.3524-1.2645.7637-1.5588.8521l-.6766.2351-.6763.2054-1.3237.382c-.8825.2647-1.7353.529-2.5885.764-1.7061.4997-3.3533.9991-4.9709,1.4692-3.2356.9698-6.2654,1.8512-9.1185,2.7033-5.7356,1.675-10.7358,3.1146-15.1481,4.4076-8.8243,2.4975-15.1481,4.1725-19.7662,5.1716-9.177,1.9982-11.3243,1.2926-11.9714-.8817-.647-2.1447-.5589-4.3191,7.4417-8.2565,4.0003-1.9689,9.9714-4.3783,18.8545-7.4637,4.4412-1.5277,9.5887-3.2615,15.5597-5.1716,3.0005-.9402,6.1772-1.9393,9.6186-2.9969,1.7061-.529,3.4706-1.0579,5.2944-1.6161.9117-.2647,1.8238-.5582,2.7647-.8521l1.4122-.4409.7059-.2055h.0881l.0588-.0296c3.4414,11.7243,1.0002,3.2615,1.7649,5.8767v.0589h.0292l-.0292.0292-1.7649,5.8768h-.0588l-.0881-.0292-.7059-.2058-1.4122-.4409c-.941-.2935-1.853-.5582-2.7647-.8521-1.8238-.5582-3.5883-1.0872-5.2944-1.6158-3.4121-1.0579-6.6181-2.057-9.6186-2.9972-5.9711-1.9101-11.1185-3.6143-15.5597-5.1716-8.8539-3.0853-14.825-5.4947-18.8545-7.4633-8.0007-3.9375-8.0888-6.0826-7.4417-8.2569l-.0296.0881Z"/>
  <path class="cls-2" d="M645.0916,464.4613c.647,2.1451-.7059,3.9082-9.2655,7.2282-4.2946,1.675-10.383,3.732-18.913,6.4353-4.2946,1.3222-9.1774,2.8207-14.7365,4.5542-2.7944.8521-5.7653,1.7339-8.9124,2.7033-1.5883.4701-3.2063.9698-4.8535,1.4692-.8236.2647-1.6765.4997-2.5297.764l-.647.2058-.3235.0881-.1766.0588.5297-.1766c1.9411-.7344,3.4706-3.1146,3.3529-5.0539.0589-1.9685-1.2352-4.2606-3.5295-5.1127h.0881l.0296.0588c.1177.0589-.9706-.3231-.4708-.1762l.1766.0585.3235.0885.647.2055c.8532.2647,1.7061.4997,2.5297.764,1.6768.4994,3.2944.9991,4.8535,1.4692,3.1471.9402,6.118,1.8512,8.9124,2.7033,5.5887,1.7335,10.4711,3.2323,14.7365,4.5545,8.5592,2.7033,14.648,4.76,18.913,6.435,8.5596,3.3204,9.9125,5.0835,9.2655,7.2282-.647,2.1451-1.8826,3.9082-10.5596,2.8503-4.3239-.529-10.5303-1.7631-19.4427-3.9963-4.4415-1.1164-9.589-2.4975-15.5012-4.1429-2.9413-.8521-6.118-1.7335-9.4713-2.7033-1.6764-.4994-3.4121-.9991-5.2063-1.528-.8825-.2643-1.7942-.529-2.7355-.7933l-1.9119-.5878-.2354-.0881c-.5293-.2351-1.0587-.4994-1.5295-.8521-.7059-.529-1.2941-1.1164-1.8234-1.7924-1.0002-1.3811-1.471-2.9972-1.471-4.5838-.1762-3.0853,2.3827-6.6112,5.3829-7.434l1.5884-.4701c.9117-.2647,1.8238-.529,2.7355-.7933,1.7942-.529,3.5299-1.0287,5.2063-1.528,3.3533-.9698,6.53-1.8512,9.4713-2.7033,5.9122-1.6454,11.0304-3.0265,15.5012-4.1433,8.9124-2.2328,15.0893-3.467,19.4427-3.9959,8.677-1.0579,9.9125.7052,10.5596,2.8503v-.1177Z"/>
</svg>