<?xml version="1.0" encoding="UTF-8"?>
<svg id="Expressions" xmlns="http://www.w3.org/2000/svg" viewBox="0 0 1080 1080">
  <defs>
    <style>
      .cls-1 {
        fill: #ff7b7b;
      }

      .cls-2 {
        fill: #5d359b;
      }

      .cls-3 {
        fill: #fff;
      }
    </style>
  </defs>
  <path class="cls-2" d="M628.9976,501.8229c13.3649-5.6369,19.6233-21.0289,13.9791-34.3795-5.6406-13.3506-21.049-19.6039-34.4139-13.967-13.3649,5.6366-19.6233,21.0289-13.9827,34.3795,5.6443,13.3503,21.0527,19.6036,34.4175,13.967Z"/>
  <path class="cls-2" d="M461.2125,503.9453c14.5091,0,26.2692-11.748,26.2692-26.2396s-11.7601-26.2396-26.2692-26.2396-26.2655,11.748-26.2655,26.2396,11.7601,26.2396,26.2655,26.2396Z"/>
  <path class="cls-3" d="M462.3567,536.7519h155.3085c8.2068,0,14.3519,7.434,12.9701,15.5144-.6178,3.6435-1.4696,7.2286-2.5005,10.7252h-176.2186c-1.0601-3.4966-1.8826-7.0817-2.5005-10.7252-1.3818-8.0804,4.7669-15.5144,12.9701-15.5144h-.0292Z"/>
  <path class="cls-2" d="M451.8871,562.9907h176.2186c-5.5309,18.5705-16.7391,34.6435-31.6503,46.1615-5.0594-11.665-16.6184-19.9512-30.2099-19.9512-10.7658,0-20.2959,5.1716-26.2656,13.105-5.9696-7.9334-15.4997-13.105-26.2655-13.105-13.5916,0-25.2091,8.2565-30.2099,19.9512-14.9113-11.5477-26.1193-27.6203-31.6503-46.1615h.0329Z"/>
  <path class="cls-1" d="M566.2491,589.2226c13.5916,0,25.1506,8.2569,30.21,19.9516-15.6204,12.194-35.1779,19.4226-56.4755,19.4226s-40.8258-7.2286-56.4755-19.4226c5.0009-11.6654,16.6184-19.9516,30.21-19.9516,10.7657,0,20.2959,5.1716,26.2655,13.105,5.9696-7.9334,15.4998-13.105,26.2655-13.105Z"/>
</svg>