<?xml version="1.0" encoding="UTF-8"?>
<svg id="Expressions" xmlns="http://www.w3.org/2000/svg" viewBox="0 0 1080 1080">
  <defs>
    <style>
      .cls-1 {
        fill: #ff7b7b;
      }

      .cls-2 {
        fill: #5d359b;
      }

      .cls-3 {
        fill: #fff;
      }
    </style>
  </defs>
  <path class="cls-3" d="M462.3508,552.2211h155.3084c8.2068,0,14.3519,7.434,12.9701,15.5144-.6178,3.6435-1.4696,7.2286-2.5004,10.7252h-176.2186c-1.06-3.4966-1.8826-7.0817-2.5004-10.7252-1.3818-8.0804,4.7633-15.5144,12.9701-15.5144h-.0292Z"/>
  <path class="cls-2" d="M451.9103,578.4599h176.2186c-5.498,18.5705-16.7354,34.6435-31.6466,46.1615-5.0594-11.665-16.6184-19.9512-30.21-19.9512-10.7657,0-20.2958,5.1716-26.2655,13.105-5.9732-7.9334-15.5034-13.105-26.2691-13.105-13.5879,0-25.2055,8.2565-30.2063,19.9512-14.9113-11.5477-26.1194-27.6203-31.6503-46.1615h.0292Z"/>
  <path class="cls-1" d="M566.2688,604.7061c13.5878,0,25.1506,8.2569,30.2099,19.9516-15.6203,12.194-35.1815,19.4226-56.4754,19.4226s-40.8258-7.2286-56.4755-19.4226c5.0008-11.6654,16.6184-19.9516,30.2063-19.9516,10.7658,0,20.2959,5.1716,26.2692,13.105,5.9696-7.9334,15.4997-13.105,26.2655-13.105Z"/>
  <path class="cls-1" d="M655.2425,445.44c12.674,12.6937,12.674,33.2916,0,45.9561l-46.2983,45.9561-46.2982-45.9561c-12.6777-12.6937-12.6777-33.2916,0-45.9561,12.7946-12.6937,33.5036-12.6937,46.2982,0,12.7946-12.6937,33.5-12.6937,46.2983,0Z"/>
  <path class="cls-1" d="M517.3567,445.44c12.6776,12.6937,12.6776,33.2916,0,45.9561l-46.2983,45.9561-46.2982-45.9561c-12.6777-12.6937-12.6777-33.2916,0-45.9561,12.7946-12.6937,33.5036-12.6937,46.2982,0,12.7946-12.6937,33.5037-12.6937,46.2983,0Z"/>
</svg>