<?xml version="1.0" encoding="UTF-8"?>
<svg id="Expressions" xmlns="http://www.w3.org/2000/svg" viewBox="0 0 1080 1080">
  <defs>
    <style>
      .cls-1 {
        fill: #5d359b;
      }

      .cls-2 {
        fill: rgba(93, 53, 155, .4);
      }
    </style>
  </defs>
  <path class="cls-1" d="M625.3474,484.1862c10.9157,0,19.7073,8.7859,19.7073,19.6873s-8.7916,19.6869-19.7073,19.6869-19.7073-8.7859-19.7073-19.6869,8.7954-19.6873,19.7073-19.6873Z"/>
  <path class="cls-1" d="M454.6526,484.1862c10.9119,0,19.7073,8.7859,19.7073,19.6873s-8.7954,19.6869-19.7073,19.6869-19.7073-8.7859-19.7073-19.6869,8.7952-19.6873,19.7073-19.6873Z"/>
  <path class="cls-1" d="M618.7892,564.3961c0,4.4957-8.5906,5.1716-78.8002,5.1716s-78.8004-.6463-78.8004-5.1716,3.2937-8.1685,78.8004-8.1685,78.8002,3.6435,78.8002,8.1685Z"/>
  <path class="cls-2" d="M539.9853,582.4738c-37.7368,0-39.3855,3.6435-39.3855,8.1684s4.2953,5.1716,39.3855,5.1716,39.3857-.6463,39.3857-5.1716-1.6489-8.1684-39.3857-8.1684Z"/>
</svg>