<?xml version="1.0" encoding="UTF-8"?>
<svg id="Expressions" xmlns="http://www.w3.org/2000/svg" viewBox="0 0 1080 1080">
  <defs>
    <style>
      .cls-1 {
        fill: #5d359b;
      }
    </style>
  </defs>
  <path class="cls-1" d="M644.6993,527.7737c2.3358-14.3026-7.377-27.7896-21.6924-30.1237-14.319-2.3345-27.8191,7.3675-30.1552,21.6697-2.3358,14.3026,7.3735,27.7896,21.6924,30.1237,14.3154,2.3345,27.8191-7.3675,30.1552-21.6697Z"/>
  <path class="cls-1" d="M476.0623,545.3554c11.9686-8.1875,15.0283-24.5178,6.8324-36.4749-8.1959-11.9575-24.5401-15.0136-36.5121-6.8261-11.9686,8.1871-15.0283,24.5178-6.8324,36.4749,8.1959,11.9575,24.5437,15.0136,36.5121,6.8261Z"/>
  <path class="cls-1" d="M566.1512,577.5251c0,4.496-2.8515,5.1716-26.2655,5.1716s-26.2655-.6463-26.2655-5.1716,1.0857-8.1685,26.2655-8.1685,26.2655,3.6435,26.2655,8.1685Z"/>
</svg>