<?xml version="1.0" encoding="UTF-8"?>
<svg id="Expressions" xmlns="http://www.w3.org/2000/svg" viewBox="0 0 1080 1080">
  <defs>
    <style>
      .cls-1 {
        fill: #5d359b;
      }

      .cls-2 {
        fill: rgba(93, 53, 155, .4);
      }
    </style>
  </defs>
  <path class="cls-2" d="M540.0018,566.1162c-37.7368,0-39.3819,3.6435-39.3819,8.1685s4.2917,5.1716,39.3819,5.1716,39.3855-.6463,39.3855-5.1716-1.6451-8.1685-39.3855-8.1685Z"/>
  <path class="cls-1" d="M618.7691,548.0389c0,4.4957-8.587,5.1712-78.8004,5.1712s-78.8002-.6463-78.8002-5.1712,3.2973-8.1688,78.8002-8.1688,78.8004,3.6435,78.8004,8.1688Z"/>
  <path class="cls-1" d="M500.6125,508.7122c0,4.4957-2.8513,5.1716-26.2655,5.1716s-26.2691-.6463-26.2691-5.1716,1.0893-8.1685,26.2691-8.1685,26.2655,3.6435,26.2655,8.1685Z"/>
  <path class="cls-1" d="M631.9221,508.7122c0,4.4957-2.8515,5.1716-26.2655,5.1716s-26.2693-.6463-26.2693-5.1716,1.0895-8.1685,26.2693-8.1685,26.2655,3.6435,26.2655,8.1685Z"/>
</svg>