<?xml version="1.0" encoding="UTF-8"?>
<svg id="Expressions" xmlns="http://www.w3.org/2000/svg" viewBox="0 0 1080 1080">
  <defs>
    <style>
      .cls-1 {
        fill: #ff7b7b;
      }

      .cls-2 {
        fill: #5d359b;
      }

      .cls-3 {
        fill: #fff;
      }
    </style>
  </defs>
  <path class="cls-3" d="M462.3623,533.493h155.3084c8.2068,0,14.3227,7.434,12.9701,15.5148-.6178,3.6435-1.4696,7.2282-2.5004,10.7248h-176.2186c-1.0602-3.4966-1.8826-7.0813-2.5004-10.7248-1.3818-8.0807,4.7669-15.5148,12.9701-15.5148h-.0292Z"/>
  <path class="cls-2" d="M451.8962,559.7465h176.2222c-5.5017,18.5701-16.7391,34.6431-31.6502,46.1615-5.0594-11.6654-16.6185-19.9516-30.21-19.9516-10.7658,0-20.2959,5.1716-26.2655,13.105-5.9696-7.9334-15.4997-13.105-26.2655-13.105-13.5916,0-25.2091,8.2569-30.21,19.9516-14.9113-11.5477-26.1193-27.6207-31.6502-46.1615h.0292Z"/>
  <path class="cls-1" d="M566.2838,585.9854c13.5879,0,25.1469,8.2569,30.2063,19.9516-15.6168,12.194-35.1779,19.4226-56.4755,19.4226s-40.8258-7.2286-56.4754-19.4226c5.0008-11.6654,16.622-19.9516,30.2099-19.9516,10.7658,0,20.2959,5.1716,26.2655,13.105,5.9733-7.9334,15.5035-13.105,26.2692-13.105Z"/>
  <path class="cls-2" d="M656.7565,487.9613c-2.2629.7055-3.3815-.1762-7.0005-5.0243-1.8827-2.3213-4.4708-5.7005-9.2048-8.8447-2.2957-1.6746-5.2641-3.0265-8.8246-4.231-3.7945-1.1756-7.1174-1.675-13.2662-1.8808-4.2953.1766-9.1464.7052-12.5899,1.8808-3.5569,1.2045-6.529,2.5564-8.821,4.231-4.7377,3.1442-7.2966,6.5234-9.2085,8.8447-3.6482,4.9362-4.7047,5.5829-7.0005,5.0243-2.0288-.5286-4.4122-1.7923-2.2957-9.0206,1.1771-3.4966,3.7068-8.6093,9.8848-14.1041,3.1767-2.586,7.2345-5.2304,12.3523-7.1697,5.297-1.8216,10.8864-2.9384,18.3548-3.0265,5.5602.0292,12.8239,1.2049,17.6785,3.0265,5.1471,1.9393,9.2085,4.5545,12.356,7.1697,6.1743,5.4651,8.6747,10.5779,9.8811,14.1041,2.1166,7.199-.2632,8.5212-2.325,8.9913l.0293.0292Z"/>
  <path class="cls-2" d="M499.1595,487.9613c-2.2628.7055-3.3814-.1762-7.0004-5.0243-1.8827-2.3213-4.4709-5.7005-9.2048-8.8447-2.2958-1.6746-5.2678-3.0265-8.8246-4.231-3.7945-1.1756-7.1174-1.675-13.2662-1.8808-4.2954.1766-9.1464.7052-12.5899,1.8808-3.5606,1.2045-6.529,2.5564-8.8246,4.231-4.7341,3.1442-7.2929,6.5234-9.2048,8.8447-3.6482,4.9362-4.7084,5.5829-7.0005,5.0243-2.0288-.5286-4.4123-1.7923-2.2957-9.0206,1.1771-3.4966,3.7068-8.6093,9.8848-14.1041,3.1767-2.586,7.2343-5.2304,12.3523-7.1697,5.2933-1.8216,10.8827-2.9384,18.3548-3.0265,5.5602.0292,12.8239,1.2049,17.6785,3.0265,5.1471,1.9393,9.2048,4.5545,12.3523,7.1697,6.178,5.4651,8.6784,10.5779,9.8848,14.1041,2.1165,7.199-.2669,8.5212-2.325,8.9913l.0292.0292Z"/>
</svg>