<?xml version="1.0" encoding="UTF-8"?>
<svg id="Expressions" xmlns="http://www.w3.org/2000/svg" viewBox="0 0 1080 1080">
  <defs>
    <style>
      .cls-1 {
        fill: #5d359b;
      }
    </style>
  </defs>
  <path class="cls-1" d="M644.7636,500.9626c2.0215-14.3508-7.9875-27.6192-22.3542-29.6364-14.3665-2.0168-27.6473,7.982-29.6688,22.3325-2.0179,14.3508,7.9911,27.6192,22.3576,29.636,14.3667,2.0168,27.6475-7.9816,29.6654-22.3321Z"/>
  <path class="cls-1" d="M471.4073,521.6358c13.3795-5.604,19.6745-20.981,14.0667-34.3452-5.6113-13.3642-21.005-19.6551-34.381-14.0511-13.3794,5.604-19.6744,20.981-14.0667,34.3452,5.6114,13.3645,21.0014,19.6551,34.381,14.051Z"/>
  <path class="cls-1" d="M580.9074,562.9175c1.1185,0,1.9996.4409,2.6174,2.1159.6178,1.6746,1.0016,4.6426.0877,9.4907-.9688,4.7307-3.1145,11.7243-9.6178,19.0995-3.206,3.6435-7.4977,7.3459-13.2041,10.2547-2.8551,1.4399-6.0026,2.7622-9.5009,3.585-1.6779.4994-3.6777.7933-5.7065,1.0872-2.1201.3232-3.4434.2351-5.2677.382-16.9986-.1765-27.9435-8.11-34.3262-15.3089-6.4704-7.3459-8.6162-14.3391-9.6178-19.0995-.5008-2.3505-.5594-4.4957-.5301-6.1411,0-1.7335.3547-2.5271.6178-3.3496.6178-1.528,1.4733-1.9982,2.6174-2.057,1.1186-.0589,2.208.0588,3.2389,1.1753.5263.5582,1.0271,1.3811,1.528,2.5271.6177,1.0579,1.1478,2.2625,1.8826,3.9078,1.4696,3.3204,3.6776,8.0807,8.5286,13.5459,2.5004,2.6448,5.7356,5.3774,9.9725,7.6398,4.1199,2.204,9.914,3.7316,15.4121,3.8494,13.1784-.2058,21.0307-6.2588,26.0607-11.4892,4.8254-5.4651,7.0591-10.2255,8.5324-13.5459,1.4695-3.3496,2.4126-5.3182,3.4106-6.4054,1.0308-1.0872,2.1165-1.2637,3.2352-1.2637h.0292Z"/>
</svg>