<?xml version="1.0" encoding="UTF-8"?>
<svg id="Expressions" xmlns="http://www.w3.org/2000/svg" viewBox="0 0 1080 1080">
  <defs>
    <style>
      .cls-1 {
        fill: #ff7b7b;
      }

      .cls-2 {
        fill: #5d359b;
      }

      .cls-3 {
        fill: rgba(93, 53, 155, .4);
      }
    </style>
  </defs>
  <path class="cls-2" d="M618.7808,503.9478c14.5065,0,26.2666-11.7491,26.2666-26.2399s-11.7601-26.2399-26.2666-26.2399-26.2666,11.7491-26.2666,26.2399,11.7601,26.2399,26.2666,26.2399Z"/>
  <path class="cls-2" d="M625.3675,582.6421c0,13.7817-10.383,26.2399-25.1488,26.2399-2.7063,0-5.2652-.117-7.6772-.3838,0-18.0989-14.7069-32.4106-32.8259-32.4106-7.4125,0-14.1776,2.4419-19.7074,6.5545-5.5298-4.1418-12.3541-6.5545-19.7074-6.5545-18.119,0-32.8263,14.3117-32.8263,32.4106-2.4412.2669-4.912.3838-7.6768.3838-15.1777,0-25.1491-12.4583-25.1491-26.2399,0-39.1698,47.2685-59.0307,85.3595-59.0307s85.3592,19.8609,85.3592,59.0307Z"/>
  <path class="cls-1" d="M559.7132,576.0803c18.119,0,32.8263,14.3117,32.8263,32.4106-13.7952-1.4403-24.8845-6.1707-52.5336-6.1707s-38.4146,4.7888-52.5333,6.1707c0-18.0989,14.7069-32.4106,32.8259-32.4106,7.3536,0,14.1775,2.4383,19.7074,6.5545,5.5298-4.1455,12.2656-6.5545,19.7074-6.5545Z"/>
  <path class="cls-2" d="M486.7897,483.7177c3.3321-14.1033-5.4118-28.2359-19.5308-31.5661-14.1187-3.3302-28.2655,5.4067-31.598,19.5099-3.3325,14.1033,5.4118,28.2359,19.5308,31.5662,14.1187,3.3302,28.2655-5.4067,31.598-19.51Z"/>
  <path class="cls-3" d="M540.0998,615.4511c-19.6485.1463-29.8257,2.4383-34.9143,4.5257-5.0886,2.2592-4.9417,4.2588-4.1769,6.1085.7063,1.6779,1.5884,2.4712,5.3536,2.4712.5293,0,1.1175,0,1.7646-.0585,5.1771-.1206,14.7661-1.2356,31.7672-1.3233,17.4424.117,26.7079,1.2027,32.0027,1.3233.647.0293,1.206.0585,1.7353.0585,3.7945,0,4.7355-.7932,5.3825-2.4712.7651-1.8205.9413-3.8494-4.1765-6.1085-5.0005-2.0873-15.5012-4.4086-34.7085-4.5257"/>
</svg>