<?xml version="1.0" encoding="UTF-8"?>
<svg id="Expressions" xmlns="http://www.w3.org/2000/svg" viewBox="0 0 1080 1080">
  <defs>
    <style>
      .cls-1 {
        fill: #ff7b7b;
      }

      .cls-2 {
        fill: #5d359b;
      }

      .cls-3 {
        fill: rgba(93, 53, 155, .4);
      }
    </style>
  </defs>
  <path class="cls-2" d="M637.2148,515.4069c10.2613-10.2467,10.2613-26.8614,0-37.1081-10.2576-10.2503-26.887-10.2503-37.1446,0-10.2576,10.2466-10.2576,26.8614,0,37.1081,10.2576,10.2466,26.887,10.2466,37.1446,0Z"/>
  <path class="cls-2" d="M625.2098,601.7999c0,13.7817-10.3819,26.2399-25.1469,26.2399-2.7052,0-5.2641-.117-7.6768-.3838,0-18.0989-14.7065-32.4106-32.8273-32.4106-7.4099,0-14.1765,2.4419-19.7074,6.5545-5.5309-4.1418-12.3523-6.5545-19.7073-6.5545-18.1172,0-32.8237,14.3117-32.8237,32.4106-2.4419.2669-4.9131.3838-7.6804.3838-15.1744,0-25.1469-12.4583-25.1469-26.2399,0-39.1698,47.267-59.0307,85.3584-59.0307s85.3585,19.8609,85.3585,59.0307Z"/>
  <path class="cls-1" d="M559.5588,595.2527c18.1172,0,32.8237,14.3117,32.8237,32.4106-13.7963-1.4403-24.8837-6.1707-52.5311-6.1707s-38.4168,4.7888-52.5347,6.1707c0-18.0989,14.7065-32.4106,32.8274-32.4106,7.3514,0,14.1764,2.4383,19.7073,6.5545,5.5273-4.1455,12.2646-6.5545,19.7074-6.5545Z"/>
  <path class="cls-2" d="M461.0804,523.1056c14.5054,0,26.2655-11.7491,26.2655-26.2399s-11.7601-26.2399-26.2655-26.2399-26.2656,11.7491-26.2656,26.2399,11.7601,26.2399,26.2656,26.2399Z"/>
  <path class="cls-3" d="M455.0157,432.2857c-5.5309,0-12.6777,1.0565-20.5007,4.4379-9.6763,4.405-15.3243,9.7824-19.0603,14.3665-3.6776,4.6134-5.2933,8.3458-5.9989,11.0217-1.4147,5.5236.6763,6.4631,2.5589,7.5488.5557.2961,1.0565.4423,1.5866.4423,1.4111,0,2.8221-1.1186,4.9424-3.6446,1.5573-1.7913,3.4984-4.4087,6.7336-7.5525,3.1475-3.0853,7.9144-6.9347,14.3263-9.8701,7.0882-3.0561,12.7069-3.8201,17.2362-4.1455,1.4695-.0877,2.7929-.117,3.9992-.117,2.5297,0,4.5293.1462,6.1488.1755.53,0,1.0016.0292,1.4403.0292,3.5606,0,4.6499-.8225,5.2677-2.76.647-2.0873,1.0272-4.3502-3.853-6.9346-2.4712-1.2356-6.3242-2.5261-12.2097-2.9099-.8225-.0585-1.7035-.0877-2.6174-.0877Z"/>
  <path class="cls-3" d="M624.826,432.3625c-.7385,0-1.444,0-2.1203.0621-5.8819.3217-9.7641,1.5573-12.2353,2.76-5.0886,2.5845-4.4123,4.7596-3.97,6.9055.4716,2.0873,1.9703,2.8221,5.7941,2.8221h.9103c1.4439,0,3.206-.117,5.3555-.117,1.4111,0,3.0013.0292,4.7632.1755,4.4123.3217,10.4148,1.2904,16.9145,4.2003,7.0005,3.2316,11.2959,6.9054,14.5311,10.0785,3.206,3.1731,5.1471,5.7905,6.6752,7.6109,2.1203,2.643,3.4728,3.6447,4.8254,3.6447.5301,0,1.0894-.1463,1.6743-.4131,1.974-.9102,3.9444-2.0837,2.6503-7.4903-.7055-2.6759-2.2957-6.4083-5.9148-11.0509-3.5569-4.5549-9.6179-10.1955-18.6472-14.3666-8.5286-3.8201-15.6204-4.7888-21.2354-4.7888"/>
  <path class="cls-3" d="M539.9647,634.6089c-19.6197.1463-29.8261,2.4383-34.9147,4.5257-5.0887,2.2592-4.9424,4.2588-4.1784,6.1085.7055,1.6779,1.5902,2.4712,5.3555,2.4712.5264,0,1.115,0,1.762-.0585,5.1763-.1206,14.7687-1.2356,31.7672-1.3233,17.4446.117,26.7079,1.2027,32.0049,1.3233.647.0293,1.2064.0585,1.7328.0585,3.7945,0,4.7377-.7932,5.3847-2.4712.764-1.8205.9394-3.8494-4.1784-6.1085-5.0009-2.0873-15.4998-4.4086-34.7063-4.5257"/>
</svg>