<?xml version="1.0" encoding="UTF-8"?>
<svg id="Expressions" xmlns="http://www.w3.org/2000/svg" viewBox="0 0 1080 1080">
  <defs>
    <style>
      .cls-1 {
        fill: #ff7b7b;
      }

      .cls-2 {
        fill: #5d359b;
      }

      .cls-3 {
        fill: rgba(93, 53, 155, .4);
      }
    </style>
  </defs>
  <path class="cls-2" d="M618.8038,438.343c18.3256,0,26.2655,17.631,26.2655,39.3453s-7.94,39.3453-26.2655,39.3453-26.2691-17.631-26.2691-39.3453,7.9435-39.3453,26.2691-39.3453Z"/>
  <path class="cls-2" d="M461.1962,438.343c18.3256,0,26.2691,17.631,26.2691,39.3453s-7.9435,39.3453-26.2691,39.3453-26.2655-17.631-26.2655-39.3453,7.9435-39.3453,26.2655-39.3453Z"/>
  <path class="cls-1" d="M559.711,589.188c18.0003,0,32.6189,14.4835,32.8237,32.4107-13.7926-1.4404-24.8837-6.1707-52.5311-6.1707s-38.4169,4.7888-52.5349,6.1707c.2084-17.8942,14.8273-32.4107,32.8275-32.4107,7.3514,0,14.1764,2.4383,19.7073,6.5509,5.4979-4.1418,12.2645-6.5509,19.7073-6.5509Z"/>
  <path class="cls-2" d="M625.362,595.7498c0,13.778-10.3818,26.2363-25.1468,26.2363-2.7089,0-5.2679-.117-7.6769-.3801-.2084-17.8942-14.827-32.4107-32.8273-32.4107-7.4136,0-14.1764,2.4383-19.7073,6.5545-5.5017-4.1454-12.3524-6.5545-19.7073-6.5545-18.0003,0-32.6191,14.4872-32.8275,32.4107-2.4383.2632-4.9093.3801-7.6767.3801-15.178,0-25.147-12.4583-25.147-26.2363,0-39.1698,47.2672-59.0344,85.3586-59.0344s85.3583,19.8645,85.3583,59.0344Z"/>
  <path class="cls-3" d="M540.0878,628.5516c-19.6197.1462-29.8261,2.4383-34.9148,4.522-5.0885,2.2628-4.9423,4.2624-4.1746,6.1122.7055,1.6743,1.5864,2.4712,5.3518,2.4712.5299,0,1.1185,0,1.7656-.0622,5.1764-.117,14.765-1.2319,31.7672-1.3196,17.4409.117,26.708,1.2027,31.9721,1.3196.647,0,1.2062.0293,1.7363.0293,3.7946,0,4.7339-.7933,5.381-2.4675.7642-1.8205.9139-3.8493-4.1746-6.1122-5.001-2.0837-15.5035-4.405-34.71-4.522"/>
</svg>