<?xml version="1.0" encoding="UTF-8"?>
<svg id="Expressions" xmlns="http://www.w3.org/2000/svg" viewBox="0 0 1080 1080">
  <defs>
    <style>
      .cls-1 {
        fill: #5d359b;
      }

      .cls-2 {
        fill: rgba(93, 53, 155, .4);
      }
    </style>
  </defs>
  <path class="cls-1" d="M630.9859,575.4463c-1.4147,1.9082-3.7653,1.0272-15.4742-4.3794-5.8819-2.5845-14.2349-6.1707-26.4118-9.6362-12.2682-3.4984-28.0019-6.5545-49.124-6.7592-20.8808.1755-36.9729,3.2901-49.1204,6.7592-12.1768,3.4363-20.5299,7.0225-26.4117,9.6362-11.7675,5.4359-13.9718,6.2292-15.4742,4.3794-1.2941-1.6451-2.0582-4.4672,8.6784-12.1074,5.4103-3.6739,13.767-8.5212,26.971-13.0761,13.1493-4.4963,31.2994-8.7259,55.3861-8.8722,11.7381.0878,22.7087,1.2027,31.7965,2.7892,9.1793,1.7035,17.0022,3.8494,23.5933,6.1122,13.1748,4.5549,21.5608,9.4023,26.971,13.0761,10.7073,7.6403,10.0017,10.4917,8.6492,12.1074"/>
  <path class="cls-1" d="M488.9766,495.5529c2.0581,0,3.9992,1.2356,3.1767,8.2288-.5886,3.4071-2.0581,8.4043-6.6459,13.6939-4.4123,5.169-12.6191,10.8425-24.2659,10.9595-11.6797-.1461-19.8573-5.8197-24.2696-10.9595-4.5878-5.2896-6.0573-10.2869-6.6459-13.6939-.2961-1.6743-.2961-3.2608-.1755-4.4379.0585-1.2904.4387-1.7328.7055-2.3213.647-1.0272,1.528-1.3489,2.6467-1.4074,1.1186-.0621,2.2044,0,3.206.7312.5008.3545,1.0016.9139,1.4695,1.6779.5593.6764,1.0309,1.349,1.6194,2.3506,1.1771,2.0253,2.7929,4.8474,5.8234,8.0496,3.089,3.0561,8.1191,6.5838,15.6204,6.7008,7.4976-.1169,12.5278-3.6447,15.6168-6.7008,3.0598-3.2022,4.6463-6.0244,5.8233-8.0496,2.2957-4.1161,3.9408-4.8802,6.3242-4.8217h-.0292Z"/>
  <path class="cls-1" d="M646.5551,495.5529c2.0581,0,3.9992,1.2356,3.1767,8.2288-.5885,3.4071-2.0581,8.4043-6.6459,13.6939-4.4123,5.169-12.6191,10.8425-24.2696,10.9595-11.676-.1461-19.8536-5.8197-24.2659-10.9595-4.5877-5.2896-6.0573-10.2869-6.6459-13.6939-.2961-1.6743-.2961-3.2608-.1755-4.4379.0586-1.2904.4388-1.7328.7056-2.3213.647-1.0272,1.528-1.3489,2.6467-1.4074,1.1186-.0621,2.2043,0,3.2059.7312.5008.3545.998.9139,1.4696,1.6779.5593.6764,1.0308,1.349,1.6194,2.3506,1.1771,2.0253,2.7929,4.8474,5.8234,8.0496,3.089,3.0561,8.119,6.5838,15.6167,6.7008,7.5013-.1169,12.5315-3.6447,15.6204-6.7008,3.0598-3.2022,4.6463-6.0244,5.8234-8.0496,2.2957-4.1161,3.9406-4.8802,6.3241-4.8217h-.0292Z"/>
  <path class="cls-2" d="M540.0929,567.616c-20.3837.1463-30.6194,4.2295-35.474,7.1686-4.851,3.1438-4.3539,5.4359-3.3814,7.4026.764,1.4696,1.528,2.2629,3.853,2.2629.881,0,1.9996-.117,3.4107-.351,5.0593-.6763,14.4433-3.0561,31.3577-3.1731,17.3532.117,26.4118,2.4968,31.5882,3.1731,1.4439.2339,2.5589.351,3.4435.351,2.3213,0,3.1182-.7641,3.8237-2.2629.998-1.9667,1.4988-4.2295-3.3522-7.3734-4.7669-2.9391-15.3279-7.0224-35.2692-7.1686"/>
</svg>