<?xml version="1.0" encoding="UTF-8"?>
<svg id="Expressions" xmlns="http://www.w3.org/2000/svg" viewBox="0 0 1080 1080">
  <defs>
    <style>
      .cls-1 {
        fill: #5d359b;
      }
    </style>
  </defs>
  <path class="cls-1" d="M638.9696,542.2815c9.5375-10.923,8.4043-27.4975-2.5259-37.024-10.9302-9.5265-27.523-8.3969-37.0605,2.5224-9.5375,10.923-8.4043,27.4975,2.5259,37.024,10.9305,9.5265,27.5233,8.3969,37.0605-2.5224Z"/>
  <path class="cls-1" d="M487.1158,531.1356c3.3448-14.0997-5.3884-28.2396-19.5063-31.5808-14.1144-3.3412-28.2687,5.3811-31.6137,19.4807-3.3448,14.1033,5.3884,28.2433,19.5027,31.5844,14.118,3.3412,28.2725-5.3811,31.6173-19.4843Z"/>
  <path class="cls-1" d="M584.9691,597.6823c-2.2921.7348-3.2937-.2669-7.4977-5.3774-4.383-4.5841-13.0028-14.3409-37.2982-14.6041-11.0288.1755-20.0289,2.5261-25.5598,5.6991-5.7065,3.1145-8.971,6.4668-11.179,8.905-2.175,2.4675-3.3814,4.1126-4.4414,4.8766-1.0272.7056-1.9411.7933-3.0599.5301-1.9996-.5008-4.5878-1.9704-1.5572-9.8738,1.6486-3.7616,5.0008-9.373,12.5313-14.3994,7.4977-5.169,18.6473-8.9599,33.8545-9.0476,6.3536.117,13.7378.9102,19.2067,2.5845,5.6186,1.7035,10.3818,3.8201,14.0595,6.4631,7.5013,5.0265,10.8535,10.6378,12.5313,14.3994,3.0012,7.8742.4422,9.4022-1.5902,9.8446Z"/>
  <path class="cls-1" d="M500.4917,513.4497c-1.6779,4.1748-5.5017,3.3522-34.7392-8.3128-29.2375-11.6651-32.5897-13.7232-30.9156-17.9234,1.6781-4.1748,4.4124-7.0224,35.8579,5.5529,31.4419,12.5753,31.4712,16.5124,29.7969,20.6834Z"/>
  <path class="cls-1" d="M579.292,510.6569c-1.6743-4.1711,1.6486-6.2291,30.9154-17.9234,29.2375-11.6943,33.0613-12.5168,34.7392-8.3165,1.6743,4.171,1.6743,8.1118-29.7969,20.6871-31.4455,12.5753-34.1798,9.7239-35.8577,5.5529Z"/>
</svg>