<?xml version="1.0" encoding="UTF-8"?>
<svg id="Expressions" xmlns="http://www.w3.org/2000/svg" viewBox="0 0 1080 1080">
  <defs>
    <style>
      .cls-1 {
        fill: #5d359b;
      }

      .cls-2 {
        fill: rgba(93, 53, 155, .4);
      }
    </style>
  </defs>
  <path class="cls-1" d="M618.8155,517.6298c14.5055,0,26.2656-11.7455,26.2656-26.24s-11.7601-26.2363-26.2656-26.2363-26.2655,11.7455-26.2655,26.2363,11.7601,26.24,26.2655,26.24Z"/>
  <path class="cls-1" d="M487.1187,495.561c2.3176-14.3045-7.4136-27.779-21.7363-30.0931-14.319-2.314-27.8082,7.4063-30.1222,21.7107-2.3177,14.3044,7.4135,27.779,21.7325,30.0929,14.3191,2.314,27.8083-7.4063,30.126-21.7106Z"/>
  <path class="cls-1" d="M625.3444,558.4923c0,2.292-2.3506,3.3522-14.4689,4.7303-12.0305,1.7072-34.2384,2.6468-72.0958,12.3706-37.6491,10.4623-57.3857,20.5994-68.5354,25.2713-11.1166,4.9679-13.5294,5.2604-14.7942,3.3193-1.1771-1.8498-1.5573-4.3173,8.1776-11.1935,4.8839-3.3777,12.3523-7.8449,23.7944-13.1053,11.4713-5.2604,26.8578-11.4604,47.9469-17.1594,21.0892-5.6114,37.5907-7.8157,50.0928-8.9928,12.5278-1.1149,21.1769-1.0565,27.1173-.647,11.8552.9431,12.7946,3.2059,12.7654,5.4067Z"/>
  <path class="cls-2" d="M569.6549,586.7793c-5.911,0-13.6207.7933-23.3556,3.1439-19.7367,5.0557-28.7075,11.4604-32.7068,15.4851-3.9408,4.2039-2.9135,6.3206-1.5024,7.9949.8261.9394,1.5317,1.4696,2.7673,1.4696,1.0565,0,2.5297-.4131,4.7633-1.3819,4.7669-1.8826,13.2662-6.4082,29.6798-10.6085,16.8816-4.0541,26.2363-3.9372,31.4127-4.4964,5.1763-.4387,6.1486-1.349,6.591-3.6118.4972-2.1459.4094-4.4671-5.03-6.379-2.6467-.8518-6.7666-1.6451-12.6193-1.6451"/>
</svg>