<?xml version="1.0" encoding="UTF-8"?>
<svg id="Expressions" xmlns="http://www.w3.org/2000/svg" viewBox="0 0 1080 1080">
  <defs>
    <style>
      .cls-1 {
        fill: #5d359b;
      }

      .cls-2 {
        fill: rgba(93, 53, 155, .4);
      }
    </style>
  </defs>
  <path class="cls-1" d="M485.9535,508.7409c-2.3834,0-3.2936-1.1149-5.0008-5.2567-.9688-1.9997-2.1751-4.9095-5.1178-7.9656-3.0013-2.9976-7.3515-6.2292-14.9697-6.3754-2.7966.0585-6.2364.9102-8.5322,2.1166-2.4419,1.2027-4.3245,2.7308-5.7649,4.2588-2.9427,3.0268-4.1784,5.9367-5.1178,7.9656-.9102,2.0252-1.4696,2.9939-2.2372,4.2002-.7348.9687-1.6451,1.2064-2.7637,1.1442-1.1186-.0585-2.2043-.2047-3.1182-1.0565-.4716-.4094-.9102-.998-1.2941-1.8205-.2924-.9102-.5885-2.2628-.5885-3.9078-.0586-3.1731.8261-8.0825,4.8839-13.8693,4.1455-5.5236,11.9429-12.1951,25.2383-12.3414,1.3818.117,2.1166,0,3.9115.3217,1.645.2084,3.089.5301,4.3538.9103,2.6467.7055,4.968,1.7949,7.0883,2.9391,4.1454,2.409,7.0882,5.3774,9.1755,8.1995,4.0614,5.7869,4.9425,10.6963,4.8839,13.8694-.0585,3.2023-.9431,4.8766-1.8826,5.7283-.9431.8517-1.9996.9394-3.1476.9394Z"/>
  <path class="cls-1" d="M643.5212,508.7409c-2.3798,0-3.2937-1.1149-4.9972-5.2567-.9724-1.9997-2.1788-4.9095-5.1179-7.9656-3.0012-2.9976-7.3549-6.2292-14.9734-6.3754-2.7928.0585-6.2364.9102-8.5283,2.1166-2.4421,1.2027-4.3247,2.7308-5.765,4.2588-2.9427,3.0268-4.1784,5.9367-5.1215,7.9656-.9103,2.0252-1.4695,2.9939-2.2337,4.2002-.7347.9687-1.6486,1.2064-2.7636,1.1442-1.1185-.0585-2.208-.2047-3.1181-1.0565-.4717-.4094-.9139-.998-1.2941-1.8205-.2963-.9102-.5886-2.2628-.5886-3.9078-.0585-3.1731.8224-8.0825,4.8801-13.8693,4.1491-5.5236,11.943-12.1951,25.2385-12.3414,1.3818.117,2.1165,0,3.9113.3217,1.6489.2084,3.0891.5301,4.354.9103,2.6467.7055,4.9716,1.7949,7.0881,2.9391,4.1491,2.409,7.0883,5.3774,9.1794,8.1995,4.0577,5.7869,4.9423,10.6963,4.8801,13.8694-.0585,3.2023-.9396,4.8766-1.8827,5.7283-.9393.8517-1.9996.9394-3.1473.9394Z"/>
  <path class="cls-1" d="M632.8212,549.2743c1.2941,1.6779,0,5.0265-12.0307,12.2828-6.0611,3.4984-14.9442,7.8157-28.0311,11.8113-6.5035,2.0581-14.118,3.7909-22.8841,5.2605-8.6493,1.411-19.1774,2.2335-29.7092,2.3505-22.7671-.1754-39.8571-3.6117-52.9734-7.6402-13.0615-3.9956-21.9446-8.3129-28.0312-11.8113-12.0014-7.1979-13.4161-10.6671-12.0307-12.2536,1.4696-1.9082,3.1476-2.4091,14.5274,2.2043,5.7393,2.1751,14.0047,5.6406,26.5032,9.1097,6.2658,1.7328,13.5916,3.3778,22.1494,4.7889,8.4992,1.2648,18.618,2.1751,29.4714,2.2921,11.8844-.117,21.0636-1.0272,29.8262-2.2921,8.5614-1.3818,15.8835-3.0561,22.1492-4.7889,12.5023-3.4984,20.7676-6.9346,26.5032-9.1097,11.3836-4.6426,13.0579-4.1126,14.5312-2.2336l.0292.0293Z"/>
  <path class="cls-2" d="M505.0723,587.3291c-2.3249,0-3.089.7933-3.853,2.2628-.9725,1.9667-1.4696,4.2588,3.3814,7.4026,4.8547,2.9391,15.1197,7.0224,35.474,7.1723,19.9449-.1499,30.5023-4.2332,35.2692-7.1723,4.8511-3.1438,4.3502-5.4359,3.3522-7.3734-.7055-1.4988-1.4987-2.2628-3.8236-2.2628-.8847,0-2.0288.117-3.4436.3509-5.1764.6763-14.2056,3.0561-31.5881,3.1731-16.9438-.117-26.2984-2.4968-31.3578-3.1731-1.4111-.2339-2.5297-.3509-3.4107-.3509"/>
</svg>