<?xml version="1.0" encoding="UTF-8"?>
<svg id="Expressions" xmlns="http://www.w3.org/2000/svg" viewBox="0 0 1080 1080">
  <defs>
    <style>
      .cls-1 {
        fill: #5d359b;
      }

      .cls-2 {
        fill: rgba(93, 53, 155, .4);
      }
    </style>
  </defs>
  <path class="cls-1" d="M639.2017,515.2688c9.1098-11.2775,7.3441-27.7972-3.9443-36.8961-11.2922-9.1024-27.8265-7.3368-36.9363,3.9408-9.1098,11.2776-7.3441,27.7973,3.9444,36.8997,11.2921,9.0988,27.8265,7.3331,36.9362-3.9444Z"/>
  <path class="cls-1" d="M463.2099,524.9965c14.4652-1.0858,25.3114-13.683,24.222-28.1335-1.0894-14.4506-13.6975-25.2859-28.1627-24.1965-14.4652,1.0857-25.3115,13.6829-24.2221,28.1335,1.0857,14.4506,13.6939,25.2822,28.1628,24.1965Z"/>
  <path class="cls-1" d="M619.4688,565.8405c.9139,1.9668-.6763,4.5841-11.5299,8.6967-10.7949,3.8202-31.3541,9.49-67.8005,9.7276-36.8558-.2376-57.1189-5.9075-68.0052-9.7276-10.8242-4.0833-12.5278-6.7884-11.5005-8.6967,1.0309-2.1166,2.4419-3.2316,12.5022-1.4988,5.0594.8225,12.3523,2.2335,23.0887,3.6738,10.6781,1.4659,25.0921,2.8477,43.7101,2.9355,19.1773-.0877,33.0613-1.4696,43.9148-2.9355,10.7658-1.4403,18.0332-2.8514,23.0925-3.6738,10.0858-1.7328,11.4713-.6178,12.5278,1.4988Z"/>
  <path class="cls-2" d="M505.1397,590.6109c-2.325,0-3.089.7969-3.8531,2.2628-.9724,1.9704-1.4696,4.2624,3.3814,7.4063,4.8547,2.9391,15.1197,7.0224,35.474,7.1686,19.9414-.1462,30.5024-4.2295,35.2657-7.1686,4.8547-3.1438,4.3539-5.4359,3.3558-7.377-.7055-1.4951-1.5025-2.2592-3.8237-2.2592-.8847,0-2.0289.117-3.4436.351-5.1763.6763-14.2056,3.0561-31.5881,3.1731-16.9438-.117-26.2984-2.4968-31.3578-3.1731-1.411-.234-2.5296-.351-3.4106-.351"/>
</svg>