<?xml version="1.0" encoding="UTF-8"?>
<svg id="Expressions" xmlns="http://www.w3.org/2000/svg" viewBox="0 0 1080 1080">
  <defs>
    <style>
      .cls-1 {
        fill: #5d359b;
      }
    </style>
  </defs>
  <path class="cls-1" d="M587.4001,559.9904c1.9704.53,3.44,3.2315-.9724,11.2848-2.3213,3.8786-6.5874,9.0184-14.2056,13.544-3.7946,2.2043-8.4409,4.2332-13.8548,5.5236-2.6759.7348-5.6187,1.2356-8.8539,1.5866-3.4692.53-5.648.3546-9.5009.5885-13.5879-.117-24.6206-3.1146-32.2059-7.6987-7.6476-4.4928-11.8844-9.6654-14.2094-13.544-4.383-7.9327-3.0012-10.901-.9687-11.2556,2.292-.6763,3.8822-.3217,8.4992,4.4086,2.4419,2.2336,5.6772,5.6699,11.6468,8.7844,5.8856,3.2352,14.7065,5.849,27.238,5.9952,2.7051-.1754,6.708-.117,8.8831-.5593,2.5296-.2047,4.9716-.7347,7.2674-1.2319,4.4708-1.1771,8.2068-2.4968,11.1166-4.1747,6.0025-3.1146,9.2377-6.5509,11.6468-8.7844,4.5915-4.7596,6.178-5.0228,8.5029-4.4379l-.0292-.0292Z"/>
  <path class="cls-1" d="M488.9766,487.4851c2.0581,0,3.9992,1.2319,3.1767,8.2251-.5886,3.4107-2.0581,8.4042-6.6459,13.6939-4.4123,5.1727-12.6191,10.8425-24.2659,10.9595-11.6797-.1462-19.8573-5.816-24.2696-10.9595-4.5878-5.2896-6.0573-10.2832-6.6459-13.6939-.2961-1.6743-.2961-3.2609-.1755-4.4343.0585-1.294.4387-1.7364.7055-2.3213.647-1.0309,1.528-1.3526,2.6467-1.4111,1.1186-.0585,2.2044,0,3.206.7348.5008.3509,1.0016.9102,1.4695,1.6742.5593.6763,1.0309,1.3526,1.6194,2.3506,1.1771,2.0289,2.7929,4.8473,5.8234,8.0496,3.089,3.0561,8.1191,6.5838,15.6204,6.7008,7.4976-.117,12.5278-3.6447,15.6168-6.7008,3.0598-3.2023,4.6463-6.0207,5.8233-8.0496,2.2957-4.1126,3.9408-4.8766,6.3242-4.8181h-.0292Z"/>
  <path class="cls-1" d="M646.5551,487.4851c2.0581,0,3.9992,1.2319,3.1767,8.2251-.5885,3.4107-2.0581,8.4042-6.6459,13.6939-4.4123,5.1727-12.6191,10.8425-24.2659,10.9595-11.6797-.1462-19.8573-5.816-24.2696-10.9595-4.5877-5.2896-6.0573-10.2832-6.6459-13.6939-.2961-1.6743-.2961-3.2609-.1755-4.4343.0586-1.294.4388-1.7364.7056-2.3213.647-1.0309,1.528-1.3526,2.6467-1.4111,1.1186-.0585,2.2043,0,3.2059.7348.5008.3509.998.9102,1.4696,1.6742.5593.6763,1.0308,1.3526,1.6194,2.3506,1.1771,2.0289,2.7929,4.8473,5.8234,8.0496,3.089,3.0561,8.119,6.5838,15.6203,6.7008,7.4976-.117,12.5278-3.6447,15.6168-6.7008,3.0598-3.2023,4.6463-6.0207,5.8234-8.0496,2.2957-4.1126,3.9406-4.8766,6.3241-4.8181h-.0292Z"/>
</svg>