<?xml version="1.0" encoding="UTF-8"?>
<svg id="Expressions" xmlns="http://www.w3.org/2000/svg" viewBox="0 0 1080 1080">
  <defs>
    <style>
      .cls-1 {
        fill: #5d359b;
      }

      .cls-2 {
        fill: #dedede;
      }

      .cls-3 {
        fill: #fff;
      }
    </style>
  </defs>
  <path class="cls-1" d="M485.9646,507.2677c-2.3834,0-3.2973-1.1149-5.0008-5.2604-.9724-1.996-2.1788-4.9058-5.1179-7.9619-3.0012-2.9976-7.3549-6.2292-14.9734-6.3754-2.7928.0585-6.2364.9102-8.5283,2.1166-2.4421,1.2027-4.3247,2.7308-5.765,4.2588-2.9427,3.0269-4.1784,5.9367-5.1179,7.9619-.9139,2.0289-1.473,2.9976-2.2372,4.204-.7347.9687-1.6486,1.2027-2.7636,1.1442-1.1185-.0585-2.208-.2047-3.1181-1.0565-.4717-.4131-.9139-.998-1.2941-1.8205-.2961-.9139-.5886-2.2628-.5886-3.9078-.0585-3.1731.8224-8.0826,4.8839-13.8694,4.1454-5.5236,11.9392-12.1951,25.2347-12.3414,1.3818.117,2.1201,0,3.9113.3217,1.6489.2047,3.0891.53,4.354.9102,2.6467.7055,4.9716,1.7949,7.0881,2.9391,4.1491,2.409,7.0919,5.3774,9.1794,8.1995,4.0577,5.7869,4.9423,10.6963,4.8839,13.8694-.0623,3.2023-.9431,4.8766-1.8827,5.7283-.9431.8518-2.0034.9394-3.1476.9394Z"/>
  <path class="cls-1" d="M643.5323,507.2677c-2.3836,0-3.2937-1.1149-5.0008-5.2604-.9688-1.996-2.1752-4.9058-5.1179-7.9619-3.0012-2.9976-7.3514-6.2292-14.9698-6.3754-2.7964.0585-6.2364.9102-8.5321,2.1166-2.4418,1.2027-4.3245,2.7308-5.7648,4.2588-2.9392,3.0269-4.1748,5.9367-5.1179,7.9619-.9103,2.0289-1.4695,2.9976-2.2337,4.204-.7383.9687-1.6486,1.2027-2.7671,1.1442-1.1149-.0585-2.2044-.2047-3.1183-1.0565-.4679-.4131-.9101-.998-1.2941-1.8205-.2925-.9139-.5886-2.2628-.5886-3.9078-.0585-3.1731.8262-8.0826,4.8839-13.8694,4.1491-5.5236,11.943-12.1951,25.2385-12.3414,1.3818.117,2.1165,0,3.9113.3217,1.6489.2047,3.0891.53,4.354.9102,2.6467.7055,4.9716,1.7949,7.0881,2.9391,4.1491,2.409,7.0883,5.3774,9.1756,8.1995,4.0615,5.7869,4.9423,10.6963,4.8839,13.8694-.0585,3.2023-.9393,4.8766-1.8827,5.7283-.9393.8518-1.9996.9394-3.1473.9394Z"/>
  <path class="cls-3" d="M559.6689,572.8457h-39.3855v32.7944h39.3855v-32.7944Z"/>
  <path class="cls-3" d="M520.2872,572.8457h-39.3819v32.7944h39.3819v-32.7944Z"/>
  <path class="cls-3" d="M559.6689,540.0402h-39.3855v32.7908h39.3855v-32.7908Z"/>
  <path class="cls-3" d="M480.9015,572.8457h-39.3855v32.7944h39.3855v-32.7944Z"/>
  <path class="cls-3" d="M480.9015,540.0402h-39.3855v32.7908h39.3855v-32.7908Z"/>
  <path class="cls-3" d="M441.5198,540.0402v32.7908h-32.8237c0-18.0989,14.7063-32.7908,32.8237-32.7908Z"/>
  <path class="cls-3" d="M599.0545,540.0402h-39.3857v32.7908h39.3857v-32.7908Z"/>
  <path class="cls-3" d="M441.5198,572.8457v32.7944c-9.0587,0-17.2655-3.6738-23.2351-9.5814-5.9147-5.9659-9.5886-14.1618-9.5886-23.2131h32.8237Z"/>
  <path class="cls-3" d="M520.2872,540.0402h-39.3819v32.7908h39.3819v-32.7908Z"/>
  <path class="cls-3" d="M599.0545,572.8457h-39.3857v32.7944h39.3857v-32.7944Z"/>
  <path class="cls-3" d="M638.4766,540.0402h-39.3855v32.7908h39.3855v-32.7908Z"/>
  <path class="cls-3" d="M638.4766,572.8457h-39.3855v32.7944h39.3855v-32.7944Z"/>
  <path class="cls-3" d="M671.2965,572.831h-32.8273v-32.7908c9.0587,0,17.2655,3.6702,23.2387,9.5777,5.9111,5.966,9.5886,14.1618,9.5886,23.2131Z"/>
  <path class="cls-3" d="M638.4692,572.8457h32.8273c0,18.1026-14.7065,32.7944-32.8273,32.7944v-32.7944Z"/>
  <path class="cls-2" d="M671.3039,573.3428c0,.764-3.5898,1.1771-21.7692,1.4111-18.2049.2339-51.0321.2924-109.5366.2924s-91.3317-.0585-109.5366-.2924c-18.2086-.234-21.7654-.6763-21.7654-1.4111s1.3818-1.4404,18.4717-1.9082c17.0899-.5008,49.9136-.7932,112.8303-.7932s95.7442.2924,112.8341.7932c17.0899.4972,18.4717,1.1734,18.4717,1.9082Z"/>
  <path class="cls-2" d="M441.0154,605.6218c-1.5025,0-1.7365-3.5825-1.7365-32.7908s.2048-32.7908,1.7365-32.7908c1.5279,0,2.7343,1.3782,2.7343,32.7908s-1.2064,32.7908-2.7343,32.7908Z"/>
  <path class="cls-2" d="M637.9683,605.6218c-1.4987,0-1.7328-3.5825-1.7328-32.7908s.2048-32.7908,1.7328-32.7908c1.5317,0,2.7381,1.3782,2.7381,32.7908s-1.2064,32.7908-2.7381,32.7908Z"/>
  <path class="cls-2" d="M598.5902,605.6218c-1.4989,0-1.7363-3.5825-1.7363-32.7908s.2082-32.7908,1.7363-32.7908,2.7343,1.3782,2.7343,32.7908-1.2064,32.7908-2.7343,32.7908Z"/>
  <path class="cls-2" d="M559.2048,605.6218c-1.5025,0-1.7365-3.5825-1.7365-32.7908s.2048-32.7908,1.7365-32.7908c1.5279,0,2.7343,1.3782,2.7343,32.7908s-1.2064,32.7908-2.7343,32.7908Z"/>
  <path class="cls-2" d="M519.7899,605.6218c-1.4987,0-1.7328-3.5825-1.7328-32.7908s.2048-32.7908,1.7328-32.7908c1.5317,0,2.7381,1.3782,2.7381,32.7908s-1.2064,32.7908-2.7381,32.7908Z"/>
  <path class="cls-2" d="M480.4044,605.6218c-1.4987,0-1.7363-3.5825-1.7363-32.7908s.2046-32.7908,1.7363-32.7908c1.5282,0,2.7343,1.3782,2.7343,32.7908s-1.2062,32.7908-2.7343,32.7908Z"/>
</svg>