<?xml version="1.0" encoding="UTF-8"?>
<svg id="Expressions" xmlns="http://www.w3.org/2000/svg" viewBox="0 0 1080 1080">
  <defs>
    <style>
      .cls-1 {
        fill: #5d359b;
      }

      .cls-2 {
        fill: rgba(93, 53, 155, .4);
      }
    </style>
  </defs>
  <path class="cls-1" d="M584.5229,585.1574c-2.2943.7348-3.2944-.2669-7.5006-5.3773-4.3827-4.5841-13.0008-14.341-37.2971-14.6041-11.0301.1754-20.0309,2.5259-25.5607,5.6991-5.706,3.1145-8.9712,6.4667-11.177,8.9051-2.1769,2.4675-3.3829,4.1126-4.4416,4.8765-1.0298.7055-1.9415.7933-3.059.5301-2.0004-.5009-4.5889-1.9704-1.5591-9.8739,1.6472-3.7616,5.0005-9.373,12.5303-14.3994,7.5006-5.169,18.6483-8.9891,33.8557-9.0477,6.3535.117,13.7363.9102,19.2073,2.5845,5.6179,1.7035,10.383,3.8202,14.0598,6.4631,7.5006,5.0265,10.8539,10.6378,12.5303,14.3994,3.0002,7.8741.4412,9.4022-1.5884,9.8445Z"/>
  <path class="cls-1" d="M488.9946,486.4012c2.0588,0,4.0003,1.2355,3.1767,8.2288-.5886,3.4069-2.0592,8.4042-6.6477,13.6939-4.4119,5.169-12.6184,10.8424-24.2666,10.9595-11.6771-.1463-19.8543-5.8198-24.2959-10.9595-4.5885-5.2897-6.0592-10.287-6.6474-13.6939-.2943-1.6743-.2943-3.2608-.1766-4.438.0589-1.2904.4412-1.7328.7059-2.3212.647-1.0272,1.5295-1.3527,2.6474-1.4111,1.1175-.0585,2.2058,0,3.206.7348.5001.3545,1.0002.9139,1.4707,1.6779.5589.6726,1.0294,1.3489,1.618,2.3506,1.1764,2.0252,2.7943,4.8473,5.8238,8.0496,3.0886,3.0561,8.1184,6.58,15.6189,6.7008,7.5006-.1207,12.5303-3.6447,15.6189-6.7008,3.059-3.2023,4.6474-6.0245,5.8238-8.0496,2.2943-4.1162,3.9415-4.8802,6.3242-4.8217Z"/>
  <path class="cls-1" d="M646.5659,486.4012c2.0588,0,4.0003,1.232,3.1767,8.2251-.5886,3.4106-2.0592,8.4043-6.6477,13.6939-2.2646,2.6137-5.3533,5.2896-9.4125,7.3734-2.0296,1.0308-4.2942,1.9704-6.7947,2.5589-1.1764.351-2.647.5849-4.1473.7641-1.5884.2339-2.3239.1463-3.5883.2632-12.3245-.1169-20.0313-5.7867-24.6198-10.9595-4.5885-5.2896-6.0592-10.2833-6.6473-13.6939-.2943-1.6743-.2943-3.2608-.1766-4.4379.0588-1.2905.4412-1.7329.7059-2.3213.647-1.0272,1.5295-1.349,2.6474-1.4074,1.1175-.0585,2.2058,0,3.206.7348.5001.3509,1.0002.9102,1.4706,1.6742.5589.6763,1.0294,1.349,1.618,2.3506,1.1764,2.0253,2.7944,4.8473,5.8238,8.0496,1.5884,1.5573,3.5591,3.1439,6.1476,4.4672,2.4412,1.2941,6.0888,2.1751,9.1182,2.2628,8.1772-.1463,12.7069-3.6447,15.9425-6.7008,3.059-3.2022,4.6474-6.0244,5.8241-8.0496,2.2943-4.1162,3.9415-4.8802,6.3238-4.8181l.0296-.0292Z"/>
  <path class="cls-2" d="M540.5247,578.1459h-.6767c-11.5594,0-18.0894,4.0578-20.1486,7.6402-2.0881,3.7325,0,5.4652,1.9707,6.2292,1.8534.647,2.5297,1.5865,3.7064,1.5865.2351,0,.4705-.0292.7647-.1169,1.5588-.2925,5.3825-1.9667,13.7067-2.0253,9.0301.0586,12.3541,1.7328,14.0602,2.0253.2647.0585.5293.0877.7647.0877,1.1764,0,1.9707-.7347,3.7061-1.6157,2.0296-.6763,4.0592-2.4676,2-6.2-1.9411-3.5824-8.9416-7.6402-19.8251-7.6402"/>
</svg>