<?xml version="1.0" encoding="UTF-8"?>
<svg id="Expressions" xmlns="http://www.w3.org/2000/svg" viewBox="0 0 1080 1080">
  <defs>
    <style>
      .cls-1 {
        fill: #5d359b;
      }
    </style>
  </defs>
  <path class="cls-1" d="M612.8686,533.3962c14.5054,0,26.2692-11.7492,26.2692-26.24s-11.7638-26.24-26.2692-26.24-26.2656,11.7492-26.2656,26.24,11.7601,26.24,26.2656,26.24Z"/>
  <path class="cls-1" d="M493.3887,520.9964c-1.9704,1.2063-3.1475,1.294-5.9696-.6764-1.4404-.9394-3.323-2.3505-6.2657-3.7579-1.4403-.7347-3.2352-1.3233-5.2933-1.8827-2.2957-.5263-3.853-.764-7.6768-.881-5.1178.0878-9.6179,1.3527-12.4144,2.7637-2.9391,1.3782-4.851,2.8185-6.2657,3.7579-2.8806,2.0289-3.9115,1.7364-5.9988.7056-1.8826-1.0565-3.7653-2.5845-1.8242-7.0517,1.0309-2.1751,3.1182-5.0812,7.3551-7.9912,4.3209-2.8514,10.5281-5.4651,19.7366-5.4943,3.2352,0,8.0862.6763,11.0874,1.6743,3.2645,1.0272,5.9111,2.409,8.0606,3.82,4.2332,2.9099,6.3242,5.8161,7.3514,7.9912,1.9411,4.4672.0877,6.0245-1.8241,7.0225h-.0585Z"/>
  <path class="cls-1" d="M588.047,566.5561c1.9704.5301,3.44,3.2352-.9724,11.2849-2.3213,3.8786-6.5874,9.022-14.2057,13.5477-3.7946,2.2007-8.4408,4.2296-13.8548,5.5237-2.6759.7347-5.6187,1.2318-8.8539,1.5865-3.3522.5265-5.9404.351-9.2048.5849-14.1472-.117-24.7959-3.1147-32.502-7.6951-7.6475-4.4963-11.8844-9.669-14.2094-13.5477-4.3794-7.9327-2.9976-10.901-.9687-11.2557,2.2957-.6726,3.8823-.3216,8.4993,4.4088,2.4419,2.2335,5.6771,5.6698,11.6504,8.788,2.9098,1.6743,6.6752,2.9939,11.1167,4.171,4.3538,1.1442,10.2064,1.6451,15.8543,1.8206,7.176-.2047,11.7674-.6764,16.4137-1.8206,4.4708-1.1771,8.2068-2.4967,11.1167-4.171,6.0025-3.1182,9.2377-6.5545,11.6504-8.788,4.5878-4.7596,6.1744-5.0229,8.4993-4.438h-.0292Z"/>
</svg>