<?xml version="1.0" encoding="UTF-8"?>
<svg id="Expressions" xmlns="http://www.w3.org/2000/svg" viewBox="0 0 1080 1080">
  <defs>
    <style>
      .cls-1 {
        fill: #5d359b;
      }

      .cls-2 {
        fill: rgba(93, 53, 155, .4);
      }
    </style>
  </defs>
  <path class="cls-1" d="M435.0151,489.9958c.647-2.1459,2.7965-2.8514,12.0598-.8518,4.6499.998,11.0619,2.7014,19.945,5.2275,4.4417,1.2941,9.5009,2.7637,15.2951,4.438,2.8806.8517,5.9404,1.762,9.2048,2.7343,1.6194.4971,3.2937.998,5.03,1.4988.8518.2632,1.7364.5263,2.6174.7933l1.3233.4094.6763.2047.3547.0914,1.0272.3802c2.3834.9979,4.0906,3.7908,3.9736,6.1999-.0585,2.4676-1.2355,5.0557-4.3245,6.3461l-.7055.2376-.3547.0878-.6763.2047-1.3233.4131c-.881.2632-1.7657.5263-2.6174.7932-1.7364.4972-3.3814.998-5.0301,1.4951-3.2644.9725-6.3241,1.8827-9.2047,2.7345-5.7978,1.6743-10.8536,3.1438-15.2951,4.4379-8.8831,2.5261-15.2987,4.2296-19.945,5.2275-9.2633,2.0289-11.4128,1.3233-12.0599-.8518-.6469-2.1422-.5593-4.3173,7.5307-8.2836,4.0284-1.9704,10.0894-4.4086,19.0311-7.5232,4.4708-1.5574,9.6764-3.2901,15.7081-5.2019,3.0269-.9396,6.2657-1.9667,9.7056-3.0269,1.7364-.5265,3.4984-1.0857,5.3518-1.6451.9139-.2632,1.8535-.5557,2.7966-.8518l1.4402-.4387.7348-.2084.3545-.1169h.0878l.0585-.0292c.8518,2.7636-1.8241-6.2292,1.9119,6.1999v.0292c-3.736,12.429-1.0602,3.44-1.9119,6.2h-.0585l-.0878-.0292-.3545-.117-.7348-.2047-1.4402-.4423c-.9431-.2924-1.8827-.5593-2.7966-.8518-1.8534-.5593-3.6153-1.1149-5.3518-1.645-3.44-1.0894-6.6788-2.0874-9.7056-3.0269-6.0317-1.9082-11.2374-3.6447-15.7081-5.2019-8.9417-3.1145-14.9734-5.5529-19.0311-7.5196-8.0899-3.97-8.1776-6.1122-7.5307-8.2873l.0293-.0292Z"/>
  <path class="cls-1" d="M645.1211,492.8764c.647,2.1459-.764,3.9371-9.6178,7.3478-4.4124,1.7035-10.7073,3.8165-19.532,6.6093-4.4122,1.3526-9.4717,2.9099-15.2072,4.7012-2.8807.881-5.9404,1.7912-9.1756,2.7929-1.6194.4971-3.2937.9979-5.03,1.4988-.8519.2632-1.7365.5263-2.6174.7932l-1.3233.4094-.6763.2084-.3548.0877h-.0877l-.0292.0293c-.2048.0585.1754,0,.8224-.3254,2.2959-.9687,3.9153-3.641,3.7946-5.9038-.0585-2.3506-1.1772-4.8217-4.1454-6.0537.4715.1755-.6178-.2047-.4717-.1755h.0292l.0877.0292.3548.0878.6763.2047,1.3233.4131c.8809.2632,1.7656.5263,2.6174.7932,1.7071.5265,3.3814,1.0272,5.03,1.4951,3.2352.9725,6.2949,1.9119,9.1756,2.7929,5.7648,1.762,10.795,3.3486,15.2072,4.7012,8.8246,2.7929,15.0903,4.9094,19.532,6.613,8.8539,3.4071,10.2649,5.169,9.6178,7.3441s-1.9119,3.9078-10.8535,2.7637c-4.4709-.5594-10.8535-1.8535-20.0291-4.1747-4.5914-1.1443-9.8847-2.5845-15.975-4.288-3.0561-.881-6.2913-1.7913-9.7642-2.7929-1.7363-.4972-3.5275-1.0272-5.3518-1.5865-.9139-.2633-1.8532-.5594-2.7966-.8225l-1.4402-.4387-.7347-.2084-.3545-.117-.7055-.2339c.413.1755-.9103-.3253-1.6158-.9102-.5886-.4423-1.0895-.9724-1.5025-1.5573-.8224-1.2064-1.2064-2.559-1.2064-3.8786-.1461-2.559,1.9411-5.6151,4.4709-6.4082l.5594-.1755.3545-.117.7347-.2047,1.4402-.4423c.9434-.2924,1.8827-.5593,2.7966-.8225,1.8535-.53,3.6154-1.0565,5.3518-1.5865,3.4729-.998,6.7373-1.9375,9.7642-2.7929,6.0903-1.7035,11.3836-3.1438,15.975-4.2879,9.1756-2.3213,15.5582-3.6154,20.0291-4.1748,8.9416-1.1442,10.2064.6178,10.8535,2.7637Z"/>
  <path class="cls-1" d="M584.1491,583.6415c-2.2919.7347-3.2937-.2633-7.4975-5.3774-2.208-2.4383-5.4432-5.7869-11.1788-8.9014-2.8551-1.528-6.3536-2.9976-10.6781-3.9663-2.1752-.5886-4.4417-.9431-6.7958-1.2064-2.0873-.4423-5.9111-.3216-8.3531-.53-11.6174.1498-20.1752,2.5296-25.8232,5.6735-5.7064,3.1145-8.9709,6.4631-11.1788,8.9014-2.1751,2.4675-3.3815,4.1126-4.4417,4.8765-1.0271.7056-1.941.7933-3.0597.5301-1.9996-.4972-4.5878-1.9667-1.5574-9.8739,1.6451-3.7579,5.0009-9.373,12.5315-14.3957,7.3807-5.1727,18.9397-8.9635,33.5584-9.0513,4.0614.2341,6.4742.117,10.2065.7056,3.4436.3838,6.4741,1.1149,9.2961,1.8789,5.6188,1.7072,10.382,3.8202,14.0595,6.4668,7.5013,5.0228,10.8535,10.6378,12.5316,14.3957,3.0012,7.8778.4422,9.4059-1.5902,9.8446"/>
  <path class="cls-2" d="M540.1467,576.5826h-.6763c-11.559,0-18.0879,4.054-20.146,7.6402-2.091,3.7324,0,5.4651,1.9704,6.2292,1.8534.6469,2.5296,1.5865,3.7031,1.5865.2376,0,.4716-.0292.7676-.117,1.5573-.2961,5.3811-1.9704,13.7048-2.0288,9.0002.0585,12.356,1.7328,14.0595,2.0288.2669.0586.5301.0878.7678.0878,1.1734,0,1.9704-.7348,3.7031-1.6158,2.0324-.6763,4.0612-2.4675,2.0032-6.1999-1.9447-3.5862-8.9453-7.6402-19.8279-7.6402"/>
</svg>