<?xml version="1.0" encoding="UTF-8"?>
<svg id="Expressions" xmlns="http://www.w3.org/2000/svg" viewBox="0 0 1080 1080">
  <defs>
    <style>
      .cls-1 {
        fill: #5d359b;
      }
    </style>
  </defs>
  <path class="cls-1" d="M618.7673,497.4621c14.5055,0,26.2655-11.7455,26.2655-26.24s-11.76-26.24-26.2655-26.24-26.2655,11.7492-26.2655,26.24,11.76,26.24,26.2655,26.24Z"/>
  <path class="cls-1" d="M486.8035,477.1954c3.3303-14.1033-5.4102-28.2359-19.532-31.5662-14.118-3.3266-28.2651,5.4067-31.5954,19.51-3.3339,14.107,5.4105,28.2396,19.5284,31.5662,14.118,3.3302,28.2651-5.4067,31.599-19.51Z"/>
  <path class="cls-1" d="M604.1448,635.0664c-2.4128-.117-2.7051-4.7012-4.1164-27.7973-.9431-11.4604-1.9409-27.7973-7.5011-49.2739-2.9137-10.5794-6.9714-22.7452-14.9149-33.8802-7.94-11.1057-20.0875-20.2447-38.0329-20.04-1.2941.1755-3.9408.2339-5.7942.3839-1.9704.4094-3.9408.6726-5.8234,1.1149-3.7067,1.0565-7.2052,2.409-10.3526,4.2588-6.2949,3.6738-11.2959,8.788-15.2659,14.2824-7.9435,11.1057-12.0012,23.2716-14.9147,33.8802-5.5566,21.4767-6.5582,37.8136-7.4977,49.2739-1.4148,23.0961-1.7071,27.651-4.1199,27.7973-2.0873.1461-4.9423-1.4404-6.0573-23.8894-.2961-11.1935-.4717-27.7059,4.383-51.5367,2.6467-11.8113,6.4705-25.71,15.5292-40.2264,4.5876-7.1393,10.8242-14.4286,19.5025-19.923,8.7626-5.5237,19.1482-8.7553,31.2079-8.6967,2.5882.1755,4.9095.2047,7.6185.53,2.8513.5557,5.8525.8225,8.4114,1.7328,2.5882.8225,5.1764,1.528,7.5598,2.76,2.4421,1.0309,4.7342,2.2628,6.8543,3.7031,8.6455,5.4943,14.8821,12.7837,19.4992,19.9231,9.0915,14.5163,12.8859,28.415,15.5325,40.2263,4.8511,23.8308,4.6755,40.3432,4.3832,51.5367-1.148,22.4198-4.003,24.0357-6.0611,23.8602h-.0292Z"/>
</svg>