<?xml version="1.0" encoding="UTF-8"?>
<svg id="Expressions" xmlns="http://www.w3.org/2000/svg" viewBox="0 0 1080 1080">
  <defs>
    <style>
      .cls-1 {
        fill: #5d359b;
      }
    </style>
  </defs>
  <path class="cls-1" d="M435.0017,491.3955c.647-2.1422,2.7343-2.8769,11.7346-.9394,4.5001.9687,10.7073,2.5845,19.3271,5.0557,4.2917,1.2612,9.2048,2.6722,14.8235,4.288,2.793.8224,5.765,1.7035,8.9123,2.6467,1.5902.4679,3.206.9394,4.8547,1.4367.8226.2375,1.6743.5008,2.5297.764l.647.2084.3217.0877.1754.0586.8554.2924c2.793,1.0602,4.9131,4.321,4.7632,7.2016.0587,2.9061-1.824,6.0793-4.9386,7.2857l-.8554.2924-.3217.0914-.647.2047c-.8554.2632-1.7071.4972-2.5297.7641-1.6779.4971-3.2937.9687-4.8547,1.4402-3.1473.9396-6.1193,1.8206-8.9123,2.6431-5.6186,1.6157-10.5317,3.0561-14.8235,4.2916-8.6198,2.4383-14.827,4.0833-19.3271,5.0521-9.0002,1.941-11.0875,1.2063-11.7346-.9396s-.5886-4.321,7.2345-8.1995c3.9115-1.9375,9.7678-4.3173,18.4132-7.3441,4.3247-1.528,9.3548-3.2023,15.2075-5.0557,2.9427-.9103,6.0611-1.9082,9.4132-2.9392,1.6779-.4971,3.4106-1.0272,5.1762-1.5865.8811-.2633,1.795-.5557,2.7053-.8225l.7055-.2047.3545-.117.1754-.0585h.0879l.0292-.0292c2.8551,10.2247.826,2.8514,1.473,5.1434.3217.2925.0587.0878.0587.117.0292.0585.2046-.2084,0,.1463l-1.5317,5.1105h-.0292l-.0879-.0292-.1754-.0585-.3545-.117-.7055-.2047c-.9103-.2632-1.8242-.5593-2.7053-.8224-1.7948-.5594-3.4983-1.0894-5.1762-1.5866-3.3522-1.06-6.4705-2.0288-9.4132-2.9391-5.8527-1.879-10.8827-3.5569-15.2075-5.0557-8.6747-3.0232-14.5017-5.4067-18.4132-7.3441-7.8231-3.8786-7.8815-6.0245-7.2345-8.1996v-.0292Z"/>
  <path class="cls-1" d="M645.1078,494.2506c.647,2.1459-.7055,3.9078-9.2671,7.2308-4.2953,1.6743-10.3818,3.7324-18.9142,6.4339-4.2915,1.3233-9.1754,2.8221-14.7358,4.5549-2.7928.8517-5.7648,1.7328-8.9123,2.7014-1.5864.4716-3.2058.9724-4.8509,1.4696-.8262.2669-1.6781.5008-2.5297.764l-.647.2084-.3253.0878-.1756.0585.5301-.1755c1.9411-.7347,3.4693-3.1145,3.3522-5.0557.0292-1.9704-1.2356-4.2588-3.5313-5.1143h.0915l.0292.0586c.1169.0621-.9724-.3217-.4717-.1755l.1756.0585.3253.0878.647.2083c.8517.2633,1.7035.4972,2.5297.7641,1.6743.4971,3.2937.9979,4.8509,1.4696,3.1476.9394,6.1195,1.8497,8.9123,2.7014,5.5896,1.7328,10.4735,3.2316,14.7358,4.5549,8.5616,2.7015,14.6481,4.7596,18.9142,6.4047,8.5616,3.3229,9.9141,5.0849,9.2671,7.2308-.647,2.1422-1.8827,3.9078-10.5612,2.8477-4.3245-.5265-10.5282-1.762-19.4405-3.9955-4.4414-1.115-9.5922-2.4968-15.5033-4.1419-2.9427-.8518-6.116-1.7328-9.4717-2.7051-1.6743-.4971-3.4108-.998-5.2056-1.528-.8811-.2632-1.795-.5265-2.7343-.7933l-1.9119-.5885-.2376-.0878c-.5263-.2339-1.0565-.4971-1.5282-.8518-.7055-.5263-1.2941-1.1149-1.824-1.7912-.998-1.3818-1.4697-2.9976-1.4697-4.5841-.1754-3.0853,2.3836-6.6094,5.3812-7.4355l1.561-.4679c.9101-.267,1.824-.5301,2.7343-.7933,1.7948-.53,3.5313-1.0309,5.2056-1.528,3.3522-.9688,6.5325-1.8534,9.4717-2.7051,5.9109-1.6451,11.0288-3.0269,15.4997-4.1419,8.9123-2.2335,15.0903-3.4655,19.4441-3.9955,8.6785-1.0602,9.9141.7055,10.5612,2.8514l.0292-.0914Z"/>
  <path class="cls-1" d="M617.3324,585.7284c-1.5866,1.5866-4.617.4131-15.825-9.7532-1.3818-1.2941-2.9099-2.7051-4.5878-4.2624l-1.2649-1.2027-.0877-.0914.5007.4423c.351.2632.7642.4716,1.2028.6178.8552.2924,1.7948.3509,2.6795.0877.4387-.117.8811-.3217,1.2941-.5593l.5886-.4388h-.0292s-.2376.2633.2046-.1498l-.0877.1206-.6763.7055-1.3818,1.4367c-3.7946,3.9078-8.2068,8.4335-13.3868,13.7524l-.9688.998-.5009.5008-.2631.2633c-.4424.4423-.9139.8224-1.4733,1.1478-2.1458,1.3233-4.8803,1.5865-7.2637.6178-.647-.2669-1.06-.4716-1.795-1.0017l-.6178-.4971-.38-.3547-.5301-.5263c-1.411-1.3819-2.8551-2.8221-4.3832-4.321-3.0012-2.9684-6.2072-6.1707-9.6178-9.5484-.8554-.8518-1.7071-1.7072-2.5882-2.5882l-.3253-.3216s.647.5885,1.0308.764c.9103.53,1.9704.7641,2.9684.647,1.0895-.1463,1.8827-.3547,3.0012-1.3233l-.4387.4423c-1.7948,1.8204-3.6775,3.6702-5.5894,5.5821-1.9119,1.9082-3.8823,3.8785-5.9147,5.9367-1.0272,1.0272-2.0581,2.0544-3.0853,3.0816l-1.5902,1.5902-1.0603,1.0272c-1.4695,1.3526-3.4983,2.1166-5.4979,2.1166s-4.0322-.7641-5.5017-2.1166l-1.0308-1.0272-1.5866-1.5902c-1.06-1.0565-2.0873-2.0836-3.0889-3.0816-2.0291-2.0288-3.9994-3.9992-5.9111-5.9367-1.9119-1.9119-3.7654-3.7909-5.5896-5.5821l-.3253-.3547s-.5556-.53.0623.0293c.7932.6763,1.8204,1.0893,2.8513,1.1771,1.031.0877,2.0875-.1463,2.9722-.647,1.7656-1.2941.7347-.5886.6763-.4423-.8847.881-1.7365,1.7364-2.5882,2.5882-3.4144,3.3777-6.6204,6.5508-9.6181,9.5484-1.5023,1.4988-2.972,2.9391-4.383,4.3208l-.5301.5265s-.6178.6178-1.0893.9394c-.5301.3839-1.0857.6764-1.6743.9139-2.3834.9688-5.1215.7056-7.2673-.6177-2.2337-1.6451-1.6781-1.4988-2.2044-1.9119l-.9724-.998c-5.1472-5.2896-9.5886-9.8445-13.3832-13.7524l-1.3818-1.4402-.6763-.7019c-.3253-.3253.2925.2925.647.4679.4094.2669.8224.4423,1.2941.5594.8809.2339,1.824.2047,2.6759-.0878.4715-.1754.7347-.2961,1.2941-.7055.4422-.3545.3253-.2961.2338-.2047.384-.3838,0,0,.0623-.0585l-1.2941,1.2027c-1.6779,1.5573-3.206,2.9683-4.5914,4.2624-11.2044,10.1663-14.2351,11.3397-15.8253,9.7532-1.5864-1.5865-2.2334-3.8494,6.7666-14.9259,1.148-1.3526,2.4128-2.8806,3.8531-4.5841.7347-.8224,1.5025-1.7035,2.2957-2.643l.6178-.7055c.3802-.3254-.1169-.1499,1.5866-1.4111,2.3541-1.528,5.7355-1.411,8.0312.5886,4.5293,4.0541,8.8246,8.0496,14.4433,13.3393.6763.647,1.382,1.3233,2.0875,1.996l1.0893,1.0308.5556.5265.2671.2669c-1.4697,1.4404,3.3229-3.1438-3.2645,3.2023h.0292l.0585.1169h-.0585v-.0292l-3.2937-3.29h.0292l.1461-.1755.5594-.5593c.7347-.7641,1.4695-1.528,2.2334-2.3213,3.0599-3.1439,6.3536-6.5253,9.8849-10.1663.8809-.9102,1.7948-1.8241,2.7051-2.7636l1.3818-1.4111.5886-.5849.1754-.1498.7385-.5557c.4094-.2961.764-.4716,1.1734-.6763,1.6194-.7347,3.4436-.9394,5.18-.5594.8519.2047,1.7035.5301,2.4713.998.6763.3547,1.7035,1.3818,1.5866,1.2649l.7347.7347,1.4695,1.4696c1.0016.9687,2.0034,1.9667,3.0304,2.9976,2.0583,2.0252,4.1784,4.1418,6.3536,6.2876,1.0893,1.0857,2.208,2.1751,3.3229,3.29l1.7071,1.7035.8519.8518c-7.2929,7.0808-1.9996,1.9996-3.6154,3.5861l.0585.0585h-.0585v-.0292l-3.619-3.6153.8517-.8518,1.7073-1.7035c1.1185-1.1149,2.2372-2.2043,3.3229-3.29,2.1788-2.1751,4.2953-4.2625,6.3534-6.2876,1.0308-1.0309,2.0326-1.9996,3.0304-2.9976l1.4697-1.4696.7383-.7347s.5558-.647,1.5866-1.2649c.764-.4679,1.6194-.8225,2.4713-.998,1.7363-.3801,3.5606-.2047,5.1762.5594.7934.3802,1.561.881,2.1788,1.4696l.4971.4971,1.3856,1.4111c.9103.9394,1.8204,1.8534,2.7051,2.7636,3.5278,3.6118,6.8215,7.0224,9.8811,10.1663.764.7933,1.5025,1.5573,2.2372,2.3213l.5594.5593.1461.1463h.0292c-6.6494,6.4924-1.824,1.8497-3.2937,3.29l.0585.0877h-.0585v-.0292l-3.2352-3.29.2633-.2669.5594-.5265,1.0893-1.0308c.7055-.6726,1.411-1.3489,2.0873-1.9959,5.5896-5.2897,9.9726-9.3437,14.385-13.2809,2.3798-2.0873,5.7063-2.1458,8.0861-.6177.4715.2339,1.3526,1.1149,1.2941,1.0565l.3253.3545.6178.7055c.7932.9103,1.5574,1.7913,2.2921,2.6431,1.4146,1.7034,2.7087,3.2316,3.8528,4.5841,9.0038,11.0765,8.3568,13.31,6.7666,14.9258l-.0877-.0292Z"/>
</svg>