<?xml version="1.0" encoding="UTF-8"?>
<svg id="Expressions" xmlns="http://www.w3.org/2000/svg" viewBox="0 0 1080 1080">
  <defs>
    <style>
      .cls-1 {
        fill: #ff7b7b;
      }

      .cls-2 {
        fill: #5d359b;
      }
    </style>
  </defs>
  <path class="cls-2" d="M643.0222,474.439c5.4834-13.4161-.9576-28.7331-14.3884-34.2129-13.4307-5.4761-28.7622.9577-34.2457,14.3739-5.4834,13.416.9576,28.733,14.3884,34.2127,13.4307,5.4762,28.7622-.9577,34.2457-14.3738Z"/>
  <path class="cls-2" d="M599.1806,569.5579c0,11.8149-2.3541,23.0084-6.4997,32.8529-6.0316-7.9912-15.5618-13.1931-26.3276-13.1931s-20.2047,5.169-26.2655,13.1054c-5.9696-7.9364-15.4997-13.1054-26.2655-13.1054s-20.3544,5.169-26.3278,13.2516c-4.1454-9.8445-6.4997-21.0673-6.4997-32.9406,0-39.8718,26.4739-72.1361,59.093-72.1361s59.0928,32.2643,59.0928,72.1361v.0292Z"/>
  <path class="cls-1" d="M540.0804,602.3523c6.0318-7.9327,15.5035-13.1054,26.2691-13.1054s20.2959,5.1727,26.3242,13.1931c-9.7934,23.3594-29.6799,39.2868-52.5933,39.2868s-42.7961-15.9275-52.5895-39.2284c5.9696-8.0789,15.5582-13.2516,26.324-13.2516s20.2959,5.1727,26.2655,13.1054Z"/>
  <path class="cls-2" d="M461.2874,490.8417c14.5091,0,26.2693-11.7492,26.2693-26.24s-11.7602-26.24-26.2693-26.24-26.2655,11.7455-26.2655,26.24,11.7602,26.24,26.2655,26.24Z"/>
</svg>