<?xml version="1.0" encoding="UTF-8"?>
<svg id="Expressions" xmlns="http://www.w3.org/2000/svg" viewBox="0 0 1080 1080">
  <defs>
    <style>
      .cls-1 {
        fill: #87e3ff;
      }

      .cls-2 {
        fill: #5d359b;
      }
    </style>
  </defs>
  <path class="cls-2" d="M448.8563,497.255c2.0592,0,4.0003,1.2355,3.1767,8.2288-.5882,3.4069-2.0588,8.4042-6.6474,13.6939-2.265,2.6137-5.3533,5.2859-9.4125,7.3734-2.0296,1.0271-4.2946,1.9704-6.7947,2.5552-1.1767.3547-2.6474.5886-4.1473.7641-1.5884.2376-2.3239.1498-3.5887.2669-12.3245-.117-20.0309-5.7905-24.6194-10.9595-4.5885-5.2897-6.0592-10.287-6.6477-13.6939-.2939-1.6743-.2939-3.2608-.1762-4.438.0589-1.2941.4412-1.7328.7059-2.3212.647-1.0272,1.5295-1.3527,2.647-1.4111,1.1179-.0585,2.2062,0,3.2063.7347.5001.3547.9998.9103,1.4707,1.6743.5589.6763,1.0294,1.3526,1.6176,2.3506,1.1767,2.0288,2.7943,4.851,5.8241,8.0533,1.5884,1.5573,3.5591,3.1438,6.1476,4.4671,2.4412,1.2905,6.0884,2.1715,9.1182,2.2629,8.1772-.1499,12.7069-3.6447,15.9425-6.7008,3.059-3.2023,4.6474-6.0245,5.8237-8.0496,2.2946-4.1162,3.9415-4.8802,6.3242-4.8217l.0292-.0292Z"/>
  <path class="cls-2" d="M606.4295,497.255c2.0592,0,4.0003,1.2355,3.1767,8.2288-.5882,3.4069-2.0588,8.4042-6.6473,13.6939-2.265,2.6137-5.3533,5.2859-9.4125,7.3734-2.0296,1.0271-4.2946,1.9704-6.7947,2.5552-1.1767.3547-2.6474.5886-4.1473.7641-1.5884.2376-2.3239.1498-3.5887.2669-12.3245-.117-20.0309-5.7905-24.6194-10.9595-4.5885-5.2897-6.0592-10.287-6.6477-13.6939-.2939-1.6743-.2939-3.2608-.1766-4.438.0589-1.2941.4412-1.7328.7063-2.3212.647-1.0272,1.5295-1.3527,2.647-1.4111,1.1179-.0585,2.2062,0,3.2063.7347.5001.3547.9998.9103,1.4707,1.6743.5589.6763,1.0294,1.3526,1.6176,2.3506,1.1768,2.0288,2.7943,4.851,5.8241,8.0533,1.5884,1.5573,3.5591,3.1438,6.1476,4.4671,2.4412,1.2905,6.0884,2.1715,9.1182,2.2629,8.1772-.1499,12.7069-3.6447,15.9425-6.7008,3.059-3.2023,4.6474-6.0245,5.8238-8.0496,2.2943-4.1162,3.9415-4.8802,6.3242-4.8217l.0293-.0292Z"/>
  <path class="cls-2" d="M598.3725,425.3382c-37.4736.9687-39.3855,4.1126-39.3855,7.8449,0,3.0269,3.3533,4.321,23.6785,4.8473-2.7355,2.7052-5.5887,5.5566-8.7066,8.6419-7.736,7.7572-14.2072,14.2788-19.6485,19.7439l-.0588.0585c-1.1768,1.2064-1.9119,2.8514-1.8826,4.6719.0296,3.6153,3.0002,6.5253,6.6181,6.4959,34.5027-.2961,39.3855-1.3818,39.3855-5.0849,0-3.1438-1.4414-5.849-24.3255-7.2271,2.912-2.8514,5.9711-5.8782,9.3536-9.256,7.9418-7.9363,14.5011-14.6334,19.4723-19.8938l.2647-.2632c1.0883-1.1772,1.7353-2.7345,1.7057-4.4672-.0881-3.4692-2.9705-6.1999-6.4415-6.1122h-.0293Z"/>
  <path class="cls-2" d="M683.7203,372.851c-68.7111.9688-72.2114,4.1126-72.2114,7.8449,0,3.3486,7.5594,4.5549,56.3867,4.968-7.4417,7.4026-15.6778,15.6314-25.0022,24.8873-14.1776,14.2204-26.0901,26.1486-36.0615,36.1394h-.0293c-1.1767,1.2355-1.9122,2.8806-1.9122,4.701,0,3.6154,2.9709,6.5546,6.5889,6.5253,63.2694-.2924,72.2114-1.3818,72.2114-5.0849,0-3.4071-3.0002-6.3461-56.9456-7.5488,7.4713-7.3185,15.9425-15.7227,25.5315-25.3004,14.5892-14.5749,26.649-26.77,35.8849-36.2892l.1473-.1463c1.1175-1.1478,1.7942-2.7343,1.7645-4.4671-.0588-3.4655-2.9117-6.2584-6.4119-6.2l.0588-.0292Z"/>
  <path class="cls-2" d="M585.2536,608.7364c0,13.7816-10.383,26.2399-25.1487,26.2399-18.0602,0-27.6492-6.5508-60.2104-6.5508-27.7669,0-38.4149,4.7888-52.5336,6.1707-2.4412.2632-4.912.3801-7.6771.3801-15.1774,0-25.1487-12.4583-25.1487-26.2399,0-39.1662,47.2681-59.0308,85.3595-59.0308s85.3592,19.8645,85.3592,59.0308Z"/>
  <path class="cls-1" d="M499.8868,628.4291v52.4799c0,14.4872-11.7656,26.24-26.267,26.24s-26.2666-11.7528-26.2666-26.24v-46.3092c14.1187-1.3818,24.7667-6.1706,52.5336-6.1706Z"/>
</svg>