<?xml version="1.0" encoding="UTF-8"?>
<svg id="Expressions" xmlns="http://www.w3.org/2000/svg" viewBox="0 0 1080 1080">
  <defs>
    <style>
      .cls-1 {
        fill: #5d359b;
      }
    </style>
  </defs>
  <path class="cls-1" d="M486.4088,582.5987c-2.3835,0-3.2937-1.1186-5.0009-5.2604-.9687-1.9996-2.1751-4.9059-5.1179-7.9619-2.8514-2.9976-7.6767-6.2291-14.648-6.3498-6.9713.1207-11.793,3.3522-14.648,6.3498-2.9428,3.0269-4.1747,5.9331-5.1179,7.9619-.9102,2.0288-1.4695,2.9976-2.2335,4.2002-.7384.9725-1.6487,1.2064-2.7673,1.148-1.1186-.0586-2.2043-.2047-3.1182-1.0565-.4679-.4131-.9103-1.0017-1.2941-1.8242-.2925-.9102-.5885-2.2628-.5885-3.9078-.0585-3.173.8262-8.0789,4.8839-13.8693,3.9992-5.5237,12.2938-12.1951,24.8837-12.3414,12.6191.1463,20.8845,6.8177,24.8837,12.3414,4.0614,5.7904,4.9424,10.6963,4.8839,13.8693-.0585,3.2316-.9431,4.8766-1.8826,5.7321-.9395.8518-1.9996.9394-3.1475.9394l.0292.0292Z"/>
  <path class="cls-1" d="M643.9837,582.5987c-2.3834,0-3.2973-1.1186-5.0009-5.2604-.9724-1.9996-2.1787-4.9059-5.1178-7.9619-2.8551-2.9976-7.6768-6.2291-14.648-6.3498-6.9712.1207-11.7967,3.3522-14.648,6.3498-2.9427,3.0269-4.1784,5.9331-5.1178,7.9619-.9139,2.0288-1.4732,2.9976-2.2372,4.2002-.7348.9725-1.6487,1.2064-2.7637,1.148-1.1186-.0586-2.2079-.2047-3.1182-1.0565-.4716-.4131-.9139-1.0017-1.2941-1.8242-.2961-.9102-.5885-2.2628-.5885-3.9078-.0585-3.173.8225-8.0789,4.8803-13.8693,4.0029-5.5237,12.2975-12.1951,24.8874-12.3414,12.6155.1463,20.8808,6.8177,24.8837,12.3414,4.0577,5.7904,4.9424,10.6963,4.8803,13.8693-.0585,3.2316-.9395,4.8766-1.8826,5.7321-.9395.8518-1.9996.9394-3.1438.9394l.0292.0292Z"/>
  <path class="cls-1" d="M633.2801,623.1468c1.2941,1.6743,0,5.0228-12.0306,12.2828-6.0573,3.4947-14.9405,7.8157-28.0312,11.8113-6.4997,2.0544-14.118,3.7908-22.8841,5.2604-8.6492,1.4073-19.1773,2.2299-29.7091,2.3506-22.7671-.1792-39.8534-3.6154-52.9734-7.6402-13.0615-3.9956-21.9446-8.3166-28.0312-11.815-12.0014-7.1979-13.4124-10.6634-12.0306-12.2499,1.4696-1.9119,3.1475-2.409,14.5311,2.2043,5.7356,2.1714,14.001,5.6406,26.4995,9.1061,6.2657,1.7364,13.5916,3.3814,22.1493,4.7888,8.503,1.2649,18.6216,2.1751,29.4752,2.2921,11.8807-.117,21.06-1.0272,29.8261-2.2921,8.5578-1.3781,15.8836-3.0524,22.1457-4.7888,12.5022-3.4947,20.7675-6.9347,26.5032-9.1061,11.3836-4.6426,13.0615-4.1162,14.5311-2.2335l.0292.0292Z"/>
  <path class="cls-1" d="M677.5971,457.0286l-.117-.9979c-.0585-.5009-.351-1.528-.6178-2.2629-1.1771-2.9391-2.5297-4.2916-4.0285-5.7612-5.8818-5.169-12.206-7.4318-19.1188-9.8116-13.7963-4.4672-29.9138-7.3478-48.7695-9.5814-18.852-2.1422-40.3543-3.4363-65.0332-3.4655-24.5328.0877-52.2387,1.0565-83.1834,5.8745-7.7353,1.2355-15.2658,2.7636-22.5916,4.6426-7.3222,1.9996-14.4104,4.1162-21.4694,8.141-1.7657.998-3.5606,2.2921-5.3262,3.8786-1.7328,1.7328-3.6447,3.9078-4.5878,7.4355-.1755.9103-.2925,1.8206-.3509,2.7308,0-.0585.117,1.9411.0585,1.1478v.1463l.0585.2924.0877.6178c.0292.7641,1.2064,4.1126,1.9411,4.9059,1.5866,2.4383,3.3814,3.9371,5.0301,5.1727,6.7628,4.7303,13.0286,6.6714,19.2066,8.6089,12.2645,3.6154,23.7944,5.5529,34.5601,7.081,10.8242,1.4988,20.9138,2.4675,30.3562,3.1438,37.7405,2.559,64.8286,1.3233,84.0936-.1169,5.4725-.4387,10.2394-.9102,14.5311-1.4111h.1207c3.4107-.2924,30.7071-3.6995,36.8522-5.0228,6.1488-1.5573,30.74-6.5545,40.5041-12.429,2.3542-1.7035,5.3262-3.7031,7.1759-8.5212.2376-.5301.3254-1.2941.4423-1.9411l.117-1.0272.0585-.53-.0585-.998.0585.0585ZM415.49,458.5859c-.3802.3254-.2925-.2632-.4716-.3509l-.0877-.1792.2961.0878c.7055.1791.4387.2083.5008.1498l.1463-.1755v.0585s0,.2925-.3838.4388v-.0293ZM666.8934,458.1436c.1463.4716-1.1478,2.2043-2.7965,3.3522-1.645,1.232-3.4984,2.3212-5.3811,3.2608-7.5305,3.7031-10.795,4.5257-15.7374,6.1706l-.6178.2047c-17.09,4.2625-40.3871,6.7592-58.2119,7.3186-17.7955.4387-43.9148,1.2026-81.7102-1.3819-18.7971-1.4987-40.8843-3.4069-64.8577-9.4606-5.8819-1.5865-12.0599-3.4984-17.1485-6.2584-1.2356-.6763-2.4127-1.411-3.2937-2.1459-.5008-.3545-.7055-.7055-1.0893-.9979l-.117-.2084c.2632-.3217.8518-.9102,1.6158-1.528,4.3831-3.1439,11.5006-5.6114,18.534-7.5488,7.1759-1.9411,14.8527-3.4984,22.8219-4.7925,32.0633-4.9643,61.034-5.8745,86.3601-5.9038,25.3553.0877,47.2707,1.4695,65.9764,3.7031,18.618,2.292,34.4431,5.1983,46.152,9.7824,2.8807,1.1478,5.498,2.4675,7.3222,3.8494.8847.6763,1.5902,1.3818,1.8826,1.8241,0-.3839.4716.764.2961.7347v.0257Z"/>
</svg>