<?xml version="1.0" encoding="UTF-8"?>
<svg id="Expressions" xmlns="http://www.w3.org/2000/svg" viewBox="0 0 1080 1080">
  <defs>
    <style>
      .cls-1 {
        fill: #ff7b7b;
      }

      .cls-2 {
        fill: #5d359b;
      }

      .cls-3 {
        fill: #fff;
      }
    </style>
  </defs>
  <path class="cls-2" d="M434.9937,432.0807c.647-2.1422,2.7636-2.8769,11.91-.881,4.5586,1.0017,10.8827,2.6467,19.6489,5.1435,4.3831,1.2649,9.3839,2.7343,15.0611,4.3794,2.8514.8518,5.8527,1.7328,9.0586,2.7014,1.5902.4716,3.2645.9688,4.9425,1.4696.8518.2632,1.7071.5008,2.5881.7641l1.3233.3838.3254.0878c.2924.1169-.3547-.1792,1.2941.4679,2.5004,1.1186,4.2332,4.0249,4.1161,6.5545-.1169,2.6137-1.1771,5.2567-4.5877,6.7555l-1.1772.3839-1.3233.3802c-.881.2669-1.7364.53-2.5882.764-1.7071.5009-3.3522,1.0017-4.9423,1.4696-3.2059.9431-6.2364,1.8534-9.0586,2.7051-5.7064,1.6451-10.7072,3.1147-15.0611,4.3758-8.7662,2.5004-15.0903,4.1455-19.6489,5.1434-9.1463,1.9704-11.2666,1.2649-11.9136-.881s-.5557-4.321,7.4136-8.2288c3.97-1.9667,9.9432-4.3757,18.7386-7.4318,4.4123-1.528,9.5301-3.2316,15.4705-5.1434,2.9721-.9396,6.1488-1.9376,9.5595-2.9976,1.7071-.5265,3.4692-1.0565,5.2641-1.6158.9139-.2632,1.8241-.5593,2.7673-.8225l1.411-.4094.351-.1206.1792-.0585h.0877c.7641,2.5296-1.6194-5.7284,1.7035,5.6735h.0621v.1169c-3.4143,11.369-.9724,3.1439-1.7364,5.6699h-.0877l-.1792-.0878-.3509-.1169-1.4111-.4131c-.9431-.2925-1.8534-.5557-2.7673-.8225-1.8241-.5557-3.5569-1.0857-5.2641-1.6158-3.4107-1.0564-6.5874-2.0544-9.5594-2.9975-5.9404-1.9082-11.0583-3.6118-15.4706-5.1398-8.8246-3.0853-14.7686-5.4651-18.7386-7.4355-7.9692-3.9371-8.0569-6.0829-7.4099-8.2288v.0585Z"/>
  <path class="cls-2" d="M645.107,434.965c.647,2.1459-.7347,3.9078-9.4425,7.2857-4.3501,1.6743-10.5574,3.7616-19.2358,6.5253-4.3538,1.3489-9.3254,2.8769-14.9989,4.6426-2.8551.8518-5.8562,1.762-9.0623,2.7308-1.5865.4716-3.2351.9687-4.9387,1.4988-.8554.2632-1.7072.5008-2.5919.764l-1.3233.3839-.3216.0877s-.7933.3217.647-.2669c2.0873-.9102,3.5276-3.3777,3.4398-5.4359-.1169-2.1422-.9102-4.3173-3.8822-5.6406h.0877s-.9687-.2924-.4679-.1463h.0292l.1755.0586.3216.0877,1.3233.3802c.8847.2669,1.7364.53,2.5919.7641,1.7035.5008,3.3522,1.0016,4.9387,1.4987,3.206.9725,6.2072,1.8827,9.0623,2.7345,5.6772,1.762,10.6452,3.29,14.9989,4.6426,8.7077,2.7308,14.8857,4.8181,19.2359,6.5216,8.7076,3.3815,10.1186,5.1435,9.4424,7.2893-.647,2.1459-1.9118,3.9078-10.7072,2.8185-4.4123-.5557-10.7037-1.8206-19.7659-4.0833-4.5292-1.1442-9.7349-2.5261-15.7629-4.2296-3.0013-.8517-6.2072-1.7656-9.6216-2.7636-1.7035-.5008-3.4692-1.0272-5.2933-1.5573-.9102-.2633-1.8241-.5301-2.7636-.8225l-1.4111-.4094-1.2355-.4131c-2.6211-.881-4.7962-4.0541-4.6207-6.7884-.1463-2.7308,1.9704-5.9038,4.6499-6.7884l1.2063-.3802,1.4111-.4131c.9394-.2632,1.8534-.5557,2.7636-.8225,1.8241-.5263,3.5898-1.0565,5.2933-1.5573,3.4144-.9687,6.6203-1.9082,9.6216-2.76,5.9988-1.6742,11.2337-3.0853,15.7629-4.2332,9.0623-2.2921,15.3536-3.5533,19.7659-4.0833,8.8246-1.0857,10.0602.647,10.7072,2.8221l-.0292.0585Z"/>
  <path class="cls-3" d="M461.9684,499.1136h155.3048c8.2068,0,14.3556,7.4355,12.9737,15.5145-.6177,3.6446-1.4695,7.2308-2.5004,10.7255h-176.2185c-1.0602-3.4947-1.8827-7.081-2.5005-10.7255-1.3818-8.079,4.7633-15.5145,12.9701-15.5145h-.0292Z"/>
  <path class="cls-2" d="M451.528,525.3536h176.2222c-5.3848,17.8942-16.0336,33.5292-30.1515,44.9859-4.2624-13.5733-20.0875-18.7459-31.7087-18.7459-10.7658,0-20.2959,5.1726-26.2655,13.1053-5.9697-7.9327-15.4999-13.1053-26.2655-13.1053-11.6212,0-27.3257,5.1726-31.6503,18.5704l-.5885-.2047c-13.9132-11.4018-24.3537-26.887-29.6215-44.6057h.0293Z"/>
  <path class="cls-1" d="M539.6245,564.7281c5.9696-7.9327,15.4997-13.1053,26.2655-13.1053,11.6174,0,27.4426,5.1726,31.7087,18.7459.7348,2.2335,1.1186,4.7304,1.1186,7.4647v13.1054c0,32.586-26.4739,59.0307-59.0928,59.0307s-59.0929-26.4447-59.0929-59.0307v-13.1054c0-2.8221.3802-5.3773,1.1771-7.6694,4.3246-13.3686,20.0291-18.5704,31.6466-18.5704,10.7657,0,20.2959,5.1726,26.2692,13.1053v.0292Z"/>
  <path class="cls-1" d="M538.1292,610.617c4.5001,0,8.174-1.1478,8.174-27.5049,0-12.663-.8518-19.4807-2.2337-23.1546-1.6194,1.4402-3.1182,3.0269-4.4415,4.7632-1.5902-2.1165-3.4398-4.0284-5.5016-5.7027-.9396,3.4984-1.1443,10.4623-1.1443,24.0941,0,24.5072.647,27.5049,5.1764,27.5049h-.0293Z"/>
</svg>