<?xml version="1.0" encoding="UTF-8"?>
<svg id="Expressions" xmlns="http://www.w3.org/2000/svg" viewBox="0 0 1080 1080">
  <defs>
    <style>
      .cls-1 {
        fill: #ff7b7b;
      }

      .cls-2 {
        fill: #5d359b;
      }

      .cls-3 {
        fill: #fff;
      }
    </style>
  </defs>
  <path class="cls-3" d="M462.387,503.9688h155.3048c8.2068,0,14.3262,7.4355,12.97,15.5145-.6177,3.6446-1.4695,7.2308-2.4967,10.7255h-176.2222c-1.0565-3.4947-1.8827-7.081-2.5005-10.7255-1.3818-8.079,4.767-15.5145,12.9738-15.5145h-.0292Z"/>
  <path class="cls-2" d="M644.4033,457.2904c3.2426-14.1253-5.5931-28.203-19.7329-31.4382-14.1399-3.2389-28.2287,5.5857-31.4712,19.711-3.2425,14.1252,5.5931,28.203,19.733,31.4418,14.1398,3.2352,28.2322-5.5894,31.471-19.7146Z"/>
  <path class="cls-2" d="M451.9173,530.2087h176.2223c-5.3848,17.8942-16.0336,33.5255-30.1515,44.9859-4.2661-13.5733-20.0912-18.7459-31.7088-18.7459-10.7657,0-20.2959,5.1726-26.2655,13.1053-5.9733-7.9327-15.4997-13.1053-26.2655-13.1053-11.6211,0-27.3257,5.1726-31.6502,18.5704l-.5886-.2047c-13.9132-11.4018-24.3536-26.887-29.6214-44.6057h.0292Z"/>
  <path class="cls-2" d="M461.7875,477.7727c14.5054-.329,25.995-12.3414,25.666-26.8286-.329-14.4871-12.3523-25.9658-26.8577-25.6368-14.5018.3291-25.9914,12.3414-25.6624,26.8286.329,14.4871,12.3523,25.9658,26.8541,25.6368Z"/>
  <path class="cls-1" d="M540.0394,569.576c5.9733-7.9327,15.5034-13.1054,26.2692-13.1054,11.6174,0,27.4426,5.1727,31.7087,18.746.7348,2.2335,1.1149,4.7303,1.1149,7.4647v13.1053c0,32.5861-26.4702,59.0308-59.0928,59.0308s-59.0929-26.4447-59.0929-59.0308v-13.1053c0-2.8221.3839-5.3774,1.1771-7.6694,4.3246-13.3686,20.0328-18.5705,31.6503-18.5705,10.7657,0,20.2959,5.1727,26.2655,13.1053v.0293Z"/>
  <path class="cls-1" d="M538.5443,615.4721c4.5,0,8.1776-1.1478,8.1776-27.5049,0-12.663-.8518-19.4807-2.2337-23.1546-1.6194,1.4402-3.1182,3.0269-4.4415,4.7596-1.5902-2.113-3.4435-4.0249-5.5017-5.6992-.9431,3.4984-1.1478,10.4623-1.1478,24.0941,0,24.5072.647,27.5049,5.1764,27.5049h-.0292Z"/>
</svg>