<?xml version="1.0" encoding="UTF-8"?>
<svg id="Expressions" xmlns="http://www.w3.org/2000/svg" viewBox="0 0 1080 1080">
  <defs>
    <style>
      .cls-1 {
        fill: #5d359b;
      }
    </style>
  </defs>
  <path class="cls-1" d="M644.5094,515.5904c2.8551-14.2094-6.3609-28.0386-20.5849-30.8899-14.2201-2.8551-28.0641,6.3535-30.9192,20.5628-2.8548,14.2058,6.3609,28.0349,20.5811,30.8899,14.2239,2.8514,28.0679-6.3572,30.9229-20.5628Z"/>
  <path class="cls-1" d="M479.8132,529.0357c10.2577-10.2466,10.2577-26.8614,0-37.1081-10.2576-10.2466-26.8906-10.2466-37.1482,0-10.2576,10.2467-10.2576,26.8615,0,37.1081,10.2576,10.2467,26.8906,10.2467,37.1482,0Z"/>
  <path class="cls-1" d="M577.9443,595.7542c-2.4711.0292-3.1181-1.7072-5.4395-8.6418-1.3526-3.3486-3.2352-8.2251-8.0899-13.3686-4.8216-5.052-12.4401-10.5172-24.7081-10.6963-5.0595.0877-10.5575,1.528-14.4397,3.5276-4.0614,2.0288-7.1797,4.6134-9.5923,7.1686-4.8511,5.1141-6.7337,9.9908-8.0862,13.3686-1.2941,3.4106-1.8535,5.2312-2.6467,6.9346-.7678,1.4696-1.678,1.8242-2.7966,1.7657-1.1186-.0585-2.1751-.2669-3.1182-1.4987-.4716-.6178-.881-1.4696-1.2649-2.676-.2339-1.2904-.4679-3.173-.3216-5.4651.2339-4.4671,1.7328-11.3104,7.589-19.3345,5.9404-7.6694,17.0279-16.8961,35.3535-17.1302,1.9704.1463,3.3229.0293,5.7063.4423,2.2372.2633,4.2368.7056,6.0318,1.232,3.7067.9724,6.9712,2.5004,9.9103,4.087,5.827,3.3485,10.0016,7.4318,13.003,11.3397,5.8525,8.0241,7.3514,14.8674,7.589,19.3345.2046,4.5257-.647,6.9347-1.5902,8.1703-.9103,1.2318-1.9704,1.3818-3.1183,1.3818l.0292.0585Z"/>
</svg>