<?xml version="1.0" encoding="UTF-8"?>
<svg id="Expressions" xmlns="http://www.w3.org/2000/svg" viewBox="0 0 1080 1080">
  <defs>
    <style>
      .cls-1 {
        fill: #5d359b;
      }

      .cls-2 {
        fill: rgba(93, 53, 155, .4);
      }
    </style>
  </defs>
  <path class="cls-1" d="M637.3535,550.4897c10.2577-10.2466,10.2577-26.8614,0-37.1081-10.2575-10.2466-26.8905-10.2466-37.1482,0-10.2575,10.2467-10.2575,26.8615,0,37.1081,10.2577,10.2467,26.8907,10.2467,37.1482,0Z"/>
  <path class="cls-1" d="M461.1972,558.1848c14.5055,0,26.2655-11.7491,26.2655-26.24s-11.76-26.2399-26.2655-26.2399-26.2655,11.7491-26.2655,26.2399,11.76,26.24,26.2655,26.24Z"/>
  <path class="cls-1" d="M617.4744,617.9869c-2.0581,1.3781-3.4983-.1792-12.3522-7.2016-4.5001-3.3486-11.1498-7.8743-21.5316-12.0453-5.2056-2.0581-11.3544-3.9955-18.6181-5.3189-1.824-.3254-3.6775-.6763-5.6186-1.0017-1.9119-.2047-3.8823-.4094-5.9111-.6141-3.8859-.5885-8.9123-.4423-13.7378-.7055-18.4132.2339-33.1782,3.4071-43.3847,7.6694-10.3856,4.1711-17.0022,8.6967-21.5316,12.0453-4.5001,3.4106-6.9712,5.7027-8.7077,6.7592-1.6743,1.0272-2.6759,1.0272-3.6482.4716-1.7328-.9724-3.7616-3.6154,4.0615-13.2553,4.0284-4.6097,10.795-10.9302,22.6465-16.5416,11.8551-5.7283,28.4441-10.3124,51.0652-10.4587,10.2649.1463,20.7638,1.1734,29.0911,3.1145,8.4409,2.0253,15.6461,4.4051,21.4988,7.3441,11.8551,5.6114,18.6216,11.9319,22.6501,16.5416,7.7938,9.6398,5.7942,12.2829,4.0284,13.226"/>
  <path class="cls-2" d="M460.4368,453.2762c-1.4402,0-2.9389.5886-4.6463,2.4967-2.8513,2.6468-5.4725,8.9343-15.5874,15.986-5.1507,3.4071-9.8262,5.1727-13.354,6.5216-3.5606,1.3233-6.0903,2.2921-7.8266,3.2352-3.4398,1.8204-3.7946,3.7287-3.7654,6.0208-.0585,2.2043,1.0018,3.6446,5.6773,3.8493h.8262c2.2627,0,5.2641-.3216,9.1754-1.2904,4.4124-1.1186,10.0895-2.9683,16.6185-7.26,6.4413-4.3173,10.6781-9.0769,13.0907-13.1639,1.3818-1.9667,2.2044-3.82,2.8515-5.4359.647-1.6157,1.2356-2.9391,1.411-4.1418.8847-4.7304-.1169-5.8782-2.2921-6.4631-.7347-.2083-1.4695-.3545-2.208-.3545"/>
  <path class="cls-2" d="M621.682,452.6182c-.4679,0-.9393.0877-1.4695.2376-2.1752.6141-4.0869,1.3489-4.0577,5.933-.0623,2.2921.7932,5.5237,2.9682,9.8445,2.1495,4.321,6.3536,9.5484,13.2663,14.2496,7.0004,4.6134,13.0907,6.2621,17.6493,7.0553,2.2042.351,4.0869.4972,5.7063.4972,1.7365,0,3.1476-.1755,4.2661-.4094,4.4124-1.0602,4.7342-3.2645,4.7342-5.4652-.0585-2.292-.6763-3.4691-4.354-4.6134-1.824-.53-4.383-1.2941-7.9107-2.3212-3.4726-1.1186-7.9143-2.676-12.7359-5.849-9.5304-6.5216-11.7089-12.9884-13.9718-15.8653-1.411-2.4419-2.6174-3.2645-4.0907-3.2645"/>
  <path class="cls-2" d="M540.0926,610.5478c-20.3836.1463-30.6195,4.2295-35.4742,7.1686-4.8509,3.1438-4.3538,5.4359-3.3814,7.4026.764,1.4696,1.5282,2.2628,3.8531,2.2628.8809,0,1.9996-.1169,3.4106-.3509,5.0595-.6763,14.414-3.0561,31.3578-3.1731,17.3532.117,26.4119,2.4968,31.5881,3.1731,1.444.2339,2.559.3509,3.4436.3509,2.3213,0,3.1183-.764,3.8238-2.2628.9978-1.9375,1.4987-4.2295-3.356-7.3734-4.7632-2.9391-15.3244-7.0224-35.2655-7.1686"/>
</svg>