<?xml version="1.0" encoding="UTF-8"?>
<svg id="Expressions" xmlns="http://www.w3.org/2000/svg" viewBox="0 0 1080 1080">
  <defs>
    <style>
      .cls-1 {
        fill: #87e3ff;
      }

      .cls-2 {
        fill: #5d359b;
      }

      .cls-3 {
        fill: rgba(93, 53, 155, .4);
      }
    </style>
  </defs>
  <path class="cls-2" d="M640.6436,499.6202c10.2575-10.2466,10.2575-26.8614,0-37.1081-10.2577-10.2466-26.8907-10.2466-37.1485,0-10.2575,10.2467-10.2575,26.8615,0,37.1081,10.2577,10.2504,26.8907,10.2504,37.1485,0Z"/>
  <path class="cls-1" d="M497.3181,592.5859c0,18.099-14.7065,32.7908-32.8273,32.7908s-32.8275-14.6918-32.8275-32.7908,32.8275-59.0344,32.8275-59.0344c0,0,32.8273,40.9318,32.8273,59.0344Z"/>
  <path class="cls-2" d="M489.9703,486.5515c3.1402-14.1473-5.794-28.1592-19.9559-31.2994-14.1619-3.1402-28.1884,5.7869-31.3322,19.934-3.1402,14.1472,5.7904,28.1592,19.9523,31.2994,14.1655,3.1401,28.192-5.7832,31.3357-19.934Z"/>
  <path class="cls-2" d="M581.5945,541.1552c-1.6158,1.6743-2.8807,1.8206-7.5854-.3802-4.7377-1.8826-13.2955-6.8469-30.74-7.1138-17.4117.2669-25.973,5.2312-30.7364,7.1138-4.7667,2.2592-5.8819,1.9668-7.6182.4094-1.561-1.4987-2.8843-3.6153,1.2941-8.2873,2.1165-2.2335,5.6771-5.1105,11.6467-7.6987,5.9442-2.5845,14.3556-4.8181,25.3846-4.8766,5.2056.0293,10.4733.6178,14.6189,1.4696,4.2074.9688,7.7936,2.0874,10.7656,3.4071,5.9696,2.559,9.5301,5.4359,11.6469,7.6987,4.1784,4.6719,2.8843,6.7886,1.2941,8.258h.0292Z"/>
  <path class="cls-3" d="M543.324,546.5546c-10.1772.1461-15.3244,4.2295-17.737,7.1686-2.4421,3.1438-2.1788,5.4359-1.6781,7.4063.384,1.4695.7642,2.2628,1.9411,2.2628.4424,0,1.0016-.117,1.7073-.3547,2.5295-.6763,7.205-3.0561,15.6789-3.173,8.6747.1169,13.2041,2.4967,15.792,3.173.7093.2376,1.2649.3547,1.7365.3547,1.1477,0,1.561-.7641,1.9119-2.2628.5007-1.9411.7347-4.2333-1.6743-7.377-2.3836-2.9392-7.6477-7.0225-17.6493-7.1686"/>
</svg>