<?xml version="1.0" encoding="UTF-8"?>
<svg id="Expressions" xmlns="http://www.w3.org/2000/svg" viewBox="0 0 1080 1080">
  <defs>
    <style>
      .cls-1 {
        fill: #ff7b7b;
      }

      .cls-2 {
        fill: #5d359b;
      }

      .cls-3 {
        fill: rgba(93, 53, 155, .4);
      }
    </style>
  </defs>
  <path class="cls-2" d="M624.9477,574.5465c0,13.7816-10.382,26.2399-25.147,26.2399-2.7087,0-5.2677-.1169-7.6803-.3802,0-18.1026-14.7065-32.4106-32.8237-32.4106-7.4136,0-14.1766,2.4384-19.7076,6.5509-5.5015-4.1419-12.3557-6.5509-19.7073-6.5509-18.1207,0-32.8273,14.3081-32.8273,32.4106-2.4421.2633-4.9131.3802-7.6767.3802-15.1782,0-25.147-12.4583-25.147-26.2399,0-39.1662,47.267-59.0308,85.3583-59.0308s85.3586,19.8645,85.3586,59.0308Z"/>
  <path class="cls-1" d="M559.2746,567.9591c18.1172,0,32.8237,14.3081,32.8237,32.4106-13.7926-1.4404-24.8837-6.1707-52.5311-6.1707s-38.4167,4.7888-52.5346,6.1707c0-18.1026,14.7065-32.4106,32.8273-32.4106,7.3514,0,14.1764,2.4383,19.7073,6.5508,5.4981-4.1418,12.2645-6.5508,19.7073-6.5508Z"/>
  <path class="cls-2" d="M434.9695,461.5955c1.2941-4.3173,8.649-2.7892,67.1535,14.7212,0,25.5051,0,7.0845-.0292,12.7836h-.0292l-.0879.0292-.1754.0586-.3545.0877-.6763.2047-1.3526.4131c-.8847.2632-1.7658.53-2.6174.7933-1.7365.53-3.4144,1.0271-5.0303,1.4988-3.2645.9687-6.3534,1.8789-9.2376,2.7307-5.8234,1.678-10.9119,3.1768-15.3536,4.4672-8.9416,2.5259-15.3828,4.2332-20.0291,5.2604-9.3253,2.0288-11.4713,1.3233-12.1183-.8225-.647-2.1459-.5591-4.321,7.5854-8.2873,4.0615-1.9959,10.1187-4.4379,19.1225-7.5525,4.5001-1.5573,9.7055-3.29,15.763-5.2275,3.0304-.9394,6.2949-1.9704,9.7385-3.0561,1.7328-.53,3.5275-1.0894,5.381-1.6451.9139-.2961,1.8535-.5593,2.8258-.8518l1.4402-.4422.7347-.2047.3545-.117.1756-.0621h.0877l.0585-.0292c0,5.6735.0292-12.7508.0585,12.7544-62.9167-18.8629-64.5909-23.1838-63.2968-27.5047h-.0913Z"/>
  <path class="cls-2" d="M645.0754,464.4689c1.2941,4.3208-5.6771,7.0808-64.1815,24.6241,0-25.4759,0-7.0517.0292-12.7545h.0292l.0879.0292.1789.0586.351.0914.6763.2047,1.3563.4094c.8809.2669,1.762.53,2.6174.7933,1.7328.53,3.4106,1.0308,5.03,1.528,3.2645,1.0016,6.3206,1.9118,9.2341,2.7928,5.765,1.7913,10.8535,3.3486,15.2951,4.7304,8.8539,2.7929,15.178,4.9059,19.6197,6.6423,8.8831,3.4363,10.2941,5.1983,9.6471,7.344-.647,2.1459-1.9119,3.9078-10.8827,2.7637-4.5001-.5886-10.9119-1.8826-20.1206-4.2039-4.617-1.1735-9.9103-2.5845-16.0591-4.3173-3.0597-.881-6.3241-1.8241-9.8224-2.8221-1.7365-.5008-3.5313-1.0272-5.3848-1.5865-.9103-.2633-1.8535-.5594-2.822-.8225l-1.4405-.4423-.7383-.2047-.351-.117-.1792-.0585h-.0877l-.0585-.0292c0-5.6991-.0292,12.7216-.0585-12.7837,62.9167-18.8629,66.711-16.1906,68.0051-11.8697h.0292Z"/>
  <path class="cls-3" d="M539.688,607.3336c-19.6197.1498-29.8261,2.4383-34.9148,4.5257-5.0885,2.2628-4.9423,4.2624-4.1784,6.1122.7055,1.6742,1.5902,2.4675,5.3556,2.4675.5301,0,1.1149,0,1.762-.0585,5.18-.117,14.7686-1.232,31.7672-1.3233,17.4445.1206,26.7078,1.2063,32.0049,1.3233.647.0292,1.2064.0585,1.7363.0585,3.7908,0,4.7342-.7933,5.3812-2.4675.764-1.8206.9393-3.8494-4.1784-6.1122-4.9972-2.0874-15.5-4.4088-34.7064-4.5257"/>
</svg>