<?xml version="1.0" encoding="UTF-8"?>
<svg id="Expressions" xmlns="http://www.w3.org/2000/svg" viewBox="0 0 1080 1080">
  <defs>
    <style>
      .cls-1 {
        fill: #ff7b7b;
      }

      .cls-2 {
        fill: #5d359b;
      }
    </style>
  </defs>
  <path class="cls-2" d="M599.0992,562.939c0,11.8149-2.3762,23.0083-6.5071,32.8529-6.0314-7.9949-15.5729-13.1931-26.3202-13.1931-10.7839,0-20.2156,5.169-26.284,13.1053-5.9582-7.9363-15.4997-13.1053-26.247-13.1053-10.7839,0-20.362,5.169-26.3202,13.2516-4.1674-9.8445-6.5071-21.0673-6.5071-32.9407,0-39.8716,26.4666-72.1361,59.0743-72.1361,32.6448,0,59.1113,32.2645,59.1113,72.1361v.0293Z"/>
  <path class="cls-1" d="M540.0244,595.7334c6.0318-7.9326,15.4997-13.1053,26.284-13.1053,10.7473,0,20.2884,5.1727,26.3202,13.1931-9.7968,23.3593-29.6835,39.2867-52.6042,39.2867s-42.807-15.9275-52.5676-39.2283c5.9587-8.0789,15.5363-13.2516,26.3206-13.2516,10.7473,0,20.2884,5.1727,26.247,13.1053Z"/>
  <path class="cls-2" d="M488.9923,444.8921c2.0839,0,4.0211,1.2356,3.1804,8.2288-.585,3.4071-2.0469,8.4043-6.653,13.6939-2.2665,2.6137-5.3375,5.2861-9.3952,7.3734-2.0469,1.0272-4.3134,1.9704-6.7994,2.5553-1.1696.3545-2.6685.5886-4.1674.764-1.5717.2376-2.3031.1499-3.5824.2669-12.3194-.1169-20.0327-5.7904-24.6022-10.9595-4.6061-5.2896-6.0684-10.2869-6.6535-13.6939-.2923-1.6743-.2923-3.2608-.1825-4.4379.0732-1.2941.4387-1.7328.6944-2.3213.6582-1.0272,1.5355-1.3526,2.669-1.411,1.0964-.0586,2.1933,0,3.2165.7347.4752.3545.9871.9102,1.4623,1.6743.5484.6763,1.0237,1.3526,1.6087,2.3541,1.1696,2.0253,2.7783,4.8474,5.8123,8.0496,1.6087,1.5574,3.5824,3.1439,6.1782,4.4672,2.4124,1.2904,6.068,2.1714,9.1024,2.2628,8.1885-.1498,12.7214-3.6446,15.9384-6.7006,3.0706-3.2023,4.6427-6.0245,5.8123-8.0497,2.3031-4.1161,3.9479-4.8802,6.3241-4.8217l.0366-.0292Z"/>
  <path class="cls-2" d="M646.5855,444.8921c2.0474,0,3.9845,1.2356,3.1438,8.2288-.5846,3.4071-2.0469,8.4043-6.6164,13.6939-2.2665,2.6137-5.3736,5.2861-9.4318,7.3734-2.0103,1.0272-4.2768,1.9704-6.7994,2.5553-1.1696.3545-2.6319.5886-4.1309.764-1.6083.2376-2.3396.1499-3.5824.2669-12.356-.1169-20.0327-5.7904-24.6388-10.9595-4.5695-5.2896-6.0684-10.2869-6.653-13.6939-.2927-1.6743-.2927-3.2608-.183-4.4379.0732-1.2941.4752-1.7328.7309-2.3213.6216-1.0272,1.5355-1.3526,2.6324-1.411,1.133-.0586,2.2299,0,3.217.7347.5118.3545.9871.9102,1.4619,1.6743.5484.6763,1.0237,1.3526,1.6087,2.3541,1.2062,2.0253,2.7783,4.8474,5.8489,8.0496,1.5721,1.5574,3.5458,3.1439,6.1416,4.4672,2.449,1.2904,6.068,2.1714,9.1024,2.2628,8.1885-.1498,12.7214-3.6446,15.9384-6.7006,3.0706-3.2023,4.6793-6.0245,5.8489-8.0497,2.2665-4.1161,3.9479-4.8802,6.3241-4.8217l.0366-.0292Z"/>
</svg>