<?xml version="1.0" encoding="UTF-8"?>
<svg id="Expressions" xmlns="http://www.w3.org/2000/svg" viewBox="0 0 1080 1080">
  <defs>
    <style>
      .cls-1 {
        fill: #5d359b;
      }

      .cls-2 {
        fill: rgba(93, 53, 155, .4);
      }
    </style>
  </defs>
  <path class="cls-1" d="M641.5165,494.0637c2.2299,3.8786,3.5458,8.3165,3.5458,13.1053,0,14.4872-11.7709,26.24-26.2475,26.24-14.5127,0-26.2836-11.7528-26.2836-26.24,0-4.7888,1.2428-9.256,3.5458-13.1053h45.476-.0366Z"/>
  <path class="cls-1" d="M483.9595,494.0637c2.2303,3.8786,3.5463,8.3165,3.5463,13.1053,0,14.4872-11.7714,26.24-26.284,26.24-14.4761,0-26.247-11.7528-26.247-26.24,0-4.7888,1.2428-9.256,3.5458-13.1053h45.4389Z"/>
  <path class="cls-1" d="M658.1858,495.5735c0,4.4928-12.8678,5.169-118.1856,5.169s-118.1861-.647-118.1861-5.169c0-4.5257,4.9354-8.1703,118.1861-8.1703s118.1856,3.6447,118.1856,8.1703Z"/>
  <path class="cls-1" d="M585.951,561.1441c0,4.4963-5.0082,5.1726-45.9508,5.1726s-45.9512-.647-45.9512-5.1726,1.9376-8.1667,45.9512-8.1667c44.0498,0,45.9508,3.641,45.9508,8.1667Z"/>
  <path class="cls-2" d="M540.0002,579.2576c-18.8631,0-19.7038,3.6447-19.7038,8.1667,0,4.5257,2.1567,5.1726,19.7038,5.1726s19.7038-.6469,19.7038-5.1726c0-4.522-.8046-8.1667-19.7038-8.1667Z"/>
</svg>