<?xml version="1.0" encoding="UTF-8"?>
<svg id="Expressions" xmlns="http://www.w3.org/2000/svg" viewBox="0 0 1080 1080">
  <defs>
    <style>
      .cls-1 {
        fill: #ff7b7b;
      }

      .cls-2 {
        fill: #5d359b;
      }
    </style>
  </defs>
  <path class="cls-2" d="M637.8824,563.2682c2.2299,3.8785,3.5458,8.3165,3.5458,13.1053,0,14.4871-11.7709,26.24-26.2836,26.24-14.4765,0-26.2475-11.7529-26.2475-26.24,0-4.7888,1.2428-9.256,3.5458-13.1053h45.4394Z"/>
  <path class="cls-2" d="M480.2892,563.2682c2.2299,3.8785,3.5824,8.3165,3.5824,13.1053,0,14.4871-11.7709,26.24-26.284,26.24s-26.247-11.7529-26.247-26.24c0-4.7888,1.2062-9.256,3.5458-13.1053h45.4394-.0366Z"/>
  <path class="cls-2" d="M654.5517,564.7669c0,4.4964-12.904,5.1727-118.1856,5.1727s-118.1856-.647-118.1856-5.1727,4.935-8.1665,118.1856-8.1665,118.1856,3.641,118.1856,8.1665Z"/>
  <path class="cls-2" d="M582.3535,630.3412c0,4.4963-5.0082,5.169-45.9508,5.169s-45.9512-.6434-45.9512-5.169,1.901-8.1703,45.9512-8.1703c44.0137,0,45.9508,3.6447,45.9508,8.1703Z"/>
  <path class="cls-1" d="M568.1331,516.2825c-1.6083-1.5865-1.7912-3.2022,1.2432-7.3148,1.5351-2.0582,3.8747-4.7012,7.3112-8.3166,1.718-1.7912,3.6922-3.82,5.9221-6.1122,1.1696-1.1442,2.3762-2.3505,3.619-3.6446.6578-.647,1.316-1.2904,1.9742-1.996,1.4619-1.5865-.8778.8225-.5118,2.2043-.3659,1.3782,1.9737,3.7872.5118,2.2007-.6582-.6727-1.353-1.349-1.9742-1.996-1.2428-1.294-2.4494-2.4967-3.619-3.6446-2.2299-2.3213-4.204-4.3502-5.9221-6.1122-3.4365-3.5825-5.7761-6.2584-7.3112-8.3166-3.0344-4.0832-2.8515-5.6991-1.2432-7.3148,1.5721-1.5866,3.2901-2.7637,7.7137-.4423,2.2299,1.1478,5.1175,3.2059,8.9927,6.496,1.9376,1.645,4.0943,3.6117,6.6164,5.933,1.2432,1.1771,2.5226,2.4419,3.9483,3.7616.6944.6763,1.3891,1.3819,2.1201,2.0874.3289.3838.6582.53,1.7546,1.8497,1.2432,1.7364,1.7546,3.5276,1.8278,5.498,0,1.9375-.6212,3.8494-1.7546,5.3737-.2557.3839-.585.7348-.9139,1.0894l-.3289.351-.585.5594c-.7309.7347-1.4257,1.411-2.1201,2.0873-1.4257,1.3196-2.7051,2.5845-3.9483,3.7616-2.4856,2.3213-4.6788,4.288-6.6164,5.9331-3.8752,3.2937-6.7628,5.3189-8.9927,6.496-4.387,2.3212-6.105,1.1442-7.7137-.4423v-.0293Z"/>
  <path class="cls-1" d="M660.0351,518.3992c-1.5717,1.5865-3.1804,1.7912-7.3112-1.2612-2.0469-1.528-4.7154-3.8822-8.3344-7.2892-1.7917-1.7328-3.802-3.7031-6.105-5.9367-1.17-1.1443-2.3762-2.3506-3.6556-3.6118-.6582-.647-1.2794-1.2941-2.0108-1.9704-.3289-.4094-.4752-.2925-1.8278-2.1459-.9871-1.4659-1.4985-3.2608-1.4985-5.052s.5114-3.5862,1.4985-5.0558c1.4989-1.9959,1.4623-1.645,1.8278-2.1422.6948-.6763,1.3526-1.3526,2.0108-1.9704,1.2794-1.294,2.4856-2.4675,3.6556-3.6153,2.3031-2.23,4.35-4.2004,6.105-5.9331,3.5824-3.4106,6.2875-5.7612,8.3344-7.2892,4.0943-3.0561,5.703-2.8477,7.3112-1.2612,1.6087,1.5865,2.7783,3.29.4387,7.6987-1.133,2.2044-3.1804,5.0813-6.5066,8.96-1.6453,1.9411-3.5829,4.1162-5.9221,6.613-1.17,1.232-2.4494,2.5261-3.7654,3.9371-.6948.7056-1.3891,1.4111-2.0839,2.1459l-.548.5557-.1464.1498-.0732.0586h-.0366c2.4494,2.643-3.3267-3.4984-2.7417-2.8807l-.1464.0878h.0732v-.0292h.0366v-.0292c-.6212.6177,5.3375-5.3482,2.8149-2.8221h.0366l.0366.1169.1464.1499.5846.5556c.7314.7348,1.3891,1.4404,2.0839,2.1459,1.316,1.4111,2.5953,2.7052,3.7649,3.9371,2.3031,2.4676,4.2772,4.6719,5.9225,6.6131,3.2897,3.8786,5.337,6.7555,6.5066,8.9599,2.3396,4.4086,1.1335,6.1122-.4387,7.6988l-.0366-.0878Z"/>
  <path class="cls-1" d="M640.368,538.081c-1.5717,1.5865-3.217,1.7912-7.3112-1.2649-2.0835-1.528-4.7154-3.8786-8.3344-7.2856-1.7912-1.7328-3.8386-3.7031-6.105-5.9368-1.1696-1.1442-2.3762-2.3505-3.6556-3.6153-.6582-.6434-1.316-1.2904-2.0108-1.9667-1.5717-1.4696.8412.881,2.1937.53,1.3891.351,3.8015-1.9996,2.2299-.53-.6948.6763-1.3526,1.3526-2.0108,1.9667-1.2794,1.2941-2.4856,2.4712-3.6556,3.6153-2.3031,2.2337-4.35,4.204-6.105,5.9368-3.5824,3.4069-6.2509,5.7575-8.3344,7.2856-4.0943,3.0561-5.703,2.8514-7.3112,1.2649-1.6087-1.5865-2.7783-3.29-.4387-7.6987,1.133-2.2043,3.1804-5.085,6.5066-8.9636,1.6453-1.9375,3.619-4.1126,5.9221-6.6093,1.17-1.2356,2.4494-2.5261,3.7654-3.9371.6948-.7055,1.3891-1.4111,2.0839-2.1459.4021-.3217.548-.647,1.8644-1.7328,1.718-1.2649,3.5458-1.7657,5.4834-1.8241,1.9737,0,3.8747.6178,5.4102,1.7364.3655.2632.7309.5848,1.0598.9102l.3659.3509.548.5594c.7314.7347,1.4257,1.4404,2.1205,2.1459,1.316,1.411,2.5587,2.7014,3.7288,3.9371,2.3392,2.4675,4.3134,4.6718,5.9587,6.6093,3.2897,3.8786,5.337,6.7593,6.5066,8.9636,2.3031,4.4086,1.1335,6.1122-.4387,7.6987h-.0366Z"/>
  <path class="cls-1" d="M642.4885,446.2631c1.5717,1.5865,1.7912,3.2023-1.2794,7.3186-1.4989,2.0544-3.8752,4.701-7.2751,8.3128-1.7546,1.7949-3.7283,3.8202-5.9587,6.1122-1.133,1.1478-2.3392,2.3506-3.619,3.6447-.6212.647-1.2794,1.2941-1.9737,1.9996-.4021.3217-.2927.4971-2.1205,1.8498-1.4985.9687-3.2897,1.4988-5.0813,1.4988s-3.5824-.5301-5.0443-1.4988c-2.0108-1.4988-1.6453-1.4696-2.1571-1.8498-.6578-.6763-1.3526-1.3526-1.9737-1.9996-1.2432-1.2941-2.4494-2.4968-3.6195-3.6447-2.2299-2.3212-4.2036-4.3465-5.9221-6.1122-3.4361-3.5825-5.7757-6.2584-7.3112-8.3128-3.034-4.087-2.851-5.7027-1.2428-7.3186,1.5721-1.5865,3.2901-2.7599,7.7133-.4387,2.2299,1.1442,5.0813,3.2023,8.9931,6.4924,1.9371,1.6451,4.0943,3.6154,6.6164,5.9367,1.2062,1.1735,2.5226,2.409,3.9117,3.7616.7309.6764,1.4253,1.3782,2.1567,2.0837l.585.5594.1459.1461.0366.0586h.0366c2.6319-2.409-3.5458,3.3814-2.9247,2.7928l.1098.1463v-.0585h-.0732v-.0292c.6216.6178-5.337-5.3482-2.8144-2.8221h.0361l.0366-.117.1464-.1461.585-.5594c.7309-.7347,1.4257-1.411,2.1201-2.0837,1.4257-1.3233,2.7051-2.5881,3.9483-3.7616,2.4856-2.3213,4.6788-4.2917,6.6164-5.9367,3.8752-3.29,6.7628-5.319,8.9927-6.4924,4.387-2.3213,6.105-1.1478,7.7133.4387l-.1093.0292Z"/>
</svg>