<?xml version="1.0" encoding="UTF-8"?>
<svg id="Expressions" xmlns="http://www.w3.org/2000/svg" viewBox="0 0 1080 1080">
  <defs>
    <style>
      .cls-1 {
        fill: #5d359b;
      }

      .cls-2 {
        fill: rgba(93, 53, 155, .4);
      }
    </style>
  </defs>
  <path class="cls-1" d="M595.7661,565.4503c14.5131,0,26.284-11.7454,26.284-26.24s-11.7709-26.2399-26.284-26.2399-26.247,11.7491-26.247,26.2399,11.7344,26.24,26.247,26.24Z"/>
  <path class="cls-1" d="M464.4935,565.4503c14.4761,0,26.247-11.7454,26.247-26.24s-11.7709-26.2399-26.247-26.2399c-14.5131,0-26.284,11.7491-26.284,26.2399s11.7709,26.24,26.284,26.24Z"/>
  <path class="cls-2" d="M598.7273,459.8728c-.4752,0-.9505.0877-1.4623.2339-2.1933.6177-4.0943,1.3526-4.0577,5.9367-.0732,2.292.7675,5.5236,2.9613,9.8445,2.1567,4.3173,6.3607,9.5484,13.2699,14.2496,6.9819,4.6134,13.0869,6.2584,17.6564,7.0516,2.1933.3547,4.0577.5008,5.7025.5008,1.7185,0,3.1442-.1754,4.2406-.413,4.4231-1.0565,4.7525-3.2608,4.7525-5.4651-.0732-2.2921-.6948-3.4656-4.3504-4.6135-1.8278-.5263-4.3866-1.2904-7.9324-2.3212-3.4731-1.115-7.8962-2.6723-12.7219-5.8453-9.5411-6.5253-11.6978-12.9884-13.9642-15.869-1.4257-2.4384-2.6319-3.2608-4.0943-3.2608"/>
  <path class="cls-1" d="M568.4588,599.2756c-1.6083,1.678-2.8876,1.8242-7.6035-.3801-4.8257-1.879-13.0874-6.847-30.9263-7.1102-8.2617.0877-15.1343,1.4402-19.9233,2.9683-4.8984,1.528-8.1885,3.0854-10.6014,4.1419-4.752,2.2628-5.8855,1.9704-7.6035.413-1.5721-1.4988-2.8881-3.6153,1.2794-8.2873,2.1205-2.2335,5.703-5.1141,11.6616-7.6987,6.0314-2.5845,14.1472-4.8181,25.5893-4.8766,4.7886,0,10.3452.6141,14.4029,1.4659,4.204.9725,7.8231,2.0874,10.7843,3.4107,5.9582,2.5553,9.5411,5.4359,11.6246,7.6987,4.204,4.6719,2.8881,6.7884,1.316,8.2543Z"/>
  <path class="cls-2" d="M530.6234,604.6713h-.6582c-11.5514,0-18.0951,4.0541-20.142,7.6365-2.1205,3.7324,0,5.4652,1.9371,6.2292,1.8644.647,2.5592,1.5902,3.7288,1.5902.2196,0,.4752-.0329.7675-.1206,1.5355-.2925,5.3741-1.9667,13.7085-2.0253,9.0297.0586,12.356,1.7328,14.0379,2.0253.2923.0585.5484.0877.7675.0877,1.1696,0,1.9742-.7311,3.7288-1.6157,2.0103-.6727,4.0577-2.4676,1.9742-6.2-1.9376-3.5824-8.9199-7.6365-19.8136-7.6365"/>
</svg>