<?xml version="1.0" encoding="UTF-8"?>
<svg id="Expressions" xmlns="http://www.w3.org/2000/svg" viewBox="0 0 1080 1080">
  <defs>
    <style>
      .cls-1 {
        fill: #87e3ff;
      }

      .cls-2 {
        fill: #5d359b;
      }

      .cls-3 {
        fill: rgba(93, 53, 155, .4);
      }
    </style>
  </defs>
  <path class="cls-1" d="M456.8224,483.1297c0,18.1026-14.6956,32.7945-32.8273,32.7945-6.6169,0-12.7946-1.9704-17.9857-5.3774-8.9561-5.8489-14.8415-15.9275-14.8415-27.4171,0-18.0989,32.8273-65.5816,32.8273-65.5816,0,0,12.4292,17.8942,21.9336,35.9346,6.0318,11.3433,10.9302,22.683,10.9302,29.647h-.0366Z"/>
  <path class="cls-2" d="M619.4969,654.0184c-2.2665.7347-3.2901-.2632-7.4937-5.3774-2.1937-2.4383-5.4473-5.7868-11.1864-8.9014-2.8515-1.528-6.3241-2.9976-10.6745-3.97-2.1567-.5849-4.4231-.9395-6.7994-1.2027-2.0835-.4423-5.8855-.3254-8.3349-.5301-11.6246.1462-20.1786,2.4968-25.8449,5.6735-5.7025,3.1145-8.9561,6.4631-11.1498,8.9014-2.1933,2.4968-3.3995,4.1126-4.4597,4.8766-1.0237.7055-1.9376.7932-3.0706.5301-1.9742-.5008-4.5695-1.9704-1.5355-9.8738,1.6453-3.7616,5.0082-9.373,12.5389-14.3958,7.3844-5.1727,18.9358-8.9635,33.5582-9.0513,4.0581.2339,6.4705.117,10.1993.7055,3.4365.3802,6.4705,1.115,9.2854,1.879,5.6293,1.7072,10.3818,3.8201,14.074,6.4668,7.4942,5.0228,10.857,10.6341,12.5389,14.3958,2.9974,7.8741.4387,9.4022-1.6087,9.8445"/>
  <path class="cls-3" d="M575.4832,646.996h-.6944c-11.5518,0-18.0589,4.054-20.1424,7.6366-2.0835,3.7324,0,5.4688,1.9742,6.2291,1.8644.647,2.5222,1.5902,3.7288,1.5902.2191,0,.4387-.0292.7675-.1206,1.5355-.2925,5.3736-1.9668,13.6719-2.0252,9.0292.0585,12.356,1.7328,14.074,2.0252.2561.0585.5484.0914.7675.0914,1.17,0,1.9742-.7348,3.6922-1.6195,2.0474-.6726,4.0581-2.4675,2.0108-6.1999-1.9376-3.5825-8.9195-7.6365-19.8136-7.6365"/>
  <path class="cls-2" d="M515.8971,589.5444c0,2.2628-.7314,3.5862-4.387,4.4379-3.5824,1.0565-10.272,1.4111-21.3486,5.3774-10.9668,4.2003-16.2673,8.2836-19.594,9.8117-3.2901,1.7072-4.4963,1.1771-6.1416-.3802-1.5351-1.5573-2.851-3.3485-.6578-7.0517,2.2299-3.4984,7.8596-9.4607,21.7507-14.8674,14.1106-4.9972,22.263-4.1162,26.1743-2.9683,3.9845,1.3197,4.204,3.3485,4.204,5.6114v.0292Z"/>
  <path class="cls-2" d="M634.0827,586.5578c0-2.2628.768-3.524,5.0813-4.0833,4.2406-.351,12.2462-.2632,25.297,4.4086,12.9405,4.9643,19.0456,10.1078,22.0796,13.1931,2.9613,3.2609,2.7417,5.0228,1.0969,6.5509-1.6083,1.6158-3.1804,2.7929-6.7628,1.7657-3.6922-.9139-9.322-4.4964-21.0563-9.0513-11.8441-4.2332-18.461-5.1434-21.9336-6.9055-3.4731-1.6158-3.802-3.6738-3.802-5.9075v.0292Z"/>
</svg>