<?xml version="1.0" encoding="UTF-8"?>
<svg id="Expressions" xmlns="http://www.w3.org/2000/svg" viewBox="0 0 1080 1080">
  <defs>
    <style>
      .cls-1 {
        fill: #5d359b;
      }

      .cls-2 {
        fill: #dedede;
      }

      .cls-3 {
        fill: #fff;
      }
    </style>
  </defs>
  <path class="cls-3" d="M559.704,582.672h-39.4076v32.7944h39.4076v-32.7944Z"/>
  <path class="cls-3" d="M520.2964,582.672h-39.4076v32.7944h39.4076v-32.7944Z"/>
  <path class="cls-3" d="M559.704,549.8739h-39.4076v32.7908h39.4076v-32.7908Z"/>
  <path class="cls-3" d="M480.8889,582.672h-39.371v32.7944h39.371v-32.7944Z"/>
  <path class="cls-3" d="M480.8889,549.8739h-39.371v32.7908h39.371v-32.7908Z"/>
  <path class="cls-3" d="M441.5179,549.8739v32.7908h-32.8273c0-18.0989,14.6956-32.7908,32.8273-32.7908Z"/>
  <path class="cls-3" d="M599.0745,549.8739h-39.3705v32.7908h39.3705v-32.7908Z"/>
  <path class="cls-3" d="M441.5179,582.672v32.7944c-9.0658,0-17.291-3.6739-23.2496-9.5814-5.9221-5.9623-9.5777-14.1618-9.5777-23.2131h32.8273Z"/>
  <path class="cls-3" d="M520.2964,549.8739h-39.4076v32.7908h39.4076v-32.7908Z"/>
  <path class="cls-3" d="M599.0745,582.672h-39.3705v32.7944h39.3705v-32.7944Z"/>
  <path class="cls-3" d="M638.4455,549.8739h-39.371v32.7908h39.371v-32.7908Z"/>
  <path class="cls-3" d="M638.4455,582.672h-39.371v32.7944h39.371v-32.7944Z"/>
  <path class="cls-3" d="M671.3093,582.6647h-32.8273v-32.7908c9.0658,0,17.291,3.6702,23.2496,9.5777,5.9221,5.966,9.5777,14.1618,9.5777,23.2131Z"/>
  <path class="cls-3" d="M638.4455,582.672h32.8273c0,18.1026-14.6952,32.7944-32.8273,32.7944v-32.7944Z"/>
  <path class="cls-1" d="M618.7783,517.094c14.5131,0,26.284-11.7491,26.284-26.2399s-11.7709-26.2399-26.284-26.2399-26.247,11.7491-26.247,26.2399,11.7344,26.2399,26.247,26.2399Z"/>
  <path class="cls-1" d="M486.7744,496.7834c3.3267-14.107-5.4468-28.2322-19.5574-31.5479-14.1106-3.3157-28.2578,5.4322-31.5845,19.5392-3.3267,14.107,5.4468,28.2322,19.5574,31.5479,14.1472,3.3156,28.2578-5.4322,31.5845-19.5392Z"/>
  <path class="cls-2" d="M671.3093,583.1618c0,.764-3.5824,1.1771-21.7507,1.4111-18.2049.234-51.0321.2925-109.5584.2925-58.4897,0-91.317-.0585-109.5223-.2925-18.2049-.2339-21.7873-.6763-21.7873-1.4111s1.3891-1.4403,18.4976-1.9082c17.0714-.5008,49.8987-.7933,112.812-.7933s95.7401.2925,112.8486.7933c17.0714.4972,18.4605,1.1734,18.4605,1.9082Z"/>
  <path class="cls-2" d="M441.0061,615.4554c-1.4985,0-1.7546-3.5825-1.7546-32.7907s.2196-32.7908,1.7546-32.7908,2.7417,1.3782,2.7417,32.7908-1.2062,32.7907-2.7417,32.7907Z"/>
  <path class="cls-2" d="M638.0068,615.4554c-1.4989,0-1.7546-3.5825-1.7546-32.7907s.2196-32.7908,1.7546-32.7908c1.4989,0,2.7051,1.3782,2.7051,32.7908s-1.2062,32.7907-2.7051,32.7907Z"/>
  <path class="cls-2" d="M598.5631,615.4554c-1.4989,0-1.7185-3.5825-1.7185-32.7907s.2196-32.7908,1.7185-32.7908c1.5351,0,2.7417,1.3782,2.7417,32.7908s-1.2066,32.7907-2.7417,32.7907Z"/>
  <path class="cls-2" d="M559.1922,615.4554c-1.4989,0-1.7185-3.5825-1.7185-32.7907s.183-32.7908,1.7185-32.7908,2.7417,1.3782,2.7417,32.7908-1.2066,32.7907-2.7417,32.7907Z"/>
  <path class="cls-2" d="M519.8212,615.4554c-1.4989,0-1.7546-3.5825-1.7546-32.7907s.2191-32.7908,1.7546-32.7908,2.7417,1.3782,2.7417,32.7908-1.2066,32.7907-2.7417,32.7907Z"/>
  <path class="cls-2" d="M480.3771,615.4554c-1.4989,0-1.718-3.5825-1.718-32.7907s.2191-32.7908,1.718-32.7908c1.5355,0,2.7417,1.3782,2.7417,32.7908s-1.2062,32.7907-2.7417,32.7907Z"/>
</svg>