<?xml version="1.0" encoding="UTF-8"?>
<svg id="Expressions" xmlns="http://www.w3.org/2000/svg" viewBox="0 0 1080 1080">
  <defs>
    <style>
      .cls-1 {
        fill: #5d359b;
      }

      .cls-2 {
        fill: rgba(93, 53, 155, .4);
      }
    </style>
  </defs>
  <path class="cls-1" d="M618.7966,479.1608c14.4761,0,26.2475,11.7531,26.2475,26.2396s-11.7714,26.2392-26.2475,26.2392c-14.5127,0-26.2836-11.7531-26.2836-26.2392s11.7709-26.2396,26.2836-26.2396Z"/>
  <path class="cls-1" d="M461.2034,479.1608c14.5127,0,26.2836,11.7531,26.2836,26.2396s-11.7709,26.2392-26.2836,26.2392c-14.4761,0-26.2475-11.7531-26.2475-26.2392s11.7714-26.2396,26.2475-26.2396Z"/>
  <path class="cls-1" d="M618.1384,578.8821c-.9866,2.1159-3.1072,2.1159-13.5256-.3232-10.455-2.1744-29.5006-7.2282-64.5947-7.4633-35.0937.2351-54.1759,5.2889-64.5943,7.4633-10.4916,2.4975-12.4657,2.439-13.5626.3528-.9866-1.9101-1.1696-4.5841,8.6642-9.3441,4.8984-2.3213,12.3921-5.0246,23.5785-7.3752,11.2225-2.3802,26.2109-4.3195,45.9142-4.4076,19.5579.0881,34.7283,2.0274,45.878,4.4076,11.1864,2.3506,18.6801,5.0831,23.5785,7.3752,9.8338,4.76,9.6509,7.434,8.6638,9.3441v-.0296Z"/>
  <path class="cls-2" d="M540.0913,584.0022c-20.3981.147-30.634,4.2314-35.4592,7.1697-4.8618,3.1442-4.3504,5.4359-3.3999,7.4048.768,1.4692,1.5355,2.2624,3.8752,2.2624.8773,0,1.9742-.1177,3.3995-.3528,5.0448-.6756,14.4399-3.0557,31.3654-3.1734,17.3275.1177,26.3934,2.4979,31.5845,3.1734,1.4257.2351,2.5587.3528,3.4361.3528,2.3396,0,3.1072-.764,3.8386-2.2624.9871-1.9393,1.4985-4.2314-3.3633-7.3756-4.7886-2.9384-15.3168-7.0224-35.2767-7.1694"/>
</svg>