<?xml version="1.0" encoding="UTF-8"?>
<svg id="Expressions" xmlns="http://www.w3.org/2000/svg" viewBox="0 0 1080 1080">
  <defs>
    <style>
      .cls-1 {
        fill: #87e3ff;
      }

      .cls-2 {
        fill: #5d359b;
      }

      .cls-3 {
        fill: rgba(93, 53, 155, .4);
      }
    </style>
  </defs>
  <path class="cls-2" d="M674.3255,546.4746c2.2299,3.8786,3.5458,8.3154,3.5458,13.105,0,14.4861-11.7709,26.2396-26.2836,26.2396-14.4765,0-26.2475-11.7535-26.2475-26.2396,0-4.7896,1.2428-9.256,3.5458-13.105h45.4394Z"/>
  <path class="cls-2" d="M516.7323,546.4746c2.2665,3.8786,3.5824,8.3154,3.5824,13.105,0,14.4861-11.7709,26.2396-26.284,26.2396-14.4761,0-26.247-11.7535-26.247-26.2396,0-4.7896,1.2062-9.256,3.5458-13.105h45.4394-.0366Z"/>
  <path class="cls-1" d="M454.6602,500.5843c0,18.1-14.7322,32.7919-32.8277,32.7919-6.6164,0-12.7946-1.9689-18.0219-5.3774-8.9199-5.8471-14.8054-15.9256-14.8054-27.4145,0-18.1004,32.8273-65.5845,32.8273-65.5845,0,0,12.3926,17.8946,21.9336,35.9361,6.0318,11.3422,10.9307,22.6845,10.9307,29.6484h-.0366Z"/>
  <path class="cls-2" d="M690.9948,547.9745c0,4.4957-12.904,5.1716-118.1856,5.1716s-118.1856-.6463-118.1856-5.1716,4.935-8.1685,118.1856-8.1685,118.1856,3.6435,118.1856,8.1685Z"/>
  <path class="cls-2" d="M618.7966,613.5543c0,4.4957-5.0082,5.1712-45.9508,5.1712s-45.9874-.6463-45.9874-5.1712,1.9005-8.1688,45.9874-8.1688c44.0502,0,45.9508,3.6436,45.9508,8.1688Z"/>
  <path class="cls-3" d="M572.8458,631.6601c-18.8996,0-19.7038,3.6436-19.7038,8.1685s2.1201,5.1716,19.7038,5.1716c17.5471,0,19.7038-.6463,19.7038-5.1716s-.8407-8.1685-19.7038-8.1685Z"/>
</svg>