<?xml version="1.0" encoding="UTF-8"?>
<svg id="Expressions" xmlns="http://www.w3.org/2000/svg" viewBox="0 0 1080 1080">
  <defs>
    <style>
      .cls-1 {
        fill: #ff7b7b;
      }

      .cls-2 {
        fill: #5d359b;
      }
    </style>
  </defs>
  <path class="cls-1" d="M595.9343,556.4448v26.2399c0,14.4835-11.7638,26.2363-26.2655,26.2363s-26.2655-11.7528-26.2655-26.2363v-26.2399h52.5311Z"/>
  <path class="cls-2" d="M592.1873,557.9509c0,4.4964-8.5906,5.1727-78.8002,5.1727s-78.8004-.647-78.8004-5.1727,3.2937-8.1702,78.8004-8.1702,78.8002,3.6446,78.8002,8.1702Z"/>
  <path class="cls-2" d="M538.0076,503.9905c-2.3798,0-3.2937-1.1186-4.9972-5.2604-.9724-1.9997-2.1788-4.9095-5.1177-7.9656-3.0014-2.9939-7.3552-6.2292-14.9734-6.3753-2.793.0585-6.2364.9102-8.5286,2.1165-2.4421,1.2064-4.3245,2.7345-5.7686,4.2588-2.9392,3.0269-4.1748,5.9367-5.1179,7.9656-.9101,2.0252-1.4695,2.9975-2.2334,4.2002-.735.9688-1.6489,1.2063-2.7638,1.1478-1.1185-.0585-2.208-.2084-3.1181-1.0602-.4717-.4094-.9139-.9979-1.2941-1.8204-.2961-.9102-.5886-2.2628-.5886-3.9078-.0585-3.1731.8224-8.0825,4.8803-13.8694,4.1491-5.5236,11.9428-12.1951,25.2383-12.3414,1.3818.117,2.1165,0,3.9115.3254,1.6486.2047,3.0889.5263,4.3538.9102,2.6467.7055,4.9716,1.7912,7.0883,2.9355,4.1489,2.4127,7.0881,5.3773,9.1792,8.1995,4.0577,5.7905,4.9388,10.6963,4.8801,13.8694-.0585,3.2023-.9393,4.8766-1.8825,5.7284-.9396.8553-1.9996.9431-3.1183.9431h-.0292Z"/>
  <path class="cls-2" d="M640.3646,503.9905c-2.3762,0-3.2901-1.1186-4.9716-5.2604-.9871-1.9997-2.1935-4.9095-5.1179-7.9656-3.034-2.9939-7.3697-6.2292-14.9879-6.3753-2.793.0585-6.2364.9102-8.5321,2.1165-2.4385,1.2064-4.321,2.7345-5.765,4.2588-2.9392,3.0269-4.1748,5.9367-5.1179,7.9656-.9101,2.0252-1.4695,2.9975-2.2334,4.2002-.7347.9688-1.6486,1.2063-2.7674,1.1478-1.1149-.0585-2.2042-.2084-3.1145-1.0602-.4717-.4094-.9139-.9979-1.2941-1.8204-.2961-.9102-.5886-2.2628-.5886-3.9078-.0585-3.1731.8226-8.0825,4.8803-13.8694,4.1491-5.5236,11.9428-12.1951,25.2383-12.3414,1.3818.117,2.1165,0,3.9115.3254,1.6486.2047,3.0889.5263,4.3538.9102,2.654.7055,4.9571,1.7912,7.0774,2.9355,4.1672,2.4127,7.0919,5.3773,9.1754,8.1995,4.0579,5.7905,4.9718,10.6963,4.8986,13.8694-.0732,3.2023-.9505,4.8766-1.901,5.7284-.9139.8553-1.9739.9431-3.1072.9431h-.0366Z"/>
</svg>