<?xml version="1.0" encoding="UTF-8"?>
<svg id="Expressions" xmlns="http://www.w3.org/2000/svg" viewBox="0 0 1080 1080">
  <defs>
    <style>
      .cls-1 {
        fill: #5d359b;
      }
    </style>
  </defs>
  <path class="cls-1" d="M619.2368,495.8872c14.4982,0,26.2655,11.7528,26.2655,26.2399s-11.7674,26.24-26.2655,26.24-26.2691-11.7528-26.2691-26.24,11.7674-26.2399,26.2691-26.2399Z"/>
  <path class="cls-1" d="M461.669,495.8872c14.5019,0,26.2655,11.7528,26.2655,26.2399s-11.7636,26.24-26.2655,26.24-26.2655-11.7528-26.2655-26.24,11.7638-26.2399,26.2655-26.2399Z"/>
  <path class="cls-1" d="M587.8497,568.4071c1.9704.5301,3.4436,3.2316-.9688,11.2849-2.3249,3.8786-6.591,9.0184-14.2092,13.544-3.791,2.2044-8.4409,4.2333-13.8511,5.5237-2.6759.7347-5.6188,1.2355-8.8539,1.5865-3.4729.5301-5.6481.3547-9.5009.5886-13.5916-.117-24.6207-3.1147-32.2097-7.6988-7.6475-4.4963-11.8843-9.6654-14.2056-13.544-4.3832-7.9327-3.0012-10.901-.9724-11.2557,2.2957-.6763,3.8823-.3509,8.5029,4.4086,2.4418,2.2337,5.6771,5.6699,11.6467,8.7845,5.8819,3.2316,14.7065,5.849,27.2673,5.9952,2.7051-.1755,6.7043-.117,8.8831-.5594,2.5295-.2047,4.9716-.7347,7.2637-1.232,4.4707-1.1771,8.2068-2.5004,11.1203-4.1747,5.9988-3.1145,9.2341-6.5508,11.6467-8.7844,4.5878-4.7596,6.178-5.0265,8.4993-4.438l-.0585-.0292Z"/>
  <path class="cls-1" d="M500.4954,510.378c-1.6779,4.1747-5.5017,3.3522-34.7392-8.3165-29.2377-11.6943-32.5899-13.7196-30.9156-17.9235,1.6779-4.171,4.4124-7.0224,35.8579,5.5529,31.4419,12.5789,31.4712,16.5161,29.7969,20.6871Z"/>
  <path class="cls-1" d="M579.2884,507.618c-1.6743-4.171,1.6486-6.2292,30.9154-17.9234,29.2375-11.6943,33.0613-12.5168,34.7392-8.3129,1.6743,4.171,1.6743,8.1082-29.7969,20.6834-31.4747,12.579-34.1798,9.7276-35.8577,5.5529Z"/>
</svg>