<?xml version="1.0" encoding="UTF-8"?>
<svg id="Expressions" xmlns="http://www.w3.org/2000/svg" viewBox="0 0 1080 1080">
  <defs>
    <style>
      .cls-1 {
        fill: #87e3ff;
      }

      .cls-2 {
        fill: #ff7b7b;
      }

      .cls-3 {
        fill: #5d359b;
      }

      .cls-4 {
        fill: #fff;
      }
    </style>
  </defs>
  <path class="cls-1" d="M459.4648,487.5219c0,18.1026-14.7065,32.7945-32.8273,32.7945-6.6166,0-12.7946-1.9704-18.0003-5.3774-8.9416-5.8489-14.8235-15.9275-14.8235-27.4171,0-18.0989,32.8237-65.5816,32.8237-65.5816,0,0,12.4144,17.8942,21.9446,35.9346,6.0318,11.3433,10.9119,22.683,10.9119,29.647h-.0292Z"/>
  <path class="cls-3" d="M523.6171,520.3127c-2.3834,0-3.2937-1.1149-5.0008-5.2568-.9688-1.9996-2.1752-4.9094-5.1179-7.9656-3.0012-2.9939-7.3514-6.2291-14.9696-6.3753-2.7966.0585-6.2364.9102-8.5324,2.1166-2.4418,1.2027-4.3245,2.7307-5.7648,4.2588-2.9427,3.0269-4.1784,5.9367-5.1179,7.9656-.9101,2.0252-1.4695,2.9976-2.2372,4.2003-.7347.9687-1.6451,1.2064-2.7636,1.1479-1.1187-.0585-2.2044-.2084-3.1183-1.0602-.4679-.4094-.9101-.998-1.2939-1.8205-.2925-.9102-.5886-2.2628-.5886-3.9078-.0585-3.1731.826-8.0825,4.8839-13.8693,4.1454-5.5236,11.9428-12.1952,25.2383-12.3414,1.3818.117,2.1165,0,3.9115.3217,1.6451.2084,3.0889.5301,4.3538.9139,2.6467.7019,4.968,1.7913,7.0883,2.9355,4.1454,2.409,7.0881,5.3774,9.1754,8.1995,4.0615,5.7868,4.9426,10.6963,4.8841,13.8693-.0879,3.2023-.9434,4.8766-1.8827,5.7283-.9431.8518-1.9996.9395-3.1476.9395Z"/>
  <path class="cls-3" d="M681.1739,520.3127c-2.3762,0-3.2901-1.1149-4.9718-5.2568-.9869-1.9996-2.1933-4.9094-5.1177-7.9656-2.9976-2.9939-7.3844-6.2291-14.9881-6.3753-2.7783.0585-6.2326.9102-8.5286,2.1166-2.4418,1.2027-4.3245,2.7307-5.794,4.2588-2.9427,3.0269-4.1784,5.9367-5.1179,7.9656-.9139,2.0252-1.4733,2.9976-2.2372,4.2003-.7347.9687-1.6451,1.2064-2.7636,1.1479-1.1187-.0585-2.208-.2084-3.1183-1.0602-.4715-.4094-.9101-.998-1.2941-1.8205-.2961-.9102-.5884-2.2628-.5884-3.9078-.0587-3.1731.8224-8.0825,4.8839-13.8693,4.1454-5.5236,11.9392-12.1952,25.2528-12.3414,1.3526.117,2.0837,0,3.9115.3217,1.6451.2084,3.0708.5301,4.3502.9139,2.6322.7019,4.9716,1.7913,7.0919,2.9355,4.1309,2.409,7.0553,5.3774,9.1756,8.1995,4.0577,5.7868,4.935,10.6963,4.862,13.8693-.0732,3.2023-.9505,4.8766-1.8644,5.7283-.9505.8518-2.0105.9395-3.1438.9395h0Z"/>
  <path class="cls-4" d="M499.9982,566.2272h155.2939c8.2251,0,14.3665,7.4355,12.9774,15.5181-.6214,3.6409-1.4623,7.2271-2.4858,10.7219h-176.2295c-1.0565-3.4948-1.8827-7.081-2.5005-10.7219-1.3818-8.0825,4.767-15.5181,12.9738-15.5181h-.0292Z"/>
  <path class="cls-3" d="M489.5176,592.4452h176.2295c-5.5566,18.5705-16.7463,34.6442-31.6613,46.163-5.0593-11.665-16.6182-19.9523-30.2063-19.9523-10.7658,0-20.2959,5.1727-26.2691,13.1053-5.9696-7.9327-15.4997-13.1053-26.2655-13.1053-13.588,0-25.2091,8.258-30.2063,19.9523-14.9149-11.5481-26.123-27.6218-31.6503-46.163h.0292Z"/>
  <path class="cls-2" d="M603.8834,618.6851c13.5878,0,25.1506,8.258,30.2099,19.9523-15.6204,12.1951-35.1816,19.4223-56.4754,19.4223s-40.8259-7.2272-56.4756-19.4223c5.0008-11.665,16.6185-19.9523,30.2063-19.9523,10.7658,0,20.2959,5.1727,26.2693,13.1053,5.9696-7.9327,15.4997-13.1053,26.2655-13.1053Z"/>
</svg>