<?xml version="1.0" encoding="UTF-8"?>
<svg id="Alarm" xmlns="http://www.w3.org/2000/svg" version="1.1" viewBox="0 0 1080 1080">
  <!-- Generator: Adobe Illustrator 30.3.0, SVG Export Plug-In . SVG Version: 2.1.3 Build 182)  -->
  <defs>
    <style>
      .st0 {
        fill: #ff9cc1;
      }

      .st1 {
        fill: #5d359b;
        fill-rule: evenodd;
      }
    </style>
  </defs>
  <path class="st0" d="M574.3,585.8c9.6-9,15.6-21.6,15.6-35.7,0-27.2-22.4-49.2-49.9-49.2s-49.9,22-49.9,49.2,6,26.7,15.6,35.7l-9.4,11.2c-1.8,2.1-1.5,5.3.7,7,.9.8,2.1,1.1,3.2,1.1s2.9-.6,3.9-1.8l9.6-11.5c7.6,4.7,16.7,7.4,26.3,7.4s18.7-2.7,26.3-7.4l9.6,11.5c1,1.2,2.4,1.8,3.9,1.8s2.3-.4,3.2-1.1c2.2-1.8,2.5-4.9.7-7l-9.4-11.2ZM543.5,551.5l-16.2,16.2c-.7.7-1.6,1-2.5,1s-1.8-.3-2.5-1c-1.4-1.4-1.4-3.6,0-4.9l14.2-14.1v-33.5c0-1.9,1.6-3.5,3.5-3.5s3.5,1.6,3.5,3.5v36.4Z"/>
  <path class="st0" d="M599.2,531.3c-2.7,3.5-8.2,2.7-9.9-1.4-5.2-12.8-15.1-23.1-27.5-28.8-4-1.8-4.7-7.4-1.1-10,1-.7,2.1-1.4,3.2-2-7.3-5.2-15.5-7.9-23.9-7.9s-16.6,2.8-23.9,7.9c1.1.6,2.2,1.3,3.2,2,3.5,2.6,2.9,8.2-1.1,10-12.4,5.7-22.3,16-27.5,28.8-1.7,4.1-7.2,5-9.9,1.4-4-5.2-6.3-11.9-5.8-19.2.8-14.1,12-25.6,25.8-26.5,3-.2,6,0,8.8.8,9.1-7.4,19.6-11.4,30.5-11.4s21.4,4,30.5,11.4c2.8-.7,5.7-1,8.8-.8,13.8,1,25,12.5,25.8,26.5.4,7.2-1.8,13.9-5.8,19.2Z"/>
  <path class="st1" d="M527.3,567.7l16.2-16.2v-36.4c0-1.9-1.6-3.5-3.5-3.5s-3.5,1.6-3.5,3.5v33.5l-14.2,14.1c-1.4,1.4-1.4,3.6,0,4.9.7.7,1.6,1,2.5,1s1.8-.3,2.5-1Z"/>
</svg>